<svg width="240" height="72" viewBox="0 0 240 72" fill="none" xmlns="http://www.w3.org/2000/svg">
<path d="M77.8676 21.1912C77.9581 21.1924 78.0485 21.1936 78.1416 21.1949C79.5925 21.2533 81.0579 21.601 82.4265 22.0735C82.4816 22.0923 82.5368 22.111 82.5936 22.1303C84.8734 22.9179 86.8407 24.3497 88.5294 26.0441C88.5699 26.082 88.6103 26.1199 88.652 26.159C88.9458 26.4369 89.1967 26.7409 89.4439 27.0597C89.477 27.1021 89.51 27.1444 89.5441 27.188C89.7794 27.4965 89.7794 27.4965 89.7794 27.6618C89.8279 27.6618 89.8765 27.6618 89.9265 27.6618C90.0327 27.8051 90.0327 27.8051 90.1562 28.0064C90.202 28.0807 90.2478 28.1551 90.295 28.2316C90.3673 28.3499 90.3673 28.3499 90.4412 28.4706C90.5124 28.5821 90.5124 28.5821 90.5851 28.6958C91.3955 29.9746 91.9898 31.3399 92.3845 32.8011C92.4241 32.9471 92.4654 33.0925 92.5069 33.2379C93.4061 36.5565 93.0394 40.453 91.5441 43.5441C91.5013 43.6392 91.4587 43.7344 91.4163 43.8296C90.9763 44.8079 90.4428 45.7145 89.7794 46.5588C89.74 46.6134 89.7005 46.668 89.6599 46.7243C89.6205 46.7789 89.5811 46.8335 89.5404 46.8897C89.5052 46.939 89.4699 46.9883 89.4336 47.0391C89.4021 47.0747 89.3706 47.1103 89.3382 47.1471C89.2897 47.1471 89.2412 47.1471 89.1912 47.1471C89.1731 47.1885 89.155 47.2299 89.1363 47.2726C88.7204 48.0332 87.9118 48.7172 87.2059 49.2059C87.1516 49.2619 87.0972 49.3179 87.0413 49.3756C86.8077 49.6033 86.5608 49.7818 86.2913 49.9642C86.2395 49.9994 86.1877 50.0346 86.1344 50.0709C85.6481 50.3979 85.1497 50.695 84.6323 50.9706C84.5869 50.9949 84.5414 51.0193 84.4946 51.0443C80.8668 52.9687 76.4782 53.3819 72.5388 52.226C70.8639 51.708 69.2968 50.9578 67.8676 49.9412C67.795 49.8904 67.7224 49.8396 67.6476 49.7872C67.3003 49.5403 66.9848 49.2957 66.6912 48.9853C66.6106 48.9187 66.5294 48.8528 66.4476 48.7877C66.3824 48.7316 66.3172 48.6755 66.25 48.6176C66.25 48.5691 66.25 48.5206 66.25 48.4706C66.2059 48.4513 66.1618 48.4321 66.1164 48.4123C65.9463 48.3182 65.8605 48.2307 65.7399 48.08C65.6122 47.9217 65.483 47.7772 65.3386 47.6333C62.5865 44.873 61.3105 40.8568 61.2224 37.0368C61.2999 33.8045 62.1446 30.4814 64.1489 27.8878C64.2323 27.7779 64.313 27.666 64.3919 27.5529C64.794 26.9785 65.2498 26.4741 65.7353 25.9706C65.7729 25.9314 65.8105 25.8922 65.8492 25.8518C66.321 25.3619 66.806 24.9064 67.3529 24.5C67.3906 24.4718 67.4283 24.4436 67.4671 24.4145C69.2876 23.0584 71.3651 22.0071 73.6029 21.5588C73.6653 21.5461 73.7276 21.5333 73.7919 21.5201C75.157 21.2444 76.4766 21.1672 77.8676 21.1912ZM69.9265 24.7941C69.8821 24.82 69.8377 24.8458 69.792 24.8724C68.8399 25.4355 67.9764 26.1346 67.2059 26.9265C66.8382 27.2941 66.8382 27.2941 66.7242 27.404C66.4048 27.715 66.1239 28.042 65.8548 28.3971C65.8135 28.4515 65.7722 28.5059 65.7296 28.5619C65.3474 29.0732 65.0116 29.6017 64.7059 30.1618C64.6685 30.2297 64.6685 30.2297 64.6305 30.2991C63.0993 33.1266 62.5562 36.4108 63.1618 39.5735C63.1783 39.6609 63.1783 39.6609 63.1951 39.7501C63.3449 40.5214 63.5489 41.2631 63.8235 42C63.8412 42.0484 63.8589 42.0968 63.8771 42.1466C64.6013 44.1013 65.8327 45.7752 67.2886 47.2482C67.3295 47.2898 67.3704 47.3314 67.4126 47.3743C67.6042 47.5921 67.6042 47.5921 67.8676 47.6618C67.8676 47.7103 67.8676 47.7588 67.8676 47.8088C68.0409 47.9534 68.2146 48.0889 68.3961 48.2224C68.4496 48.2621 68.503 48.3017 68.558 48.3425C69.0234 48.6837 69.5028 48.9866 70 49.2794C70.0944 49.341 70.0944 49.341 70.1907 49.4038C71.3942 50.1666 72.806 50.6058 74.1912 50.8971C74.2937 50.9197 74.3962 50.9424 74.4988 50.9651C78.0356 51.7167 81.851 50.8267 84.8615 48.8822C85.6178 48.3824 86.2953 47.8049 86.9491 47.1786C87.0501 47.0819 87.1519 46.986 87.2538 46.8903C88.0173 46.1545 88.6382 45.308 89.1881 44.4045C89.2609 44.2856 89.3357 44.168 89.4106 44.0505C90.1036 42.9154 90.5999 41.6068 90.8823 40.3088C90.9089 40.1926 90.9354 40.0764 90.9619 39.9601C90.9892 39.8374 91.0163 39.7147 91.0432 39.5919C91.0555 39.5363 91.0678 39.4807 91.0805 39.4233C91.3882 37.9574 91.3945 36.262 91.1029 34.7941C91.0895 34.7251 91.076 34.6561 91.0621 34.585C90.6917 32.7375 90.0622 31.0182 89.0441 29.4265C89.0022 29.359 88.9603 29.2915 88.9171 29.222C88.5518 28.6507 88.1305 28.1448 87.6821 27.6385C87.5675 27.5078 87.4555 27.3752 87.3434 27.2424C87.1896 27.0626 87.0337 26.8997 86.852 26.7472C86.6398 26.5672 86.4324 26.3836 86.227 26.1958C85.5359 25.5835 84.7683 25.105 83.9706 24.6471C83.9052 24.6089 83.9052 24.6089 83.8385 24.57C82.5758 23.8384 81.2098 23.3763 79.7794 23.1029C79.7164 23.0909 79.6535 23.0789 79.5886 23.0665C76.2855 22.4653 72.8192 23.1039 69.9265 24.7941Z" fill="#DD3619"/>
<path d="M106.622 22.2849C106.912 22.5379 107.037 22.8246 107.184 23.1707C107.222 23.2578 107.222 23.2578 107.261 23.3467C107.565 24.0534 107.85 24.7684 108.134 25.4835C108.192 25.6296 108.251 25.7757 108.309 25.9218C108.461 26.3017 108.612 26.6817 108.763 27.0618C109.007 27.674 109.251 28.2861 109.495 28.8982C109.58 29.1113 109.665 29.3245 109.75 29.5377C109.802 29.6672 109.853 29.7968 109.905 29.9263C109.929 29.9855 109.952 30.0448 109.976 30.1059C110.09 30.3947 110.09 30.3947 110.221 30.6765C110.244 30.6163 110.244 30.6163 110.269 30.5548C110.658 29.5768 111.047 28.5992 111.438 27.6219C111.627 27.1493 111.816 26.6766 112.004 26.2035C112.185 25.747 112.367 25.2908 112.55 24.8348C112.62 24.6608 112.689 24.4867 112.758 24.3125C112.855 24.0684 112.952 23.8248 113.05 23.5811C113.079 23.5092 113.107 23.4372 113.136 23.363C113.328 22.8892 113.518 22.5222 113.954 22.2315C114.251 22.1257 114.504 22.1146 114.816 22.1195C114.87 22.1186 114.924 22.1178 114.98 22.1169C115.385 22.1191 115.694 22.196 116.003 22.478C116.258 22.8052 116.333 23.0156 116.334 23.4247C116.334 23.5068 116.335 23.5889 116.335 23.6734C116.335 23.8085 116.335 23.8085 116.335 23.9464C116.336 24.0412 116.336 24.136 116.336 24.2337C116.337 24.4939 116.338 24.7542 116.338 25.0144C116.338 25.177 116.339 25.3396 116.339 25.5022C116.34 26.011 116.341 26.5198 116.341 27.0285C116.341 27.6158 116.343 28.203 116.345 28.7903C116.346 29.2443 116.347 29.6982 116.347 30.1522C116.347 30.4234 116.348 30.6945 116.349 30.9656C116.351 31.268 116.35 31.5704 116.35 31.8729C116.35 31.9627 116.351 32.0524 116.352 32.1449C116.351 32.2686 116.351 32.2686 116.351 32.3948C116.351 32.4663 116.351 32.5378 116.351 32.6115C116.31 32.9067 116.18 33.1013 115.969 33.3075C115.649 33.4867 115.281 33.4491 114.926 33.3971C114.689 33.2769 114.532 33.1236 114.412 32.8824C114.404 32.7846 114.401 32.6864 114.4 32.5883C114.399 32.4961 114.399 32.4961 114.398 32.4021C114.397 32.3346 114.397 32.267 114.397 32.1974C114.396 32.1264 114.395 32.0554 114.394 31.9822C114.392 31.7467 114.39 31.5112 114.388 31.2756C114.387 31.1126 114.385 30.9496 114.384 30.7866C114.38 30.357 114.376 29.9274 114.373 29.4978C114.369 29.0597 114.365 28.6215 114.361 28.1834C114.353 27.3232 114.345 26.4631 114.338 25.603C114.307 25.6803 114.307 25.6803 114.275 25.7592C113.721 27.1365 113.166 28.5135 112.61 29.8899C112.541 30.0598 112.473 30.2298 112.404 30.3998C112.254 30.7719 112.103 31.1438 111.951 31.5154C111.91 31.6169 111.869 31.7185 111.828 31.8201C111.772 31.9576 111.716 32.0949 111.66 32.2321C111.63 32.3055 111.6 32.3789 111.569 32.4545C111.376 32.8595 111.176 33.2189 110.74 33.3744C110.331 33.4872 109.949 33.5063 109.559 33.3235C109.055 33.0081 108.883 32.5907 108.676 32.0506C108.622 31.9132 108.567 31.7758 108.512 31.6384C108.447 31.4747 108.383 31.3108 108.319 31.1468C108.129 30.666 107.935 30.187 107.742 29.708C107.704 29.6146 107.666 29.5213 107.628 29.428C107.571 29.2862 107.514 29.1445 107.456 29.0028C107.324 28.6749 107.192 28.3469 107.06 28.0189C107.024 27.9294 106.988 27.84 106.95 27.7478C106.883 27.5797 106.815 27.4115 106.748 27.2433C106.537 26.7194 106.321 26.1974 106.103 25.6765C106.103 25.7649 106.102 25.8532 106.102 25.9443C106.099 26.7774 106.095 27.6104 106.089 28.4435C106.086 28.8717 106.084 29.3 106.083 29.7283C106.082 30.1416 106.079 30.555 106.076 30.9683C106.075 31.126 106.074 31.2836 106.074 31.4413C106.074 31.6622 106.072 31.8831 106.07 32.104C106.07 32.1691 106.07 32.2342 106.071 32.3013C106.064 32.701 106.004 32.9347 105.735 33.25C105.391 33.4797 105.035 33.4482 104.632 33.3971C104.41 33.3024 104.35 33.2259 104.191 33.0294C104.013 32.5675 104.023 32.1192 104.025 31.6286C104.025 31.5406 104.025 31.4525 104.024 31.3618C104.024 31.1215 104.024 30.8811 104.024 30.6408C104.025 30.3885 104.024 30.1361 104.024 29.8838C104.024 29.4601 104.024 29.0364 104.025 28.6127C104.026 28.124 104.025 27.6353 104.025 27.1466C104.024 26.7259 104.024 26.3051 104.024 25.8844C104.024 25.6336 104.025 25.3829 104.024 25.1321C104.024 24.8523 104.024 24.5725 104.025 24.2927C104.025 24.2103 104.024 24.128 104.024 24.0432C104.03 22.9295 104.03 22.9295 104.398 22.5239C104.433 22.4832 104.469 22.4424 104.505 22.4004C104.999 21.9877 106.058 21.9905 106.622 22.2849Z" fill="#3F3E40"/>
<path d="M105.354 40.7316C105.406 40.7301 105.459 40.7286 105.513 40.727C105.849 40.7245 106.06 40.7588 106.324 40.9706C106.536 41.2136 106.677 41.4388 106.798 41.7372C106.831 41.817 106.864 41.8968 106.897 41.979C106.932 42.0663 106.968 42.1536 107.004 42.2436C107.042 42.3377 107.08 42.4318 107.119 42.5259C107.247 42.8404 107.374 43.1554 107.5 43.4706C107.522 43.526 107.545 43.5814 107.567 43.6386C107.783 44.1757 107.998 44.713 108.213 45.2507C108.596 46.2117 108.982 47.1714 109.37 48.1305C109.398 48.1987 109.426 48.267 109.454 48.3373C109.532 48.5294 109.609 48.7214 109.687 48.9135C109.71 48.971 109.734 49.0284 109.758 49.0876C109.872 49.3706 109.872 49.3706 110 49.6471C110.029 49.5741 110.029 49.5741 110.059 49.4997C110.12 49.3497 110.18 49.1997 110.241 49.0497C110.314 48.8694 110.386 48.6891 110.459 48.5087C110.642 48.0533 110.826 47.5978 111.01 47.1426C111.116 46.8802 111.222 46.6179 111.328 46.3555C111.349 46.3026 111.371 46.2498 111.393 46.1954C111.676 45.4932 111.957 44.7901 112.235 44.0857C112.356 43.7796 112.478 43.4737 112.599 43.1679C112.664 43.0028 112.729 42.8376 112.794 42.6722C112.884 42.4424 112.975 42.2131 113.066 41.9839C113.092 41.917 113.117 41.8501 113.144 41.7812C113.31 41.3709 113.483 41.1095 113.824 40.8235C114.086 40.736 114.305 40.7349 114.582 40.7316C114.677 40.7297 114.772 40.7278 114.87 40.7259C115.258 40.7597 115.481 40.8545 115.746 41.1409C115.976 41.5044 115.924 41.9386 115.922 42.3538C115.922 42.4486 115.923 42.5435 115.924 42.6412C115.925 42.9005 115.925 43.1598 115.924 43.4192C115.924 43.6359 115.924 43.8526 115.925 44.0693C115.926 44.5806 115.926 45.0918 115.925 45.6031C115.924 46.1302 115.925 46.6573 115.927 47.1844C115.929 47.6375 115.93 48.0905 115.929 48.5436C115.929 48.814 115.929 49.0843 115.93 49.3547C115.932 49.6561 115.93 49.9574 115.929 50.2587C115.93 50.3929 115.93 50.3929 115.931 50.5297C115.924 51.2024 115.924 51.2024 115.707 51.4302C115.499 51.569 115.395 51.6087 115.147 51.6048C115.086 51.6057 115.026 51.6067 114.963 51.6077C114.684 51.5334 114.587 51.4222 114.412 51.1912C114.356 50.9234 114.361 50.6594 114.363 50.3867C114.363 50.3056 114.362 50.2245 114.361 50.141C114.359 49.8732 114.359 49.6055 114.36 49.3377C114.359 49.152 114.358 48.9662 114.356 48.7805C114.354 48.3417 114.353 47.9029 114.353 47.4641C114.352 46.9644 114.35 46.4648 114.347 45.9651C114.342 44.9375 114.339 43.9099 114.338 42.8824C113.41 45.144 113.41 45.144 112.494 47.4102C112.474 47.4589 112.455 47.5076 112.434 47.5578C112.26 47.9925 112.085 48.4272 111.911 48.8621C111.813 49.1071 111.715 49.3521 111.616 49.597C111.563 49.7305 111.509 49.8641 111.456 49.9978C110.925 51.3168 110.925 51.3168 110.441 51.5588C110.083 51.668 109.754 51.6311 109.412 51.4853C109.017 51.2388 108.9 50.925 108.734 50.5096C108.706 50.4415 108.678 50.3734 108.649 50.3032C108.559 50.085 108.47 49.8661 108.382 49.6471C108.325 49.5067 108.268 49.3663 108.211 49.2259C108.034 48.7864 107.859 48.3459 107.684 47.9053C107.567 47.6109 107.45 47.3165 107.332 47.0221C107.302 46.946 107.272 46.8698 107.24 46.7914C106.72 45.4862 106.19 44.1846 105.662 42.8824C105.662 42.9461 105.662 42.9461 105.662 43.0111C105.661 44.0452 105.657 45.0793 105.652 46.1133C105.65 46.6134 105.648 47.1135 105.647 47.6135C105.647 48.096 105.645 48.5785 105.642 49.061C105.641 49.2452 105.64 49.4294 105.641 49.6136C105.641 49.8713 105.639 50.129 105.637 50.3867C105.637 50.4631 105.638 50.5395 105.639 50.6182C105.633 50.9688 105.63 51.1362 105.413 51.4222C105.146 51.6118 104.978 51.6111 104.66 51.595C104.39 51.539 104.274 51.4126 104.118 51.1912C104.043 50.9655 104.035 50.7568 104.034 50.52C104.033 50.4439 104.033 50.3677 104.033 50.2892C104.032 50.2061 104.032 50.1229 104.032 50.0372C104.032 49.9054 104.032 49.9054 104.031 49.7708C104.03 49.5299 104.03 49.2889 104.029 49.0479C104.029 48.8972 104.029 48.7464 104.029 48.5956C104.028 48.1233 104.027 47.651 104.027 47.1786C104.026 46.6346 104.025 46.0905 104.023 45.5465C104.021 45.1252 104.02 44.704 104.02 44.2827C104.02 44.0314 104.02 43.7802 104.019 43.529C104.017 43.2482 104.017 42.9676 104.018 42.6869C104.017 42.6044 104.017 42.522 104.016 42.4371C104.018 41.9697 104.052 41.5415 104.265 41.1177C104.617 40.7739 104.877 40.735 105.354 40.7316Z" fill="#3F3E40"/>
<path d="M145.414 24.909C145.478 24.9083 145.542 24.9075 145.608 24.9067C146.607 24.9201 147.505 25.3444 148.23 26.0246C149.266 27.1602 149.417 28.4671 149.355 29.9405C149.275 30.9964 148.747 31.8952 147.992 32.6204C147.134 33.331 146.108 33.596 145.01 33.526C144.291 33.4444 143.775 33.251 143.162 32.8823C143.161 32.9248 143.161 32.9673 143.16 33.0111C143.156 33.4536 143.15 33.8961 143.142 34.3387C143.14 34.5038 143.138 34.6689 143.136 34.834C143.134 35.0715 143.13 35.3089 143.126 35.5464C143.125 35.6569 143.125 35.6569 143.124 35.7697C143.111 36.4182 143.111 36.4182 142.868 36.7059C142.545 36.9188 142.295 36.9676 141.912 36.9265C141.613 36.8209 141.409 36.6922 141.237 36.4208C141.093 36.0506 141.137 35.6334 141.14 35.2417C141.139 35.1372 141.139 35.0327 141.138 34.9282C141.137 34.6452 141.138 34.3622 141.139 34.0792C141.14 33.7827 141.14 33.4862 141.14 33.1897C141.139 32.6919 141.14 32.1942 141.142 31.6964C141.144 31.1212 141.144 30.546 141.143 29.9707C141.143 29.4169 141.143 28.8631 141.144 28.3093C141.144 28.0738 141.144 27.8383 141.144 27.6028C141.144 27.3255 141.145 27.0482 141.146 26.7709C141.147 26.6692 141.147 26.5675 141.146 26.4658C141.146 26.3268 141.147 26.1879 141.148 26.0489C141.148 25.9712 141.148 25.8935 141.148 25.8134C141.19 25.5039 141.315 25.3097 141.544 25.102C141.886 24.9665 142.211 24.9574 142.574 25.0147C142.779 25.1151 142.861 25.2042 143.015 25.3823C143.062 25.542 143.062 25.542 143.088 25.6765C143.126 25.648 143.163 25.6196 143.202 25.5903C143.907 25.0854 144.555 24.9161 145.414 24.909ZM143.088 27.7353C143.058 28.1449 143.049 28.5545 143.042 28.9651C143.039 29.1033 143.035 29.2414 143.029 29.3795C142.968 30.1772 142.968 30.1772 143.243 30.8953C143.431 31.0486 143.605 31.1595 143.824 31.2647C143.887 31.2973 143.95 31.3299 144.015 31.3635C144.61 31.658 145.287 31.7392 145.935 31.5847C146.482 31.3868 146.949 31.0601 147.233 30.5432C147.586 29.7363 147.602 28.8218 147.285 28.0015C147.186 27.7868 147.186 27.7868 147.059 27.5882C146.986 27.564 146.913 27.5397 146.838 27.5147C146.838 27.4662 146.838 27.4176 146.838 27.3676C146.304 26.9216 145.763 26.7399 145.07 26.757C144.308 26.8356 143.63 27.1935 143.088 27.7353Z" fill="#403F41"/>
<path d="M71.6912 40.1618C71.9749 40.2029 72.1017 40.3259 72.2993 40.5278C72.3608 40.59 72.4222 40.6521 72.4855 40.7162C72.5845 40.8179 72.5845 40.8179 72.6855 40.9218C72.7551 40.9923 72.8248 41.0628 72.8945 41.1332C73.1529 41.3946 73.4101 41.6571 73.6673 41.9196C74.8896 43.1771 74.8896 43.1771 76.25 44.2794C76.3037 44.3189 76.3575 44.3584 76.4129 44.3991C77.0784 44.8803 77.7855 45.2592 78.5294 45.6029C78.6132 45.6422 78.697 45.6814 78.7833 45.7219C81.1565 46.787 83.4729 46.8227 86.0294 46.7794C86.0294 47.0735 86.0294 47.0735 85.8861 47.2238C85.0438 47.8834 84.1807 48.4837 83.2353 48.9853C83.1137 49.0499 83.1137 49.0499 82.9897 49.1157C81.7854 49.7145 80.4499 50.1259 79.1176 50.3088C79.0168 50.323 79.0168 50.323 78.914 50.3376C78.7365 50.3588 78.5607 50.3723 78.3823 50.3824C78.3097 50.388 78.2371 50.3935 78.1623 50.3993C77.6953 50.4209 77.3964 50.3785 77.0094 50.1095C76.9611 50.0626 76.9611 50.0626 76.9118 50.0147C76.9118 49.9662 76.9118 49.9177 76.9118 49.8677C76.8617 49.8525 76.8117 49.8373 76.7601 49.8217C76.4767 49.6891 76.2443 49.5073 76.0294 49.2794C76.0294 49.2309 76.0294 49.1824 76.0294 49.1324C75.9904 49.1173 75.9515 49.1022 75.9113 49.0867C75.6596 48.9417 75.474 48.7457 75.2711 48.5395C75.2071 48.4749 75.2071 48.4749 75.1418 48.4089C74.821 48.0806 74.533 47.7403 74.2647 47.3677C74.2191 47.3078 74.1735 47.2478 74.1265 47.1861C72.6546 45.2274 71.5594 42.6501 71.6912 40.1618Z" fill="#D92718"/>
<path d="M73.9706 31.6324C73.8652 31.9307 73.7596 32.0668 73.5076 32.2614C73.365 32.3824 73.2502 32.5143 73.1296 32.6572C72.9282 32.894 72.7164 33.0901 72.4768 33.2871C72.3481 33.4014 72.2418 33.5218 72.1324 33.6544C71.9859 33.832 71.8369 33.9816 71.659 34.1278C71.4231 34.3236 71.2278 34.5371 71.03 34.7709C70.8882 34.9345 70.7407 35.0916 70.5916 35.2486C70.1434 35.7241 69.7654 36.229 69.4118 36.7794C69.3712 36.8412 69.3712 36.8412 69.3297 36.9042C68.5885 38.0372 68.0751 39.2992 67.7206 40.6029C67.7003 40.6744 67.7003 40.6744 67.6796 40.7473C67.2017 42.4501 67.2317 44.2211 67.353 45.9706C67.0588 45.9706 67.0588 45.9706 66.9086 45.8273C65.2022 43.6484 63.9133 41.1352 63.75 38.3235C63.7391 38.2091 63.7391 38.2091 63.7279 38.0923C63.6942 37.5248 63.7896 37.2102 64.1378 36.7596C64.1797 36.7176 64.2216 36.6756 64.2647 36.6324C64.3133 36.6324 64.3618 36.6324 64.4118 36.6324C64.4269 36.582 64.4421 36.5317 64.4577 36.4798C64.5926 36.1929 64.7836 35.9927 65 35.7638C65.0603 35.6979 65.0603 35.6979 65.1218 35.6307C65.2249 35.5201 65.3327 35.4141 65.4412 35.3088C65.4897 35.3088 65.5383 35.3088 65.5883 35.3088C65.6144 35.2458 65.6144 35.2458 65.6411 35.1816C65.9658 34.6065 66.6628 34.1919 67.2059 33.8382C67.2776 33.7914 67.3494 33.7446 67.4233 33.6964C69.3936 32.4476 71.6185 31.6001 73.9706 31.6324Z" fill="#D82217"/>
<path d="M77.1461 23.9485C77.2163 24.002 77.2864 24.0554 77.3587 24.1105C77.4296 24.1663 77.5005 24.222 77.5735 24.2794C77.6399 24.3306 77.7062 24.3818 77.7746 24.4345C79.3408 25.6748 80.5186 27.2728 81.397 29.0588C81.4256 29.1152 81.4541 29.1716 81.4835 29.2297C81.9464 30.1922 82.2388 31.2451 82.4264 32.2941C82.4361 32.3462 82.4458 32.3982 82.4557 32.4518C82.5308 32.9336 82.5061 33.4257 82.5 33.9118C82.2495 33.8705 82.1523 33.8039 81.9991 33.6039C81.8087 33.3689 81.6055 33.1792 81.3735 32.9863C81.1974 32.8381 81.0379 32.6845 80.8823 32.5147C80.8823 32.4662 80.8823 32.4176 80.8823 32.3676C80.8414 32.351 80.8004 32.3343 80.7583 32.3171C80.5396 32.193 80.3882 32.0392 80.2206 31.8529C80.2206 31.8044 80.2206 31.7559 80.2206 31.7059C80.1478 31.6816 80.075 31.6574 80 31.6324C79.9026 31.5307 79.9026 31.5307 79.8024 31.4026C79.5514 31.1002 79.2703 30.8558 78.9706 30.6029C78.9008 30.5414 78.831 30.4799 78.7592 30.4165C77.2674 29.109 75.516 28.186 73.6029 27.6618C73.5116 27.6361 73.4204 27.6104 73.3263 27.5839C72.0876 27.2465 70.8673 27.1994 69.591 27.2114C69.4514 27.2121 69.3119 27.2128 69.1723 27.2134C68.8355 27.215 68.4986 27.2175 68.1617 27.2206C68.2675 26.6754 68.9351 26.312 69.3767 26.0117C69.8864 25.6747 70.4108 25.3643 70.9559 25.0882C71.0228 25.0543 71.0228 25.0543 71.091 25.0196C72.5704 24.2759 74.0835 23.863 75.7261 23.6682C75.7798 23.6617 75.8336 23.6552 75.8889 23.6485C76.4036 23.5943 76.7319 23.6327 77.1461 23.9485Z" fill="#E1451C"/>
<path d="M86.8382 28.1029C87.2213 28.1524 87.3403 28.288 87.5775 28.5771C89.1739 30.6704 90.2134 33.0382 90.4412 35.6765C90.4495 35.7606 90.4579 35.8448 90.4664 35.9315C90.4995 36.5724 90.3382 36.8894 89.9265 37.3676C89.8725 37.436 89.8186 37.5043 89.763 37.5747C89.4476 37.9725 89.1161 38.3402 88.75 38.6912C88.6918 38.7495 88.6336 38.8078 88.5736 38.8678C86.5289 40.9095 83.487 42.4492 80.5561 42.4596C80.4442 42.4551 80.3322 42.4498 80.2206 42.4412C80.384 41.9981 80.6676 41.7637 81.0202 41.4623C81.2862 41.2336 81.5104 40.985 81.732 40.7135C81.767 40.677 81.8021 40.6405 81.8382 40.6029C81.8868 40.6029 81.9353 40.6029 81.9853 40.6029C82.002 40.562 82.0187 40.521 82.0358 40.4789C82.16 40.2602 82.3137 40.1088 82.5 39.9412C82.5485 39.9412 82.5971 39.9412 82.6471 39.9412C82.6637 39.9002 82.6804 39.8593 82.6976 39.8171C82.8217 39.5984 82.9755 39.447 83.1618 39.2794C83.2103 39.2794 83.2588 39.2794 83.3088 39.2794C83.327 39.2385 83.3452 39.1975 83.364 39.1553C83.4727 38.9541 83.5981 38.7885 83.75 38.6176C83.7985 38.6176 83.8471 38.6176 83.8971 38.6176C83.9165 38.576 83.9359 38.5344 83.9559 38.4916C84.0505 38.3113 84.1595 38.1533 84.2785 37.988C85.0957 36.8278 85.7747 35.622 86.2059 34.2669C86.2444 34.1494 86.2876 34.0334 86.3316 33.9178C87.0202 32.0822 86.9732 30.0281 86.8382 28.1029Z" fill="#E24A1D"/>
<path d="M70.8824 35.4559C70.9794 35.4801 71.0765 35.5044 71.1765 35.5294C71.1769 35.5894 71.1773 35.6493 71.1778 35.7111C71.1821 36.2841 71.1874 36.8571 71.1938 37.4301C71.1971 37.7245 71.2 38.0189 71.202 38.3133C71.2148 40.7492 71.2148 40.7492 71.7096 43.1259C71.743 43.2357 71.743 43.2357 71.7771 43.3476C72.3443 45.167 73.236 46.8076 74.4853 48.25C74.5364 48.3101 74.5875 48.3702 74.6401 48.4321C75.1429 49.0091 75.7016 49.5671 76.3155 50.0268C76.3667 50.0713 76.4179 50.1159 76.4706 50.1618C76.4706 50.2345 76.4706 50.3073 76.4706 50.3823C75.8936 50.4022 75.3484 50.3281 74.7794 50.2353C74.6428 50.2151 74.6428 50.2151 74.5034 50.1945C73.6774 50.0595 72.9131 49.7976 72.1324 49.5C72.0057 49.4519 72.0057 49.4519 71.8764 49.4029C70.6165 48.9003 69.4853 48.1693 68.4559 47.2941C68.3686 47.2282 68.2813 47.1624 68.1939 47.0965C67.6844 46.6131 67.7351 45.577 67.7119 44.9131C67.6349 41.3043 68.6123 38.2781 70.8824 35.4559Z" fill="#D71D16"/>
<path d="M74.1912 28.25C74.2401 28.2658 74.2891 28.2815 74.3395 28.2977C75.7872 28.7662 77.6839 29.614 78.6765 30.8235C78.6765 30.8963 78.6765 30.9691 78.6765 31.0441C78.5988 31.0448 78.5988 31.0448 78.5196 31.0454C78.0213 31.0498 77.5231 31.0551 77.0249 31.0615C76.7691 31.0647 76.5132 31.0676 76.2573 31.0696C74.5062 31.0838 72.7145 31.1071 71.0294 31.6324C70.9706 31.6502 70.9117 31.668 70.851 31.6864C68.9288 32.2735 67.181 33.1801 65.7003 34.5577C65.5883 34.6471 65.5883 34.6471 65.4412 34.6471C65.4215 34.6941 65.4018 34.7411 65.3815 34.7895C65.2941 34.9412 65.2941 34.9412 65.0736 35.0147C64.9847 35.1618 64.9847 35.1618 64.9265 35.3088C64.878 35.3088 64.8294 35.3088 64.7794 35.3088C64.7619 35.3486 64.7444 35.3884 64.7263 35.4295C64.6077 35.6486 64.4624 35.8317 64.3061 36.0257C64.2486 36.0982 64.191 36.1706 64.1317 36.2452C64.0786 36.3002 64.0254 36.3551 63.9706 36.4118C63.8978 36.4118 63.825 36.4118 63.75 36.4118C63.6278 33.5877 64.9383 30.6909 66.6912 28.5441C66.7373 28.4838 66.7833 28.4236 66.8308 28.3614C67.1008 28.0264 67.2983 27.8116 67.7327 27.7545C67.8015 27.7482 67.8703 27.7418 67.9412 27.7353C68.0808 27.7155 68.0808 27.7155 68.2233 27.6954C70.2447 27.4184 72.2564 27.6095 74.1912 28.25Z" fill="#DC3219"/>
<path d="M90.2206 37.6618C90.2934 37.6618 90.3662 37.6618 90.4412 37.6618C90.5508 40.1939 89.484 42.8485 88.0147 44.8677C87.9585 44.9456 87.9023 45.0235 87.8444 45.1038C87.09 46.134 87.09 46.134 86.5797 46.2247C86.5301 46.2318 86.4804 46.239 86.4292 46.2463C86.3768 46.2548 86.3244 46.2634 86.2703 46.2721C86.1167 46.2962 85.963 46.3178 85.8088 46.3382C85.7366 46.348 85.6644 46.3578 85.59 46.3678C84.4937 46.4831 83.3695 46.4513 82.2807 46.2867C82.1364 46.2653 81.9916 46.2472 81.8469 46.2291C79.6367 45.9264 77.1838 44.8456 75.5883 43.25C75.5883 43.153 75.5883 43.0559 75.5883 42.9559C75.6484 42.9555 75.7085 42.955 75.7705 42.9546C76.3446 42.9503 76.9187 42.945 77.4928 42.9386C77.7877 42.9353 78.0827 42.9324 78.3777 42.9304C79.6677 42.9214 80.9338 42.9034 82.2059 42.6618C82.2903 42.647 82.3747 42.6321 82.4616 42.6169C84.9183 42.1612 87.1765 40.751 88.9706 39.0588C89.0156 39.0168 89.0607 38.9749 89.107 38.9316C89.4385 38.6123 89.7251 38.2598 90.0132 37.9013C90.1471 37.7353 90.1471 37.7353 90.2206 37.6618Z" fill="#DE3A1B"/>
<path d="M77.7206 23.6912C79.0272 23.6086 80.3184 23.9337 81.5441 24.353C81.6309 24.3825 81.7178 24.4121 81.8072 24.4426C83.1994 24.9501 85.5642 25.9613 86.2626 27.3139C87.1182 30.1351 86.3056 33.6741 84.9716 36.2127C84.5211 37.0404 83.977 37.8759 83.3088 38.5441C83.2118 38.5441 83.1147 38.5441 83.0147 38.5441C83.0143 38.4811 83.0138 38.418 83.0134 38.353C83.0091 37.7519 83.0038 37.1507 82.9974 36.5495C82.9941 36.2406 82.9912 35.9317 82.9892 35.6228C82.9827 33.6905 82.9827 33.6905 82.7206 31.7794C82.71 31.7278 82.6993 31.6762 82.6884 31.623C82.0653 28.6302 80.2618 25.8975 77.8952 23.9899C77.8376 23.9399 77.78 23.8898 77.7206 23.8382C77.7206 23.7897 77.7206 23.7412 77.7206 23.6912Z" fill="#E34F1D"/>
<path d="M99.7059 31.6323C99.7076 33.0212 99.7089 34.41 99.7097 35.7989C99.7101 36.4437 99.7106 37.0885 99.7114 37.7334C99.7121 38.2952 99.7126 38.857 99.7128 39.4188C99.7129 39.7165 99.7131 40.0142 99.7136 40.3118C99.7141 40.5917 99.7143 40.8715 99.7142 41.1514C99.7142 41.2544 99.7144 41.3574 99.7146 41.4604C99.715 41.6004 99.7149 41.7405 99.7147 41.8805C99.7148 41.9591 99.7148 42.0376 99.7149 42.1185C99.7059 42.2941 99.7059 42.2941 99.6323 42.3676C99.156 42.3461 98.7991 42.1546 98.3823 41.9356C98.2381 41.8617 98.0938 41.7879 97.9495 41.7142C97.8754 41.6763 97.8014 41.6383 97.7251 41.5992C97.3633 41.4161 96.9976 41.2413 96.6314 41.0671C96.5611 41.0335 96.4908 41 96.4184 40.9654C96.0948 40.8112 95.7706 40.6583 95.4452 40.5079C95.361 40.4688 95.361 40.4688 95.2751 40.4289C95.1732 40.3818 95.0711 40.3349 94.9689 40.2885C94.6179 40.1261 94.2945 39.9315 93.9706 39.7206C93.975 39.6719 93.9795 39.6232 93.9841 39.5731C94.1279 37.9659 94.1892 36.3949 93.9971 34.7891C93.9895 34.7159 93.9819 34.6428 93.974 34.5675C93.9625 34.4705 93.9625 34.4705 93.9507 34.3717C93.9706 34.2059 93.9706 34.2059 94.0979 34.0821C94.2552 33.9908 94.4093 33.9115 94.5763 33.8397C94.636 33.8135 94.6958 33.7874 94.7573 33.7605C94.8207 33.7331 94.8841 33.7056 94.9494 33.6774C95.4048 33.4768 95.8513 33.2702 96.2868 33.0294C96.7684 32.7639 97.2639 32.5379 97.7673 32.3167C98.0551 32.1897 98.3396 32.0606 98.6184 31.9147C98.6652 31.8902 98.7119 31.8658 98.76 31.8406C98.8835 31.775 99.0062 31.708 99.1288 31.641C99.367 31.5475 99.4638 31.5729 99.7059 31.6323Z" fill="#E75E1F"/>
<path d="M176.68 25.6138C177.407 26.2389 177.742 27.0527 177.815 28.0045C177.823 28.304 177.825 28.6027 177.823 28.9023C177.824 29.0122 177.824 29.1222 177.824 29.2322C177.824 29.4607 177.824 29.6893 177.823 29.9179C177.822 30.2103 177.822 30.5026 177.824 30.795C177.824 31.0213 177.824 31.2476 177.824 31.4738C177.823 31.5817 177.824 31.6895 177.824 31.7974C177.825 31.9478 177.824 32.0982 177.823 32.2486C177.822 32.3339 177.822 32.4193 177.822 32.5072C177.782 32.837 177.64 33.0262 177.426 33.273C177.091 33.4615 176.773 33.4445 176.397 33.397C176.122 33.2792 176.049 33.2061 175.882 32.9559C175.882 32.8831 175.882 32.8103 175.882 32.7353C175.84 32.7637 175.798 32.7922 175.755 32.8214C174.779 33.4483 173.641 33.6912 172.496 33.4591C171.785 33.2554 171.219 32.9178 170.809 32.2941C170.435 31.6053 170.405 30.8192 170.593 30.0652C170.851 29.3404 171.376 28.8718 172.059 28.5441C173.211 28.1142 174.453 28.1218 175.662 28.25C175.71 28.2743 175.759 28.2985 175.809 28.3235C175.698 27.7405 175.698 27.7405 175.437 27.216C174.702 26.7316 173.872 26.7902 173.042 26.954C172.788 27.008 172.536 27.0643 172.285 27.1287C171.989 27.2006 171.766 27.2496 171.475 27.1424C171.225 26.984 171.132 26.9094 171.029 26.6323C170.972 26.2859 170.99 26.0455 171.153 25.7316C171.471 25.4087 171.933 25.2947 172.353 25.1618C172.422 25.1381 172.492 25.1144 172.563 25.0899C173.895 24.7048 175.554 24.7563 176.68 25.6138ZM172.574 30.3823C172.455 30.6202 172.457 30.8605 172.5 31.1176C172.667 31.4352 172.898 31.5988 173.235 31.7059C174.048 31.7985 174.722 31.6417 175.372 31.1452C175.525 31.0184 175.668 30.8906 175.809 30.75C175.827 30.5368 175.827 30.5368 175.818 30.2996C175.817 30.2191 175.815 30.1385 175.814 30.0555C175.812 29.9935 175.811 29.9315 175.809 29.8676C174.094 29.747 174.094 29.747 172.574 30.3823Z" fill="#403F41"/>
<path d="M121.585 24.9182C121.668 24.9161 121.75 24.9139 121.834 24.9117C122.778 24.9046 123.589 25.1767 124.279 25.8287C125.098 26.695 125.17 27.6774 125.169 28.8207C125.169 28.9325 125.17 29.0442 125.17 29.1559C125.171 29.389 125.171 29.622 125.17 29.8551C125.17 30.153 125.171 30.4509 125.173 30.7488C125.174 30.9791 125.174 31.2094 125.174 31.4397C125.174 31.5496 125.174 31.6594 125.175 31.7693C125.176 31.9229 125.175 32.0764 125.174 32.23C125.175 32.3171 125.175 32.4043 125.175 32.4941C125.136 32.8316 125.028 33.0811 124.779 33.3143C124.437 33.4429 124.111 33.4547 123.75 33.397C123.482 33.2587 123.328 33.0589 123.162 32.8088C123.084 32.8634 123.007 32.918 122.927 32.9743C122.021 33.5352 120.9 33.6507 119.865 33.4591C119.137 33.2651 118.593 32.9148 118.162 32.2941C117.811 31.6804 117.769 30.9159 117.915 30.2344C118.151 29.511 118.642 28.9779 119.306 28.613C120.478 28.0609 121.831 28.1465 123.088 28.25C123.069 27.8092 123.028 27.4871 122.721 27.147C121.745 26.6325 120.732 26.8749 119.713 27.1261C119.349 27.2098 119.092 27.2644 118.75 27.0735C118.553 26.8933 118.408 26.7538 118.352 26.4856C118.338 26.1554 118.393 25.9288 118.603 25.6765C118.944 25.4158 119.267 25.2953 119.674 25.1847C119.728 25.1691 119.783 25.1535 119.839 25.1375C120.431 24.9705 120.97 24.9234 121.585 24.9182ZM120 30.3088C119.819 30.5811 119.795 30.8019 119.853 31.1176C120.014 31.3727 120.144 31.5175 120.409 31.6599C121.318 31.8251 122.027 31.6315 122.808 31.159C123.061 30.9699 123.149 30.8853 123.212 30.5728C123.212 30.3324 123.198 30.1052 123.162 29.8676C121.519 29.7867 121.519 29.7867 120 30.3088Z" fill="#403F41"/>
<path d="M137.794 25.2353C137.853 25.2665 137.912 25.2977 137.972 25.3298C138.731 25.7867 139.178 26.4303 139.414 27.2701C139.525 27.7808 139.508 28.3008 139.507 28.8207C139.508 28.9325 139.508 29.0442 139.508 29.156C139.509 29.389 139.509 29.6221 139.509 29.8551C139.508 30.153 139.509 30.4509 139.511 30.7488C139.512 30.9791 139.512 31.2094 139.512 31.4398C139.512 31.5496 139.512 31.6594 139.513 31.7693C139.514 31.9229 139.514 32.0764 139.513 32.23C139.513 32.3171 139.513 32.4043 139.513 32.4941C139.474 32.8316 139.366 33.0811 139.118 33.3143C138.775 33.4429 138.449 33.4548 138.088 33.3971C137.82 33.2587 137.667 33.0589 137.5 32.8088C137.423 32.8634 137.345 32.918 137.266 32.9743C136.359 33.5354 135.239 33.65 134.204 33.4594C133.441 33.2556 132.887 32.8886 132.48 32.2123C132.139 31.5703 132.103 30.8324 132.298 30.1342C132.4 29.8377 132.523 29.5997 132.721 29.3529C132.753 29.3115 132.786 29.2701 132.82 29.2274C133.496 28.4619 134.508 28.2628 135.478 28.1995C136.131 28.1635 136.775 28.1964 137.426 28.25C137.407 27.8092 137.367 27.4871 137.059 27.1471C136.09 26.6361 135.065 26.864 134.054 27.1287C133.623 27.2334 133.401 27.2288 133.015 27C132.829 26.8515 132.798 26.7908 132.721 26.5588C132.693 26.1912 132.706 25.9667 132.941 25.6765C133.281 25.4169 133.602 25.2955 134.007 25.1847C134.088 25.1614 134.088 25.1614 134.171 25.1375C135.263 24.8277 136.76 24.6856 137.794 25.2353ZM134.338 30.3088C134.157 30.5811 134.133 30.8019 134.191 31.1177C134.352 31.3727 134.482 31.5175 134.747 31.6599C135.616 31.8179 136.327 31.6622 137.063 31.182C137.225 31.0693 137.36 30.9631 137.5 30.8235C137.518 30.5935 137.518 30.5935 137.509 30.3364C137.508 30.249 137.507 30.1616 137.505 30.0716C137.503 30.0043 137.502 29.937 137.5 29.8677C135.857 29.7868 135.857 29.7868 134.338 30.3088Z" fill="#403F41"/>
<path d="M157.123 25.7196C158.033 26.4212 158.487 27.4263 158.653 28.5487C158.75 29.7702 158.565 31.0397 157.799 32.0322C157.016 32.9462 156.015 33.4272 154.821 33.5349C153.689 33.5815 152.555 33.3599 151.691 32.5882C151.643 32.5495 151.595 32.5107 151.546 32.4708C150.733 31.7557 150.366 30.625 150.294 29.5735C150.226 28.3434 150.522 27.1148 151.326 26.1607C152.825 24.5798 155.379 24.486 157.123 25.7196ZM152.755 27.4472C152.261 28.0936 152.13 28.8503 152.206 29.6471C152.329 30.3161 152.561 30.8235 153.088 31.2647C153.699 31.6554 154.297 31.6829 155 31.6324C155.541 31.5028 156.036 31.1405 156.347 30.6802C156.736 29.9492 156.817 29.1016 156.608 28.3006C156.399 27.6998 155.991 27.2436 155.441 26.9265C154.521 26.5513 153.43 26.7021 152.755 27.4472Z" fill="#403F41"/>
<path d="M99.4117 22.3676C99.5088 22.4162 99.6059 22.4647 99.7059 22.5147C99.7144 23.4575 99.7209 24.4002 99.7249 25.343C99.7268 25.7808 99.7294 26.2185 99.7336 26.6563C99.7376 27.0787 99.7398 27.5011 99.7407 27.9235C99.7414 28.0847 99.7428 28.2459 99.7447 28.4071C99.7474 28.6328 99.7478 28.8584 99.7476 29.0842C99.7489 29.1509 99.7502 29.2176 99.7516 29.2864C99.7489 29.612 99.7409 29.7493 99.5345 30.0131C99.3082 30.1845 99.0748 30.3226 98.8227 30.451C98.7479 30.4901 98.7479 30.4901 98.6717 30.53C98.5097 30.6147 98.3472 30.6984 98.1847 30.7822C98.072 30.8409 97.9594 30.8997 97.8468 30.9586C97.6758 31.048 97.5047 31.1374 97.3336 31.2265C96.8151 31.4965 96.3 31.7725 95.7858 32.0505C95.7124 32.0902 95.6391 32.1298 95.5635 32.1706C95.4579 32.2276 95.4579 32.2276 95.3501 32.2858C95.2818 32.3224 95.2135 32.359 95.1431 32.3968C94.9846 32.4831 94.8276 32.5708 94.671 32.6605C94.628 32.6847 94.5851 32.7089 94.5408 32.7338C94.4196 32.802 94.2989 32.8712 94.1782 32.9403C93.9706 33.0294 93.9706 33.0294 93.8029 33.0248C93.6765 32.9559 93.6765 32.9559 93.6085 32.8288C93.5938 32.7746 93.579 32.7205 93.5639 32.6646C93.5463 32.6048 93.5288 32.5449 93.5107 32.4832C93.4926 32.4208 93.4745 32.3584 93.4559 32.2941C93.4148 32.1764 93.3727 32.059 93.3295 31.942C93.308 31.8834 93.2865 31.8248 93.2643 31.7645C93.2426 31.7057 93.2209 31.6469 93.1985 31.5864C93.1768 31.5271 93.1551 31.4677 93.1327 31.4066C93.034 31.1387 92.9329 30.8774 92.8102 30.6196C92.7113 30.3579 92.6876 30.2704 92.7941 30.0147C92.9245 29.8433 93.0544 29.6864 93.1985 29.5276C93.2799 29.4354 93.3612 29.3432 93.4424 29.251C93.4825 29.2057 93.5226 29.1605 93.5639 29.1139C93.7149 28.9414 93.859 28.764 94.0027 28.5855C94.3074 28.2101 94.6237 27.8457 94.9414 27.4814C95.1739 27.2142 95.4021 26.9445 95.625 26.6691C95.9248 26.299 96.2355 25.9394 96.5484 25.5804C96.8105 25.2795 97.069 24.9759 97.3253 24.67C97.6547 24.278 97.9971 23.8996 98.345 23.524C98.5044 23.3507 98.6603 23.1753 98.8143 22.9972C99.0049 22.7773 99.2028 22.5702 99.4117 22.3676Z" fill="#EA6B21"/>
<path d="M93.6765 40.9706C94.0712 41.0069 94.3677 41.1101 94.7159 41.302C94.7651 41.3283 94.8143 41.3546 94.865 41.3817C95.0253 41.4676 95.185 41.5545 95.3447 41.6415C95.4562 41.7016 95.5677 41.7615 95.6793 41.8214C95.9066 41.9435 96.1336 42.0661 96.3605 42.189C96.6671 42.3549 96.9747 42.5191 97.2826 42.6827C97.4192 42.7554 97.5558 42.8281 97.6923 42.9008C97.8173 42.9673 97.9422 43.0338 98.0672 43.1002C99.5305 43.8835 99.5305 43.8835 99.7059 44.0588C99.7129 44.2894 99.7151 44.5183 99.7142 44.7489C99.7142 44.8213 99.7142 44.8938 99.7143 44.9684C99.7142 45.2091 99.7136 45.4498 99.7131 45.6905C99.7129 45.8569 99.7128 46.0233 99.7127 46.1897C99.7125 46.6287 99.7117 47.0676 99.7109 47.5065C99.7102 47.954 99.7098 48.4015 99.7095 48.849C99.7087 49.7278 99.7074 50.6065 99.7059 51.4853C99.6331 51.5096 99.5603 51.5338 99.4853 51.5588C98.7206 51.0982 98.0708 50.1671 97.5204 49.4813C97.3369 49.2601 97.1443 49.0486 96.9485 48.8382C96.6316 48.4976 96.3345 48.1455 96.0426 47.783C95.884 47.5902 95.7196 47.405 95.5515 47.2206C95.2672 46.9083 94.999 46.5858 94.7332 46.2578C94.5472 46.0298 94.3584 45.8045 94.1682 45.58C94.1349 45.5406 94.1017 45.5013 94.0674 45.4608C93.8822 45.2424 93.6956 45.0252 93.5076 44.809C93.4675 44.7628 93.4274 44.7166 93.3862 44.669C93.3088 44.5798 93.2311 44.4908 93.1532 44.4021C92.7883 43.9812 92.7883 43.9812 92.7206 43.7647C92.7461 43.4284 92.9005 43.1287 93.0331 42.8226C93.2899 42.2166 93.4921 41.6019 93.6765 40.9706Z" fill="#E34F1D"/>
<path d="M166.443 24.9182C166.528 24.9185 166.613 24.9188 166.701 24.9191C167.529 24.9301 168.397 25.002 169.118 25.4559C169.337 25.6823 169.355 25.8863 169.37 26.1912C169.362 26.4429 169.341 26.5531 169.219 26.7794C168.924 27.0279 168.707 27.0803 168.323 27.0552C168.115 27.0225 167.914 26.9755 167.711 26.9248C167.343 26.8427 166.989 26.826 166.613 26.8254C166.52 26.8227 166.52 26.8227 166.425 26.8199C165.999 26.818 165.64 26.8837 165.294 27.1471C165.177 27.374 165.177 27.374 165.147 27.5882C165.422 27.9031 165.631 28.0192 166.034 28.121C166.084 28.1342 166.134 28.1473 166.185 28.1608C166.343 28.2025 166.501 28.2425 166.659 28.2822C167.74 28.5553 168.757 28.8377 169.439 29.7878C169.759 30.3635 169.728 31.1646 169.576 31.79C169.328 32.4455 168.912 32.8333 168.309 33.1765C166.982 33.7487 165.467 33.6094 164.137 33.1297C163.742 32.9648 163.405 32.8058 163.162 32.4412C163.108 32.0758 163.125 31.7822 163.286 31.4485C163.471 31.2485 163.558 31.172 163.824 31.1177C164.232 31.1511 164.563 31.2365 164.949 31.3796C165.409 31.5352 165.838 31.5967 166.324 31.6002C166.381 31.6012 166.438 31.6023 166.497 31.6034C166.892 31.5965 167.258 31.5168 167.574 31.2647C167.657 30.9981 167.657 30.9981 167.647 30.75C167.097 30.4875 166.544 30.3157 165.956 30.1618C164.94 29.8918 164.088 29.6337 163.419 28.7684C163.09 28.1841 163.155 27.3417 163.279 26.7033C163.495 26.0743 163.979 25.5426 164.563 25.2353C165.182 24.9477 165.771 24.9149 166.443 24.9182Z" fill="#3F3E40"/>
<path d="M144.283 44.0726C145.111 44.6971 145.642 45.53 145.809 46.5588C145.828 46.7642 145.837 46.9684 145.841 47.1746C145.843 47.2245 145.844 47.2744 145.846 47.3257C145.845 47.5822 145.812 47.7293 145.678 47.9496C145.39 48.2203 145.099 48.1855 144.715 48.1848C144.639 48.1848 144.639 48.1848 144.562 48.1848C144.397 48.1848 144.231 48.1842 144.066 48.1836C143.951 48.1835 143.836 48.1834 143.721 48.1833C143.419 48.183 143.117 48.1823 142.814 48.1815C142.506 48.1808 142.197 48.1804 141.889 48.1801C141.284 48.1793 140.679 48.178 140.074 48.1765C140.108 48.2949 140.143 48.4132 140.178 48.5315C140.197 48.5975 140.217 48.6634 140.237 48.7313C140.417 49.3007 140.76 49.6331 141.268 49.9271C141.729 50.1265 142.168 50.1886 142.665 50.1847C142.72 50.1845 142.774 50.1842 142.83 50.184C143.408 50.1726 143.945 50.061 144.471 49.8171C144.748 49.7032 144.925 49.6767 145.221 49.7206C145.437 49.8722 145.437 49.8722 145.588 50.0882C145.636 50.3873 145.634 50.535 145.464 50.7885C144.839 51.4577 143.767 51.652 142.892 51.7004C141.633 51.7432 140.455 51.4877 139.493 50.6248C138.662 49.7616 138.467 48.5917 138.456 47.4412C138.521 46.2732 138.851 45.1636 139.723 44.346C140.99 43.3152 142.903 43.1792 144.283 44.0726ZM140.665 45.4429C140.263 45.8729 140.074 46.2516 140.074 46.8529C141.481 46.8529 142.888 46.8529 144.338 46.8529C144.174 46.0307 143.99 45.5703 143.299 45.0991C142.429 44.563 141.388 44.7669 140.665 45.4429Z" fill="#3F3E40"/>
<path d="M124.15 44.2036C125.136 44.9844 125.513 46.0107 125.662 47.2206C125.756 48.3891 125.467 49.5533 124.706 50.4559C123.914 51.3032 122.987 51.6419 121.841 51.703C120.623 51.7306 119.643 51.3713 118.757 50.5464C117.91 49.6678 117.714 48.4647 117.721 47.2941C117.795 46.2038 118.182 45.1677 118.984 44.4035C120.397 43.2314 122.648 43.1718 124.15 44.2036ZM119.926 45.6029C119.338 46.3073 119.194 47.1299 119.265 48.0294C119.342 48.6329 119.572 49.207 120 49.6471C120.715 50.1953 121.395 50.3273 122.279 50.2353C122.961 50.074 123.431 49.684 123.8 49.0959C124.212 48.3161 124.23 47.4126 124.003 46.5726C123.786 45.9468 123.446 45.497 122.874 45.1598C121.92 44.7156 120.674 44.821 119.926 45.6029Z" fill="#3F3E40"/>
<path d="M152.647 44.0588C152.774 44.3132 152.756 44.5896 152.721 44.8677C152.573 45.095 152.483 45.1481 152.221 45.212C151.968 45.237 151.817 45.2034 151.576 45.1296C150.725 44.9192 149.648 44.8141 148.871 45.2804C148.645 45.4709 148.603 45.5993 148.571 45.8925C148.554 46.0434 148.554 46.0434 148.603 46.1912C148.868 46.4582 149.133 46.5559 149.49 46.6599C149.54 46.675 149.59 46.69 149.642 46.7054C149.81 46.7555 149.979 46.8044 150.147 46.853C150.34 46.9089 150.533 46.9649 150.726 47.0216C150.852 47.0583 150.977 47.0945 151.103 47.1301C151.633 47.2849 152.129 47.4677 152.523 47.8686C152.57 47.9146 152.616 47.9605 152.665 48.0079C152.978 48.4158 153.054 48.8092 153.047 49.307C153.046 49.362 153.046 49.4169 153.045 49.4735C153.029 50.0192 152.901 50.395 152.541 50.8098C152.448 50.8894 152.448 50.8894 152.353 50.9706C152.298 51.0206 152.244 51.0707 152.187 51.1223C151.292 51.7529 150.172 51.7833 149.118 51.6324C147.417 51.2875 147.417 51.2875 147.059 50.75C147.009 50.4371 147.003 50.1734 147.178 49.9044C147.395 49.7674 147.538 49.7405 147.794 49.7206C147.988 49.7711 148.164 49.825 148.35 49.8952C148.902 50.0953 149.365 50.1765 149.949 50.1802C150.009 50.1817 150.07 50.1832 150.131 50.1848C150.627 50.1879 151.053 50.1187 151.434 49.7758C151.579 49.5101 151.598 49.3568 151.544 49.0588C151.167 48.7337 150.721 48.6359 150.248 48.5074C150.089 48.4624 149.93 48.4173 149.771 48.3721C149.658 48.3403 149.658 48.3403 149.543 48.3078C148.695 48.0685 147.765 47.8008 147.279 47C147.032 46.404 147.025 45.6656 147.21 45.0492C147.54 44.3401 147.995 43.9409 148.721 43.6711C149.86 43.3254 151.64 43.3588 152.647 44.0588Z" fill="#403F41"/>
<path d="M127.229 43.5901C127.285 43.5865 127.341 43.5829 127.398 43.5792C127.658 43.6361 127.789 43.7771 127.941 43.9853C128.084 44.2726 128.197 44.5702 128.31 44.8702C128.361 45.0013 128.361 45.0013 128.413 45.135C128.504 45.3676 128.593 45.6005 128.682 45.8336C128.771 46.0653 128.86 46.2966 128.95 46.528C129.055 46.7983 129.159 47.0686 129.264 47.3391C129.551 48.0866 129.847 48.8309 130.147 49.5735C130.526 48.6561 130.9 47.7367 131.259 46.811C131.285 46.7443 131.31 46.6776 131.337 46.6089C131.466 46.2761 131.595 45.943 131.723 45.6097C132.39 43.8774 132.39 43.8774 132.794 43.6177C133.022 43.565 133.227 43.5684 133.456 43.6177C133.748 43.8564 133.748 43.8564 133.824 44.0588C133.854 44.519 133.78 44.8338 133.597 45.2528C133.572 45.3104 133.548 45.3679 133.523 45.4272C133.444 45.6164 133.363 45.805 133.281 45.9936C133.225 46.1261 133.169 46.2586 133.113 46.3912C132.995 46.6704 132.876 46.9494 132.757 47.2282C132.571 47.6652 132.39 48.1039 132.209 48.543C132.12 48.7573 132.031 48.9717 131.943 49.186C131.886 49.3239 131.829 49.4618 131.772 49.5998C131.692 49.7936 131.612 49.987 131.532 50.1804C131.508 50.237 131.485 50.2936 131.462 50.3518C131.07 51.2869 131.07 51.2869 130.662 51.5588C130.259 51.649 129.967 51.6291 129.572 51.5201C129.077 51.1849 128.884 50.4709 128.672 49.9412C128.616 49.8035 128.56 49.6658 128.504 49.5282C128.462 49.4259 128.42 49.3235 128.378 49.2212C128.085 48.5006 127.785 47.7829 127.485 47.0649C127.386 46.828 127.288 46.591 127.189 46.354C127.127 46.2057 127.065 46.0574 127.003 45.9091C126.975 45.8413 126.947 45.7736 126.918 45.7037C126.801 45.4244 126.684 45.1455 126.563 44.8681C126.434 44.5605 126.433 44.3898 126.471 44.0588C126.685 43.7236 126.837 43.6072 127.229 43.5901Z" fill="#3F3E40"/>
<path d="M161.324 21.7059C161.544 21.838 161.721 21.9865 161.838 22.2206C161.846 22.3593 161.848 22.4983 161.849 22.6373C161.85 22.7259 161.85 22.8146 161.851 22.9059C161.851 23.0047 161.851 23.1035 161.851 23.2023C161.852 23.3059 161.852 23.4095 161.853 23.5131C161.854 23.7951 161.855 24.0771 161.855 24.3591C161.856 24.5352 161.856 24.7114 161.857 24.8875C161.858 25.4387 161.859 25.9898 161.86 26.5409C161.86 27.1772 161.862 27.8134 161.865 28.4496C161.868 28.9413 161.869 29.433 161.869 29.9247C161.869 30.2184 161.87 30.5121 161.872 30.8058C161.873 31.0822 161.874 31.3586 161.873 31.635C161.873 31.7363 161.873 31.8376 161.874 31.9389C161.883 32.8923 161.883 32.8923 161.544 33.25C161.243 33.4404 160.915 33.5018 160.565 33.4338C160.224 33.2951 160.088 33.132 159.926 32.8088C159.919 32.671 159.916 32.5329 159.916 32.3949C159.915 32.3069 159.915 32.2189 159.914 32.1282C159.914 32.0301 159.914 31.932 159.913 31.8339C159.913 31.731 159.912 31.6281 159.912 31.5252C159.911 31.2452 159.91 30.9652 159.909 30.6852C159.909 30.5103 159.908 30.3354 159.908 30.1604C159.907 29.6132 159.906 29.0659 159.905 28.5186C159.904 27.8868 159.902 27.255 159.899 26.6233C159.897 26.135 159.896 25.6467 159.896 25.1585C159.896 24.8668 159.895 24.5752 159.893 24.2836C159.891 24.0091 159.891 23.7346 159.892 23.4601C159.892 23.3116 159.89 23.1631 159.889 23.0147C159.894 22.1984 159.894 22.1984 160.221 21.8529C160.579 21.5946 160.91 21.5825 161.324 21.7059Z" fill="#403F41"/>
<path d="M130.873 24.8998C130.953 24.8969 130.953 24.8969 131.035 24.8938C131.329 24.8959 131.456 24.9293 131.686 25.119C131.962 25.4624 132.024 25.6683 131.985 26.1177C131.866 26.4271 131.756 26.6105 131.471 26.7794C131.232 26.8176 131.232 26.8176 130.956 26.8392C130.397 26.8955 129.972 27.0867 129.485 27.3677C129.43 27.3934 129.376 27.4192 129.319 27.4458C129.151 27.5364 129.119 27.637 129.044 27.8088C128.996 27.8574 128.947 27.9059 128.897 27.9559C128.875 28.1671 128.875 28.1671 128.879 28.4178C128.879 28.4652 128.879 28.5125 128.879 28.5613C128.879 28.6643 128.879 28.7673 128.879 28.8703C128.88 29.0335 128.879 29.1967 128.878 29.36C128.875 29.8241 128.874 30.2882 128.875 30.7523C128.875 31.0362 128.874 31.32 128.871 31.6039C128.871 31.7119 128.871 31.8199 128.872 31.9278C128.878 32.8799 128.878 32.8799 128.646 33.1681C128.329 33.4271 128.104 33.4217 127.704 33.418C127.422 33.389 127.266 33.2938 127.059 33.103C126.934 32.8961 126.893 32.7428 126.893 32.5024C126.892 32.4419 126.892 32.3814 126.891 32.319C126.891 32.2533 126.891 32.1875 126.892 32.1198C126.891 32.0501 126.891 31.9803 126.89 31.9085C126.889 31.6779 126.889 31.4473 126.89 31.2167C126.889 31.0565 126.889 30.8962 126.889 30.736C126.888 30.4 126.888 30.0641 126.889 29.7282C126.889 29.2976 126.888 28.8671 126.886 28.4365C126.885 28.1055 126.885 27.7746 126.885 27.4436C126.885 27.2848 126.885 27.1261 126.884 26.9673C126.883 26.7454 126.884 26.5235 126.884 26.3015C126.884 26.2359 126.883 26.1703 126.883 26.1027C126.886 25.752 126.906 25.5208 127.132 25.2353C127.422 24.9724 127.738 24.9736 128.113 24.9837C128.425 25.0331 128.542 25.1475 128.75 25.3824C128.801 25.4792 128.851 25.577 128.897 25.6765C128.965 25.6098 129.034 25.543 129.104 25.4743C129.632 25.0311 130.199 24.9147 130.873 24.8998Z" fill="#403F41"/>
<path d="M135.979 43.5901C136.035 43.5865 136.091 43.5829 136.148 43.5792C136.422 43.6394 136.519 43.7655 136.691 43.9853C136.745 44.2177 136.741 44.4449 136.739 44.6827C136.74 44.7873 136.74 44.7873 136.741 44.894C136.742 45.1242 136.741 45.3543 136.74 45.5846C136.74 45.7447 136.741 45.9049 136.741 46.065C136.742 46.4005 136.741 46.736 136.739 47.0715C136.737 47.5015 136.738 47.9314 136.74 48.3614C136.742 48.6921 136.741 49.0228 136.74 49.3534C136.74 49.512 136.74 49.6705 136.741 49.829C136.742 50.0507 136.741 50.2722 136.739 50.4938C136.739 50.5593 136.74 50.6248 136.741 50.6922C136.735 51.0183 136.724 51.15 136.516 51.4143C136.311 51.5684 136.211 51.6261 135.956 51.6324C135.673 51.5645 135.477 51.4954 135.294 51.2647C135.17 51.0158 135.208 50.7327 135.208 50.4588C135.207 50.3905 135.207 50.3223 135.206 50.2519C135.205 50.0253 135.204 49.7987 135.203 49.5721C135.203 49.4948 135.202 49.4175 135.202 49.3379C135.201 48.9289 135.2 48.5199 135.199 48.1109C135.198 47.6881 135.196 47.2653 135.193 46.8425C135.191 46.5177 135.19 46.1929 135.19 45.8681C135.189 45.7122 135.189 45.5563 135.187 45.4005C135.185 45.1824 135.186 44.9643 135.186 44.7462C135.185 44.6818 135.184 44.6173 135.183 44.5509C135.186 44.2495 135.196 44.0974 135.361 43.8366C135.57 43.6387 135.697 43.6024 135.979 43.5901Z" fill="#403F41"/>
<path d="M136.608 40.6719C136.842 40.8986 136.855 41.0428 136.866 41.3612C136.864 41.6726 136.858 41.7527 136.664 42.0092C136.327 42.2499 136.069 42.2594 135.662 42.2206C135.354 42.0935 135.205 41.9376 135.073 41.6323C135.034 41.2643 135.066 41.0437 135.294 40.75C135.694 40.389 136.154 40.3656 136.608 40.6719Z" fill="#3E3D3F"/>
<path d="M91.7647 21.5588C91.9118 21.6324 91.9118 21.6324 91.9118 21.6324L91.7647 21.5588Z" fill="#FF0000"/>
</svg>
