<svg width="240" height="240" viewBox="0 0 240 240" fill="none" xmlns="http://www.w3.org/2000/svg">
<path d="M77.8679 104.191C77.9583 104.192 78.0487 104.194 78.1419 104.195C79.5927 104.253 81.0581 104.601 82.4267 105.073C82.4819 105.092 82.537 105.111 82.5938 105.13C84.8737 105.918 86.8409 107.35 88.5296 109.044C88.5701 109.082 88.6106 109.12 88.6523 109.159C88.946 109.437 89.1969 109.741 89.4442 110.06C89.4772 110.102 89.5103 110.144 89.5443 110.188C89.7796 110.496 89.7796 110.496 89.7796 110.662C89.8282 110.662 89.8767 110.662 89.9267 110.662C90.033 110.805 90.033 110.805 90.1565 111.006C90.2023 111.081 90.248 111.155 90.2952 111.232C90.3676 111.35 90.3676 111.35 90.4414 111.471C90.5126 111.582 90.5126 111.582 90.5853 111.696C91.3957 112.975 91.99 114.34 92.3848 115.801C92.4243 115.947 92.4657 116.092 92.5071 116.238C93.4063 119.556 93.0397 123.453 91.5443 126.544C91.5015 126.639 91.4589 126.734 91.4165 126.83C90.9765 127.808 90.443 128.714 89.7796 129.559C89.7402 129.613 89.7008 129.668 89.6602 129.724C89.6207 129.779 89.5813 129.833 89.5407 129.89C89.5054 129.939 89.4701 129.988 89.4338 130.039C89.4024 130.075 89.3709 130.11 89.3385 130.147C89.2899 130.147 89.2414 130.147 89.1914 130.147C89.1733 130.188 89.1552 130.23 89.1365 130.273C88.7206 131.033 87.912 131.717 87.2061 132.206C87.1518 132.262 87.0975 132.318 87.0415 132.376C86.8079 132.603 86.561 132.782 86.2916 132.964C86.2398 132.999 86.188 133.035 86.1346 133.071C85.6484 133.398 85.1499 133.695 84.6326 133.971C84.5871 133.995 84.5417 134.019 84.4949 134.044C80.867 135.969 76.4784 136.382 72.539 135.226C70.8642 134.708 69.2971 133.958 67.8679 132.941C67.7953 132.89 67.7227 132.84 67.6479 132.787C67.3006 132.54 66.985 132.296 66.6914 131.985C66.6108 131.919 66.5296 131.853 66.4478 131.788C66.3826 131.732 66.3174 131.675 66.2502 131.618C66.2502 131.569 66.2502 131.521 66.2502 131.471C66.2062 131.451 66.1621 131.432 66.1167 131.412C65.9465 131.318 65.8608 131.231 65.7401 131.08C65.6124 130.922 65.4833 130.777 65.3389 130.633C62.5868 127.873 61.3108 123.857 61.2227 120.037C61.3002 116.804 62.1448 113.481 64.1492 110.888C64.2326 110.778 64.3133 110.666 64.3922 110.553C64.7942 109.978 65.2501 109.474 65.7355 108.971C65.7731 108.931 65.8107 108.892 65.8495 108.852C66.3213 108.362 66.8063 107.906 67.3532 107.5C67.3909 107.472 67.4285 107.444 67.4674 107.414C69.2879 106.058 71.3653 105.007 73.6032 104.559C73.6655 104.546 73.7279 104.533 73.7921 104.52C75.1572 104.244 76.4768 104.167 77.8679 104.191ZM69.9267 107.794C69.8823 107.82 69.8379 107.846 69.7922 107.872C68.8402 108.435 67.9767 109.135 67.2061 109.926C66.8385 110.294 66.8385 110.294 66.7244 110.404C66.4051 110.715 66.1242 111.042 65.855 111.397C65.8137 111.451 65.7724 111.506 65.7299 111.562C65.3477 112.073 65.0119 112.602 64.7061 113.162C64.6688 113.23 64.6688 113.23 64.6307 113.299C63.0995 116.127 62.5565 119.411 63.162 122.573C63.1785 122.661 63.1785 122.661 63.1954 122.75C63.3452 123.521 63.5491 124.263 63.8238 125C63.8414 125.048 63.8591 125.097 63.8774 125.147C64.6016 127.101 65.833 128.775 67.2888 130.248C67.3298 130.29 67.3707 130.331 67.4129 130.374C67.6045 130.592 67.6045 130.592 67.8679 130.662C67.8679 130.71 67.8679 130.759 67.8679 130.809C68.0411 130.953 68.2148 131.089 68.3964 131.222C68.4498 131.262 68.5032 131.302 68.5583 131.342C69.0236 131.684 69.503 131.987 70.0002 132.279C70.0946 132.341 70.0946 132.341 70.1909 132.404C71.3945 133.167 72.8063 133.606 74.1914 133.897C74.294 133.92 74.3965 133.942 74.499 133.965C78.0359 134.717 81.8513 133.827 84.8618 131.882C85.6181 131.382 86.2955 130.805 86.9494 130.179C87.0504 130.082 87.1522 129.986 87.2541 129.89C88.0175 129.154 88.6385 128.308 89.1884 127.404C89.2611 127.286 89.3359 127.168 89.4108 127.05C90.1038 125.915 90.6001 124.607 90.8826 123.309C90.9091 123.193 90.9356 123.076 90.9621 122.96C90.9894 122.837 91.0165 122.715 91.0434 122.592C91.0557 122.536 91.068 122.481 91.0807 122.423C91.3884 120.957 91.3947 119.262 91.1032 117.794C91.0897 117.725 91.0763 117.656 91.0624 117.585C90.692 115.737 90.0624 114.018 89.0443 112.426C89.0025 112.359 88.9606 112.291 88.9174 112.222C88.5521 111.651 88.1307 111.145 87.6823 110.638C87.5677 110.508 87.4557 110.375 87.3437 110.242C87.1899 110.063 87.034 109.9 86.8523 109.747C86.64 109.567 86.4326 109.384 86.2273 109.196C85.5361 108.583 84.7686 108.105 83.9708 107.647C83.9055 107.609 83.9055 107.609 83.8388 107.57C82.576 106.838 81.21 106.376 79.7796 106.103C79.7167 106.091 79.6537 106.079 79.5889 106.066C76.2857 105.465 72.8195 106.104 69.9267 107.794Z" fill="white"/>
<path d="M106.623 105.285C106.912 105.538 107.038 105.825 107.185 106.171C107.223 106.258 107.223 106.258 107.261 106.347C107.566 107.053 107.85 107.768 108.134 108.483C108.193 108.63 108.251 108.776 108.309 108.922C108.461 109.302 108.612 109.682 108.764 110.062C109.007 110.674 109.252 111.286 109.496 111.898C109.581 112.111 109.666 112.325 109.751 112.538C109.802 112.667 109.854 112.797 109.906 112.926C109.929 112.986 109.953 113.045 109.977 113.106C110.091 113.395 110.091 113.395 110.221 113.676C110.245 113.616 110.245 113.616 110.269 113.555C110.658 112.577 111.048 111.599 111.439 110.622C111.628 110.149 111.816 109.677 112.004 109.204C112.186 108.747 112.368 108.291 112.551 107.835C112.62 107.661 112.689 107.487 112.758 107.313C112.855 107.068 112.953 106.825 113.051 106.581C113.079 106.509 113.107 106.437 113.136 106.363C113.329 105.889 113.518 105.522 113.955 105.232C114.252 105.126 114.504 105.115 114.817 105.119C114.871 105.119 114.924 105.118 114.98 105.117C115.385 105.119 115.695 105.196 116.004 105.478C116.259 105.805 116.333 106.016 116.334 106.425C116.335 106.507 116.335 106.589 116.336 106.673C116.336 106.809 116.336 106.809 116.336 106.946C116.336 107.041 116.337 107.136 116.337 107.234C116.338 107.494 116.338 107.754 116.339 108.014C116.339 108.177 116.339 108.34 116.34 108.502C116.341 109.011 116.341 109.52 116.342 110.029C116.342 110.616 116.343 111.203 116.345 111.79C116.347 112.244 116.348 112.698 116.348 113.152C116.348 113.423 116.348 113.694 116.35 113.966C116.351 114.268 116.351 114.57 116.35 114.873C116.351 114.963 116.352 115.052 116.352 115.145C116.352 115.269 116.352 115.269 116.351 115.395C116.351 115.466 116.351 115.538 116.351 115.611C116.31 115.907 116.18 116.101 115.97 116.307C115.649 116.487 115.281 116.449 114.927 116.397C114.69 116.277 114.533 116.124 114.412 115.882C114.405 115.785 114.401 115.686 114.401 115.588C114.4 115.496 114.4 115.496 114.398 115.402C114.398 115.335 114.398 115.267 114.397 115.197C114.396 115.126 114.396 115.055 114.395 114.982C114.393 114.747 114.391 114.511 114.389 114.276C114.387 114.113 114.386 113.95 114.384 113.787C114.38 113.357 114.377 112.927 114.373 112.498C114.369 112.06 114.365 111.622 114.361 111.183C114.353 110.323 114.346 109.463 114.339 108.603C114.308 108.68 114.308 108.68 114.276 108.759C113.722 110.137 113.167 111.513 112.61 112.89C112.542 113.06 112.473 113.23 112.404 113.4C112.254 113.772 112.104 114.144 111.952 114.515C111.911 114.617 111.869 114.718 111.828 114.82C111.773 114.958 111.717 115.095 111.66 115.232C111.63 115.306 111.601 115.379 111.57 115.455C111.377 115.86 111.176 116.219 110.74 116.374C110.332 116.487 109.95 116.506 109.559 116.324C109.055 116.008 108.883 115.591 108.677 115.051C108.622 114.913 108.568 114.776 108.513 114.638C108.448 114.475 108.383 114.311 108.319 114.147C108.13 113.666 107.936 113.187 107.742 112.708C107.704 112.615 107.667 112.521 107.629 112.428C107.571 112.286 107.514 112.145 107.457 112.003C107.324 111.675 107.192 111.347 107.06 111.019C107.024 110.929 106.988 110.84 106.951 110.748C106.883 110.58 106.816 110.412 106.748 110.243C106.537 109.719 106.322 109.197 106.103 108.676C106.103 108.765 106.103 108.853 106.103 108.944C106.1 109.777 106.096 110.61 106.09 111.443C106.087 111.872 106.085 112.3 106.083 112.728C106.082 113.142 106.08 113.555 106.076 113.968C106.075 114.126 106.075 114.284 106.075 114.441C106.074 114.662 106.072 114.883 106.07 115.104C106.07 115.169 106.071 115.234 106.071 115.301C106.064 115.701 106.005 115.935 105.736 116.25C105.391 116.48 105.036 116.448 104.633 116.397C104.411 116.302 104.35 116.226 104.192 116.029C104.013 115.567 104.024 115.119 104.026 114.629C104.025 114.541 104.025 114.453 104.025 114.362C104.024 114.121 104.024 113.881 104.025 113.641C104.025 113.388 104.025 113.136 104.025 112.884C104.024 112.46 104.025 112.036 104.025 111.613C104.026 111.124 104.026 110.635 104.025 110.147C104.024 109.726 104.024 109.305 104.025 108.884C104.025 108.634 104.025 108.383 104.025 108.132C104.024 107.852 104.025 107.572 104.026 107.293C104.025 107.21 104.025 107.128 104.025 107.043C104.031 105.93 104.031 105.93 104.398 105.524C104.434 105.483 104.469 105.442 104.506 105.4C105 104.988 106.059 104.991 106.623 105.285Z" fill="white"/>
<path d="M105.354 123.732C105.406 123.73 105.458 123.729 105.512 123.727C105.849 123.724 106.059 123.759 106.323 123.971C106.536 124.214 106.676 124.439 106.798 124.737C106.831 124.817 106.863 124.897 106.897 124.979C106.932 125.066 106.967 125.154 107.003 125.244C107.042 125.338 107.08 125.432 107.119 125.526C107.247 125.84 107.373 126.155 107.5 126.471C107.522 126.526 107.544 126.581 107.567 126.638C107.783 127.176 107.998 127.713 108.212 128.251C108.596 129.212 108.982 130.171 109.37 131.13C109.398 131.199 109.425 131.267 109.454 131.337C109.531 131.529 109.609 131.721 109.687 131.913C109.71 131.971 109.733 132.028 109.757 132.088C109.871 132.371 109.871 132.371 110 132.647C110.029 132.574 110.029 132.574 110.059 132.5C110.12 132.35 110.18 132.2 110.241 132.05C110.313 131.869 110.386 131.689 110.459 131.509C110.642 131.053 110.826 130.598 111.01 130.142C111.116 129.88 111.222 129.618 111.328 129.355C111.349 129.303 111.371 129.25 111.393 129.195C111.676 128.493 111.957 127.79 112.235 127.086C112.356 126.78 112.477 126.474 112.599 126.168C112.664 126.003 112.729 125.838 112.794 125.672C112.883 125.442 112.974 125.213 113.066 124.984C113.092 124.917 113.117 124.85 113.144 124.781C113.309 124.371 113.483 124.109 113.823 123.823C114.086 123.736 114.305 123.735 114.582 123.732C114.677 123.73 114.772 123.728 114.87 123.726C115.257 123.76 115.481 123.854 115.745 124.141C115.976 124.504 115.924 124.939 115.921 125.354C115.922 125.449 115.923 125.543 115.923 125.641C115.925 125.9 115.925 126.16 115.924 126.419C115.924 126.636 115.924 126.853 115.925 127.069C115.926 127.581 115.926 128.092 115.925 128.603C115.923 129.13 115.924 129.657 115.927 130.184C115.929 130.637 115.929 131.09 115.929 131.544C115.928 131.814 115.928 132.084 115.93 132.355C115.932 132.656 115.93 132.957 115.929 133.259C115.93 133.393 115.93 133.393 115.931 133.53C115.924 134.202 115.924 134.202 115.707 134.43C115.499 134.569 115.394 134.609 115.147 134.605C115.086 134.606 115.026 134.607 114.963 134.608C114.683 134.533 114.587 134.422 114.412 134.191C114.356 133.923 114.361 133.659 114.363 133.387C114.362 133.306 114.362 133.224 114.361 133.141C114.359 132.873 114.359 132.605 114.36 132.338C114.359 132.152 114.357 131.966 114.356 131.78C114.354 131.342 114.353 130.903 114.352 130.464C114.352 129.964 114.35 129.465 114.347 128.965C114.342 127.937 114.339 126.91 114.338 125.882C113.41 128.144 113.41 128.144 112.493 130.41C112.474 130.459 112.454 130.508 112.434 130.558C112.26 130.992 112.085 131.427 111.911 131.862C111.813 132.107 111.715 132.352 111.616 132.597C111.563 132.73 111.509 132.864 111.456 132.998C110.925 134.317 110.925 134.317 110.441 134.559C110.082 134.668 109.754 134.631 109.412 134.485C109.017 134.239 108.9 133.925 108.734 133.51C108.706 133.441 108.677 133.373 108.648 133.303C108.558 133.085 108.47 132.866 108.382 132.647C108.325 132.507 108.268 132.366 108.211 132.226C108.034 131.786 107.858 131.346 107.684 130.905C107.567 130.611 107.449 130.316 107.332 130.022C107.302 129.946 107.271 129.87 107.24 129.791C106.719 128.486 106.19 127.185 105.662 125.882C105.661 125.946 105.661 125.946 105.661 126.011C105.66 127.045 105.657 128.079 105.652 129.113C105.649 129.613 105.647 130.113 105.647 130.613C105.647 131.096 105.645 131.578 105.641 132.061C105.64 132.245 105.64 132.429 105.64 132.614C105.641 132.871 105.639 133.129 105.636 133.387C105.637 133.463 105.638 133.539 105.638 133.618C105.633 133.969 105.63 134.136 105.413 134.422C105.146 134.612 104.978 134.611 104.66 134.595C104.389 134.539 104.273 134.413 104.117 134.191C104.043 133.965 104.034 133.757 104.034 133.52C104.033 133.444 104.033 133.368 104.032 133.289C104.032 133.206 104.032 133.123 104.032 133.037C104.031 132.905 104.031 132.905 104.031 132.771C104.03 132.53 104.029 132.289 104.029 132.048C104.029 131.897 104.029 131.746 104.028 131.596C104.027 131.123 104.027 130.651 104.026 130.179C104.026 129.635 104.025 129.09 104.023 128.546C104.021 128.125 104.02 127.704 104.02 127.283C104.02 127.031 104.02 126.78 104.018 126.529C104.017 126.248 104.017 125.968 104.018 125.687C104.017 125.604 104.016 125.522 104.016 125.437C104.018 124.97 104.052 124.541 104.264 124.118C104.617 123.774 104.877 123.735 105.354 123.732Z" fill="white"/>
<path d="M145.413 107.909C145.477 107.908 145.541 107.908 145.607 107.907C146.607 107.92 147.505 108.344 148.23 109.025C149.266 110.16 149.417 111.467 149.355 112.94C149.274 113.996 148.747 114.895 147.991 115.62C147.134 116.331 146.108 116.596 145.01 116.526C144.29 116.444 143.774 116.251 143.161 115.882C143.161 115.925 143.161 115.967 143.16 116.011C143.155 116.454 143.149 116.896 143.142 117.339C143.14 117.504 143.138 117.669 143.136 117.834C143.134 118.071 143.13 118.309 143.126 118.546C143.125 118.657 143.125 118.657 143.124 118.77C143.11 119.418 143.11 119.418 142.867 119.706C142.544 119.919 142.295 119.968 141.911 119.926C141.612 119.821 141.408 119.692 141.237 119.421C141.093 119.051 141.136 118.633 141.139 118.242C141.139 118.137 141.139 118.033 141.138 117.928C141.137 117.645 141.138 117.362 141.139 117.079C141.14 116.783 141.14 116.486 141.139 116.19C141.139 115.692 141.14 115.194 141.142 114.696C141.144 114.121 141.144 113.546 141.143 112.971C141.142 112.417 141.143 111.863 141.144 111.309C141.144 111.074 141.144 110.838 141.144 110.603C141.143 110.326 141.144 110.048 141.146 109.771C141.146 109.669 141.146 109.567 141.146 109.466C141.145 109.327 141.147 109.188 141.148 109.049C141.148 108.971 141.148 108.894 141.148 108.813C141.189 108.504 141.315 108.31 141.544 108.102C141.886 107.967 142.211 107.957 142.573 108.015C142.778 108.115 142.86 108.204 143.014 108.382C143.062 108.542 143.062 108.542 143.088 108.676C143.125 108.648 143.163 108.62 143.202 108.59C143.907 108.085 144.555 107.916 145.413 107.909ZM143.088 110.735C143.057 111.145 143.049 111.555 143.042 111.965C143.039 112.103 143.034 112.241 143.028 112.38C142.968 113.177 142.968 113.177 143.243 113.895C143.431 114.049 143.605 114.16 143.823 114.265C143.886 114.297 143.95 114.33 144.015 114.364C144.609 114.658 145.287 114.739 145.935 114.585C146.482 114.387 146.949 114.06 147.233 113.543C147.586 112.736 147.602 111.822 147.285 111.002C147.185 110.787 147.185 110.787 147.059 110.588C146.986 110.564 146.913 110.54 146.838 110.515C146.838 110.466 146.838 110.418 146.838 110.368C146.303 109.922 145.763 109.74 145.07 109.757C144.307 109.836 143.63 110.193 143.088 110.735Z" fill="white"/>
<path d="M71.6914 123.162C71.9752 123.203 72.1019 123.326 72.2996 123.528C72.361 123.59 72.4224 123.652 72.4857 123.716C72.5847 123.818 72.5847 123.818 72.6858 123.922C72.7554 123.992 72.825 124.063 72.8947 124.133C73.1531 124.395 73.4103 124.657 73.6675 124.92C74.8898 126.177 74.8898 126.177 76.2502 127.279C76.304 127.319 76.3577 127.358 76.4131 127.399C77.0787 127.88 77.7858 128.259 78.5296 128.603C78.6134 128.642 78.6972 128.681 78.7835 128.722C81.1567 129.787 83.4731 129.823 86.0296 129.779C86.0296 130.074 86.0296 130.074 85.8863 130.224C85.044 130.883 84.1809 131.484 83.2355 131.985C83.114 132.05 83.114 132.05 82.9899 132.116C81.7856 132.714 80.4501 133.126 79.1179 133.309C79.0171 133.323 79.0171 133.323 78.9142 133.338C78.7368 133.359 78.561 133.372 78.3826 133.382C78.31 133.388 78.2374 133.394 78.1626 133.399C77.6956 133.421 77.3966 133.378 77.0097 133.109C76.9613 133.063 76.9613 133.063 76.912 133.015C76.912 132.966 76.912 132.918 76.912 132.868C76.8619 132.852 76.8119 132.837 76.7603 132.822C76.477 132.689 76.2445 132.507 76.0296 132.279C76.0296 132.231 76.0296 132.182 76.0296 132.132C75.9907 132.117 75.9517 132.102 75.9116 132.087C75.6598 131.942 75.4742 131.746 75.2714 131.54C75.2074 131.475 75.2074 131.475 75.1421 131.409C74.8212 131.081 74.5333 130.74 74.2649 130.368C74.2193 130.308 74.1738 130.248 74.1268 130.186C72.6548 128.227 71.5597 125.65 71.6914 123.162Z" fill="white"/>
<path d="M73.9707 114.632C73.8653 114.931 73.7598 115.067 73.5077 115.261C73.3651 115.382 73.2503 115.514 73.1297 115.657C72.9284 115.894 72.7165 116.09 72.4769 116.287C72.3483 116.401 72.2419 116.522 72.1325 116.654C71.986 116.832 71.837 116.982 71.6591 117.128C71.4232 117.324 71.228 117.537 71.0301 117.771C70.8883 117.934 70.7408 118.092 70.5917 118.249C70.1435 118.724 69.7656 119.229 69.4119 119.779C69.3713 119.841 69.3713 119.841 69.3298 119.904C68.5887 121.037 68.0752 122.299 67.7207 123.603C67.7004 123.674 67.7004 123.674 67.6797 123.747C67.2018 125.45 67.2318 127.221 67.3531 128.971C67.059 128.971 67.059 128.971 66.9087 128.827C65.2023 126.648 63.9135 124.135 63.7501 121.324C63.7392 121.209 63.7392 121.209 63.728 121.092C63.6943 120.525 63.7898 120.21 64.1379 119.76C64.1798 119.718 64.2217 119.676 64.2648 119.632C64.3134 119.632 64.3619 119.632 64.4119 119.632C64.4271 119.582 64.4422 119.532 64.4579 119.48C64.5927 119.193 64.7838 118.993 65.0001 118.764C65.0604 118.698 65.0604 118.698 65.1219 118.631C65.225 118.52 65.3328 118.414 65.4413 118.309C65.4898 118.309 65.5384 118.309 65.5884 118.309C65.6145 118.246 65.6145 118.246 65.6412 118.182C65.9659 117.606 66.6629 117.192 67.206 116.838C67.2778 116.791 67.3495 116.745 67.4234 116.696C69.3937 115.448 71.6187 114.6 73.9707 114.632Z" fill="white"/>
<path d="M77.1465 106.949C77.2166 107.002 77.2868 107.055 77.359 107.111C77.4299 107.166 77.5008 107.222 77.5739 107.279C77.6402 107.331 77.7066 107.382 77.7749 107.435C79.3412 108.675 80.5189 110.273 81.3974 112.059C81.4259 112.115 81.4545 112.172 81.4839 112.23C81.9468 113.192 82.2391 114.245 82.4268 115.294C82.4365 115.346 82.4462 115.398 82.4561 115.452C82.5312 115.934 82.5065 116.426 82.5003 116.912C82.2499 116.871 82.1526 116.804 81.9994 116.604C81.8091 116.369 81.6059 116.179 81.3739 115.986C81.1978 115.838 81.0383 115.684 80.8827 115.515C80.8827 115.466 80.8827 115.418 80.8827 115.368C80.8418 115.351 80.8008 115.334 80.7586 115.317C80.5399 115.193 80.3886 115.039 80.2209 114.853C80.2209 114.804 80.2209 114.756 80.2209 114.706C80.1481 114.682 80.0753 114.657 80.0003 114.632C79.903 114.531 79.903 114.531 79.8027 114.403C79.5518 114.1 79.2706 113.856 78.9709 113.603C78.9012 113.541 78.8314 113.48 78.7595 113.417C77.2678 112.109 75.5164 111.186 73.6033 110.662C73.512 110.636 73.4207 110.61 73.3267 110.584C72.0879 110.247 70.8676 110.199 69.5913 110.211C69.4518 110.212 69.3123 110.213 69.1727 110.213C68.8358 110.215 68.499 110.218 68.1621 110.221C68.2679 109.675 68.9355 109.312 69.3771 109.012C69.8867 108.675 70.4111 108.364 70.9562 108.088C71.0231 108.054 71.0231 108.054 71.0914 108.02C72.5708 107.276 74.0839 106.863 75.7264 106.668C75.7802 106.662 75.8339 106.655 75.8893 106.648C76.4039 106.594 76.7322 106.633 77.1465 106.949Z" fill="white"/>
<path d="M86.8383 111.103C87.2214 111.152 87.3404 111.288 87.5777 111.577C89.1741 113.67 90.2135 116.038 90.4413 118.676C90.4496 118.761 90.458 118.845 90.4666 118.931C90.4996 119.572 90.3383 119.889 89.9266 120.368C89.8727 120.436 89.8187 120.504 89.7632 120.575C89.4477 120.972 89.1162 121.34 88.7501 121.691C88.6919 121.749 88.6337 121.808 88.5738 121.868C86.529 123.909 83.4871 125.449 80.5562 125.46C80.4443 125.455 80.3324 125.45 80.2207 125.441C80.3841 124.998 80.6677 124.764 81.0203 124.462C81.2863 124.234 81.5106 123.985 81.7321 123.713C81.7671 123.677 81.8022 123.641 81.8384 123.603C81.8869 123.603 81.9354 123.603 81.9854 123.603C82.0021 123.562 82.0188 123.521 82.036 123.479C82.1601 123.26 82.3138 123.109 82.5001 122.941C82.5486 122.941 82.5972 122.941 82.6472 122.941C82.6639 122.9 82.6805 122.859 82.6977 122.817C82.8218 122.598 82.9756 122.447 83.1619 122.279C83.2104 122.279 83.2589 122.279 83.3089 122.279C83.3271 122.238 83.3453 122.197 83.3641 122.155C83.4729 121.954 83.5983 121.788 83.7501 121.618C83.7986 121.618 83.8472 121.618 83.8972 121.618C83.9166 121.576 83.936 121.534 83.9561 121.492C84.0507 121.311 84.1597 121.153 84.2786 120.988C85.0958 119.828 85.7748 118.622 86.206 117.267C86.2445 117.149 86.2877 117.033 86.3317 116.918C87.0203 115.082 86.9733 113.028 86.8383 111.103Z" fill="white"/>
<path d="M70.8827 118.456C70.9797 118.48 71.0768 118.504 71.1768 118.529C71.1772 118.589 71.1777 118.649 71.1781 118.711C71.1824 119.284 71.1877 119.857 71.1941 120.43C71.1974 120.725 71.2003 121.019 71.2023 121.313C71.2151 123.749 71.2151 123.749 71.7099 126.126C71.7433 126.236 71.7433 126.236 71.7774 126.348C72.3446 128.167 73.2363 129.808 74.4856 131.25C74.5367 131.31 74.5878 131.37 74.6404 131.432C75.1432 132.009 75.7019 132.567 76.3158 133.027C76.367 133.071 76.4182 133.116 76.4709 133.162C76.4709 133.235 76.4709 133.307 76.4709 133.382C75.8939 133.402 75.3487 133.328 74.7797 133.235C74.6431 133.215 74.6431 133.215 74.5037 133.195C73.6777 133.06 72.9134 132.798 72.1327 132.5C72.006 132.452 72.006 132.452 71.8768 132.403C70.6168 131.9 69.4856 131.169 68.4562 130.294C68.3689 130.228 68.2816 130.162 68.1943 130.097C67.6847 129.613 67.7354 128.577 67.7122 127.913C67.6352 124.304 68.6126 121.278 70.8827 118.456Z" fill="white"/>
<path d="M74.1913 111.25C74.2402 111.266 74.2891 111.282 74.3396 111.298C75.7873 111.766 77.6839 112.614 78.6766 113.824C78.6766 113.896 78.6766 113.969 78.6766 114.044C78.5989 114.045 78.5989 114.045 78.5196 114.045C78.0214 114.05 77.5232 114.055 77.025 114.061C76.7691 114.065 76.5132 114.068 76.2574 114.07C74.5062 114.084 72.7146 114.107 71.0295 114.632C70.9706 114.65 70.9117 114.668 70.8511 114.686C68.9289 115.274 67.181 116.18 65.7003 117.558C65.5883 117.647 65.5883 117.647 65.4413 117.647C65.4215 117.694 65.4018 117.741 65.3815 117.79C65.2942 117.941 65.2942 117.941 65.0736 118.015C64.9847 118.162 64.9847 118.162 64.9266 118.309C64.878 118.309 64.8295 118.309 64.7795 118.309C64.762 118.349 64.7444 118.388 64.7264 118.429C64.6077 118.649 64.4624 118.832 64.3061 119.026C64.2486 119.098 64.1911 119.171 64.1318 119.245C64.0786 119.3 64.0255 119.355 63.9707 119.412C63.8979 119.412 63.8251 119.412 63.7501 119.412C63.6279 116.588 64.9383 113.691 66.6913 111.544C66.7373 111.484 66.7834 111.424 66.8309 111.361C67.1008 111.026 67.2983 110.812 67.7327 110.755C67.8015 110.748 67.8704 110.742 67.9413 110.735C68.0809 110.716 68.0809 110.716 68.2233 110.695C70.2448 110.418 72.2565 110.61 74.1913 111.25Z" fill="white"/>
<path d="M90.2202 120.662C90.293 120.662 90.3658 120.662 90.4408 120.662C90.5504 123.194 89.4837 125.848 88.0144 127.868C87.9582 127.946 87.9019 128.023 87.844 128.104C87.0897 129.134 87.0897 129.134 86.5793 129.225C86.5297 129.232 86.48 129.239 86.4289 129.246C86.3764 129.255 86.324 129.263 86.27 129.272C86.1163 129.296 85.9626 129.318 85.8085 129.338C85.7363 129.348 85.664 129.358 85.5896 129.368C84.4934 129.483 83.3691 129.451 82.2803 129.287C82.136 129.265 81.9912 129.247 81.8465 129.229C79.6363 128.926 77.1835 127.846 75.5879 126.25C75.5879 126.153 75.5879 126.056 75.5879 125.956C75.648 125.955 75.7082 125.955 75.7701 125.955C76.3442 125.95 76.9183 125.945 77.4924 125.939C77.7874 125.935 78.0823 125.932 78.3773 125.93C79.6673 125.921 80.9334 125.903 82.2055 125.662C82.2899 125.647 82.3743 125.632 82.4613 125.617C84.918 125.161 87.1761 123.751 88.9702 122.059C89.0153 122.017 89.0603 121.975 89.1067 121.932C89.4381 121.612 89.7247 121.26 90.0129 120.901C90.1467 120.735 90.1467 120.735 90.2202 120.662Z" fill="white"/>
<path d="M77.7207 106.691C79.0274 106.609 80.3185 106.934 81.5442 107.353C81.6311 107.382 81.7179 107.412 81.8073 107.443C83.1995 107.95 85.5643 108.961 86.2628 110.314C87.1184 113.135 86.3058 116.674 84.9717 119.213C84.5212 120.04 83.9772 120.876 83.3089 121.544C83.2119 121.544 83.1148 121.544 83.0148 121.544C83.0144 121.481 83.014 121.418 83.0135 121.353C83.0092 120.752 83.0039 120.151 82.9975 119.549C82.9942 119.241 82.9913 118.932 82.9893 118.623C82.9828 116.69 82.9828 116.69 82.7207 114.779C82.7101 114.728 82.6995 114.676 82.6885 114.623C82.0654 111.63 80.2619 108.897 77.8953 106.99C77.8377 106.94 77.7801 106.89 77.7207 106.838C77.7207 106.79 77.7207 106.741 77.7207 106.691Z" fill="white"/>
<path d="M99.7064 114.632C99.7081 116.021 99.7094 117.41 99.7102 118.799C99.7105 119.444 99.7111 120.089 99.7119 120.733C99.7126 121.295 99.7131 121.857 99.7133 122.419C99.7134 122.717 99.7136 123.014 99.7141 123.312C99.7146 123.592 99.7148 123.872 99.7147 124.151C99.7147 124.254 99.7148 124.357 99.7151 124.46C99.7155 124.6 99.7154 124.741 99.7152 124.881C99.7153 124.959 99.7153 125.038 99.7154 125.119C99.7064 125.294 99.7064 125.294 99.6328 125.368C99.1565 125.346 98.7996 125.155 98.3828 124.936C98.2386 124.862 98.0943 124.788 97.95 124.714C97.8759 124.676 97.8019 124.638 97.7256 124.599C97.3637 124.416 96.9981 124.241 96.6319 124.067C96.5616 124.034 96.4913 124 96.4189 123.965C96.0953 123.811 95.7711 123.658 95.4457 123.508C95.3615 123.469 95.3615 123.469 95.2756 123.429C95.1737 123.382 95.0716 123.335 94.9694 123.289C94.6184 123.126 94.295 122.932 93.9711 122.721C93.9755 122.672 93.98 122.623 93.9846 122.573C94.1284 120.966 94.1897 119.395 93.9976 117.789C93.99 117.716 93.9823 117.643 93.9745 117.568C93.963 117.471 93.963 117.471 93.9512 117.372C93.9711 117.206 93.9711 117.206 94.0984 117.082C94.2557 116.991 94.4098 116.912 94.5768 116.84C94.6365 116.814 94.6962 116.787 94.7578 116.761C94.8212 116.733 94.8846 116.706 94.9499 116.677C95.4053 116.477 95.8517 116.27 96.2872 116.029C96.7689 115.764 97.2644 115.538 97.7678 115.317C98.0556 115.19 98.3401 115.061 98.6189 114.915C98.6656 114.89 98.7124 114.866 98.7605 114.841C98.8839 114.775 99.0067 114.708 99.1293 114.641C99.3675 114.548 99.4643 114.573 99.7064 114.632Z" fill="white"/>
<path d="M176.68 108.614C177.407 109.239 177.742 110.053 177.815 111.005C177.823 111.304 177.825 111.603 177.824 111.902C177.824 112.012 177.824 112.122 177.824 112.232C177.825 112.461 177.824 112.689 177.823 112.918C177.822 113.21 177.823 113.503 177.824 113.795C177.825 114.021 177.825 114.248 177.824 114.474C177.824 114.582 177.824 114.69 177.825 114.797C177.825 114.948 177.824 115.098 177.823 115.249C177.823 115.334 177.823 115.419 177.823 115.507C177.782 115.837 177.64 116.026 177.427 116.273C177.092 116.461 176.773 116.445 176.397 116.397C176.122 116.279 176.05 116.206 175.883 115.956C175.883 115.883 175.883 115.81 175.883 115.735C175.841 115.764 175.799 115.792 175.756 115.821C174.78 116.448 173.642 116.691 172.496 116.459C171.786 116.255 171.22 115.918 170.809 115.294C170.435 114.605 170.406 113.819 170.593 113.065C170.851 112.34 171.377 111.872 172.059 111.544C173.212 111.114 174.453 111.122 175.662 111.25C175.711 111.274 175.759 111.299 175.809 111.324C175.698 110.741 175.698 110.741 175.437 110.216C174.703 109.732 173.873 109.79 173.043 109.954C172.789 110.008 172.536 110.064 172.285 110.129C171.989 110.201 171.767 110.25 171.476 110.142C171.225 109.984 171.132 109.909 171.03 109.632C170.973 109.286 170.991 109.046 171.154 108.732C171.471 108.409 171.933 108.295 172.353 108.162C172.423 108.138 172.492 108.114 172.564 108.09C173.895 107.705 175.555 107.756 176.68 108.614ZM172.574 113.382C172.455 113.62 172.458 113.861 172.5 114.118C172.668 114.435 172.898 114.599 173.236 114.706C174.048 114.799 174.723 114.642 175.373 114.145C175.526 114.018 175.669 113.891 175.809 113.75C175.827 113.537 175.827 113.537 175.818 113.3C175.817 113.219 175.816 113.139 175.814 113.056C175.813 112.994 175.811 112.932 175.809 112.868C174.094 112.747 174.094 112.747 172.574 113.382Z" fill="white"/>
<path d="M121.585 107.918C121.668 107.916 121.75 107.914 121.834 107.912C122.778 107.905 123.589 108.177 124.279 108.829C125.098 109.695 125.17 110.677 125.169 111.821C125.169 111.932 125.17 112.044 125.17 112.156C125.171 112.389 125.171 112.622 125.17 112.855C125.17 113.153 125.171 113.451 125.173 113.749C125.174 113.979 125.174 114.209 125.174 114.44C125.174 114.55 125.174 114.659 125.175 114.769C125.176 114.923 125.175 115.076 125.174 115.23C125.174 115.317 125.174 115.404 125.175 115.494C125.136 115.832 125.028 116.081 124.779 116.314C124.436 116.443 124.111 116.455 123.75 116.397C123.482 116.259 123.328 116.059 123.162 115.809C123.084 115.863 123.007 115.918 122.927 115.974C122.021 116.535 120.9 116.651 119.865 116.459C119.137 116.265 118.593 115.915 118.162 115.294C117.811 114.68 117.769 113.916 117.915 113.234C118.151 112.511 118.642 111.978 119.306 111.613C120.478 111.061 121.83 111.147 123.088 111.25C123.069 110.809 123.028 110.487 122.721 110.147C121.745 109.632 120.732 109.875 119.713 110.126C119.349 110.21 119.092 110.264 118.75 110.074C118.553 109.893 118.407 109.754 118.352 109.486C118.338 109.155 118.393 108.929 118.603 108.676C118.944 108.416 119.266 108.295 119.674 108.185C119.728 108.169 119.783 108.154 119.839 108.138C120.431 107.971 120.97 107.923 121.585 107.918ZM120 113.309C119.818 113.581 119.795 113.802 119.853 114.118C120.013 114.373 120.143 114.517 120.409 114.66C121.318 114.825 122.027 114.631 122.808 114.159C123.061 113.97 123.149 113.885 123.212 113.573C123.212 113.332 123.198 113.105 123.162 112.868C121.519 112.787 121.519 112.787 120 113.309Z" fill="white"/>
<path d="M137.794 108.235C137.853 108.266 137.912 108.298 137.972 108.33C138.731 108.787 139.178 109.43 139.414 110.27C139.525 110.781 139.508 111.301 139.507 111.821C139.508 111.932 139.508 112.044 139.508 112.156C139.509 112.389 139.509 112.622 139.508 112.855C139.508 113.153 139.509 113.451 139.511 113.749C139.512 113.979 139.512 114.209 139.512 114.44C139.512 114.55 139.512 114.659 139.513 114.769C139.514 114.923 139.513 115.076 139.513 115.23C139.513 115.317 139.513 115.404 139.513 115.494C139.474 115.832 139.366 116.081 139.118 116.314C138.775 116.443 138.449 116.455 138.088 116.397C137.82 116.259 137.667 116.059 137.5 115.809C137.423 115.863 137.345 115.918 137.266 115.974C136.359 116.535 135.239 116.65 134.204 116.459C133.441 116.256 132.887 115.889 132.48 115.212C132.139 114.57 132.103 113.832 132.298 113.134C132.4 112.838 132.523 112.6 132.721 112.353C132.753 112.312 132.786 112.27 132.82 112.227C133.496 111.462 134.508 111.263 135.478 111.199C136.131 111.163 136.775 111.196 137.426 111.25C137.407 110.809 137.366 110.487 137.059 110.147C136.09 109.636 135.065 109.864 134.054 110.129C133.623 110.233 133.401 110.229 133.015 110C132.829 109.852 132.798 109.791 132.721 109.559C132.693 109.191 132.706 108.967 132.941 108.676C133.281 108.417 133.602 108.296 134.007 108.185C134.088 108.161 134.088 108.161 134.171 108.137C135.263 107.828 136.76 107.686 137.794 108.235ZM134.338 113.309C134.157 113.581 134.133 113.802 134.191 114.118C134.352 114.373 134.482 114.517 134.747 114.66C135.616 114.818 136.327 114.662 137.063 114.182C137.225 114.069 137.36 113.963 137.5 113.824C137.518 113.594 137.518 113.594 137.509 113.336C137.508 113.249 137.506 113.162 137.505 113.072C137.503 113.004 137.502 112.937 137.5 112.868C135.857 112.787 135.857 112.787 134.338 113.309Z" fill="white"/>
<path d="M157.123 108.719C158.034 109.421 158.487 110.426 158.654 111.549C158.751 112.77 158.565 114.04 157.799 115.032C157.016 115.946 156.015 116.427 154.821 116.535C153.689 116.581 152.556 116.36 151.692 115.588C151.644 115.549 151.595 115.511 151.546 115.471C150.733 114.756 150.367 113.625 150.295 112.573C150.227 111.343 150.522 110.115 151.327 109.161C152.826 107.58 155.38 107.486 157.123 108.719ZM152.755 110.447C152.262 111.094 152.131 111.85 152.206 112.647C152.33 113.316 152.562 113.823 153.089 114.265C153.699 114.655 154.298 114.683 155 114.632C155.541 114.503 156.036 114.14 156.347 113.68C156.736 112.949 156.817 112.102 156.609 111.3C156.4 110.7 155.991 110.244 155.442 109.926C154.522 109.551 153.43 109.702 152.755 110.447Z" fill="white"/>
<path d="M99.4119 105.368C99.509 105.416 99.606 105.465 99.706 105.515C99.7146 106.457 99.7211 107.4 99.7251 108.343C99.727 108.781 99.7296 109.219 99.7338 109.656C99.7378 110.079 99.74 110.501 99.7409 110.924C99.7416 111.085 99.7429 111.246 99.7449 111.407C99.7476 111.633 99.748 111.858 99.7478 112.084C99.7491 112.151 99.7504 112.218 99.7518 112.286C99.7491 112.612 99.7411 112.749 99.5347 113.013C99.3084 113.185 99.075 113.323 98.8228 113.451C98.7481 113.49 98.7481 113.49 98.6719 113.53C98.5099 113.615 98.3474 113.698 98.1849 113.782C98.0722 113.841 97.9596 113.9 97.8469 113.959C97.6759 114.048 97.5049 114.137 97.3338 114.227C96.8153 114.497 96.3002 114.773 95.786 115.051C95.7126 115.09 95.6393 115.13 95.5636 115.171C95.458 115.228 95.458 115.228 95.3503 115.286C95.282 115.322 95.2137 115.359 95.1433 115.397C94.9848 115.483 94.8278 115.571 94.6712 115.661C94.6282 115.685 94.5853 115.709 94.541 115.734C94.4198 115.802 94.2991 115.871 94.1784 115.94C93.9708 116.029 93.9708 116.029 93.8031 116.025C93.6766 115.956 93.6766 115.956 93.6087 115.829C93.594 115.775 93.5792 115.72 93.564 115.665C93.5465 115.605 93.529 115.545 93.5109 115.483C93.4928 115.421 93.4747 115.358 93.456 115.294C93.415 115.176 93.3728 115.059 93.3297 114.942C93.3082 114.883 93.2866 114.825 93.2645 114.765C93.2428 114.706 93.2211 114.647 93.1987 114.586C93.177 114.527 93.1553 114.468 93.1329 114.407C93.0342 114.139 92.9331 113.877 92.8104 113.62C92.7115 113.358 92.6878 113.27 92.7943 113.015C92.9247 112.843 93.0546 112.686 93.1987 112.528C93.2801 112.435 93.3613 112.343 93.4425 112.251C93.4827 112.206 93.5228 112.161 93.5641 112.114C93.715 111.941 93.8592 111.764 94.0029 111.586C94.3076 111.21 94.6239 110.846 94.9416 110.481C95.174 110.214 95.4023 109.944 95.6252 109.669C95.925 109.299 96.2357 108.939 96.5486 108.58C96.8107 108.28 97.0692 107.976 97.3255 107.67C97.6549 107.278 97.9973 106.9 98.3452 106.524C98.5046 106.351 98.6605 106.175 98.8145 105.997C99.0051 105.777 99.203 105.57 99.4119 105.368Z" fill="white"/>
<path d="M93.6766 123.971C94.0714 124.007 94.3678 124.11 94.7161 124.302C94.7653 124.328 94.8145 124.355 94.8652 124.382C95.0254 124.468 95.1851 124.555 95.3448 124.642C95.4563 124.702 95.5678 124.762 95.6794 124.821C95.9067 124.944 96.1337 125.066 96.3606 125.189C96.6672 125.355 96.9748 125.519 97.2827 125.683C97.4193 125.755 97.5559 125.828 97.6925 125.901C97.8174 125.967 97.9423 126.034 98.0673 126.1C99.5306 126.883 99.5306 126.883 99.706 127.059C99.713 127.289 99.7152 127.518 99.7143 127.749C99.7144 127.821 99.7144 127.894 99.7144 127.968C99.7143 128.209 99.7138 128.45 99.7132 128.691C99.713 128.857 99.7129 129.023 99.7129 129.19C99.7126 129.629 99.7119 130.068 99.711 130.506C99.7103 130.954 99.71 131.401 99.7096 131.849C99.7088 132.728 99.7075 133.607 99.706 134.485C99.6332 134.51 99.5604 134.534 99.4854 134.559C98.7207 134.098 98.0709 133.167 97.5205 132.481C97.337 132.26 97.1444 132.049 96.9486 131.838C96.6317 131.498 96.3346 131.145 96.0427 130.783C95.8841 130.59 95.7197 130.405 95.5516 130.221C95.2673 129.908 94.9991 129.586 94.7333 129.258C94.5473 129.03 94.3585 128.804 94.1683 128.58C94.1351 128.541 94.1018 128.501 94.0676 128.461C93.8823 128.242 93.6957 128.025 93.5077 127.809C93.4676 127.763 93.4276 127.717 93.3863 127.669C93.3089 127.58 93.2313 127.491 93.1533 127.402C92.7884 126.981 92.7884 126.981 92.7207 126.765C92.7463 126.428 92.9006 126.129 93.0332 125.823C93.29 125.217 93.4922 124.602 93.6766 123.971Z" fill="white"/>
<path d="M166.443 107.918C166.528 107.918 166.613 107.919 166.7 107.919C167.529 107.93 168.397 108.002 169.117 108.456C169.337 108.682 169.355 108.886 169.37 109.191C169.361 109.443 169.341 109.553 169.218 109.779C168.923 110.028 168.706 110.08 168.322 110.055C168.115 110.022 167.914 109.975 167.71 109.925C167.343 109.843 166.988 109.826 166.613 109.825C166.519 109.823 166.519 109.823 166.424 109.82C165.999 109.818 165.639 109.884 165.294 110.147C165.177 110.374 165.177 110.374 165.147 110.588C165.421 110.903 165.631 111.019 166.034 111.121C166.084 111.134 166.133 111.147 166.184 111.161C166.342 111.202 166.5 111.242 166.659 111.282C167.74 111.555 168.756 111.838 169.439 112.788C169.759 113.364 169.728 114.165 169.576 114.79C169.328 115.445 168.912 115.833 168.308 116.176C166.982 116.749 165.467 116.609 164.137 116.13C163.742 115.965 163.404 115.806 163.161 115.441C163.107 115.076 163.125 114.782 163.286 114.449C163.471 114.248 163.557 114.172 163.823 114.118C164.232 114.151 164.563 114.236 164.949 114.38C165.409 114.535 165.838 114.597 166.323 114.6C166.38 114.601 166.437 114.602 166.496 114.603C166.892 114.596 167.257 114.517 167.573 114.265C167.657 113.998 167.657 113.998 167.647 113.75C167.096 113.487 166.544 113.316 165.956 113.162C164.94 112.892 164.088 112.634 163.418 111.768C163.09 111.184 163.154 110.342 163.278 109.703C163.495 109.074 163.978 108.543 164.563 108.235C165.182 107.948 165.771 107.915 166.443 107.918Z" fill="white"/>
<path d="M144.283 127.073C145.111 127.697 145.643 128.53 145.809 129.559C145.828 129.764 145.837 129.968 145.841 130.175C145.843 130.225 145.844 130.274 145.846 130.326C145.845 130.582 145.813 130.729 145.678 130.95C145.39 131.22 145.099 131.186 144.715 131.185C144.64 131.185 144.64 131.185 144.563 131.185C144.397 131.185 144.232 131.184 144.066 131.184C143.951 131.184 143.836 131.183 143.721 131.183C143.419 131.183 143.117 131.182 142.815 131.182C142.506 131.181 142.198 131.18 141.889 131.18C141.284 131.179 140.679 131.178 140.074 131.177C140.108 131.295 140.143 131.413 140.178 131.532C140.198 131.598 140.217 131.663 140.237 131.731C140.418 132.301 140.76 132.633 141.268 132.927C141.73 133.127 142.169 133.189 142.666 133.185C142.72 133.185 142.774 133.184 142.83 133.184C143.408 133.173 143.946 133.061 144.472 132.817C144.748 132.703 144.925 132.677 145.221 132.721C145.437 132.872 145.437 132.872 145.588 133.088C145.636 133.387 145.634 133.535 145.464 133.789C144.839 134.458 143.767 134.652 142.892 134.7C141.634 134.743 140.455 134.488 139.493 133.625C138.662 132.762 138.467 131.592 138.456 130.441C138.521 129.273 138.851 128.164 139.723 127.346C140.99 126.315 142.904 126.179 144.283 127.073ZM140.666 128.443C140.263 128.873 140.074 129.252 140.074 129.853C141.481 129.853 142.888 129.853 144.338 129.853C144.174 129.031 143.99 128.57 143.299 128.099C142.429 127.563 141.388 127.767 140.666 128.443Z" fill="white"/>
<path d="M124.15 127.204C125.136 127.984 125.514 129.011 125.662 130.221C125.757 131.389 125.467 132.553 124.706 133.456C123.914 134.303 122.987 134.642 121.842 134.703C120.623 134.731 119.643 134.371 118.758 133.546C117.911 132.668 117.715 131.465 117.721 130.294C117.795 129.204 118.183 128.168 118.985 127.404C120.397 126.231 122.648 126.172 124.15 127.204ZM119.927 128.603C119.338 129.307 119.194 130.13 119.265 131.029C119.342 131.633 119.572 132.207 120 132.647C120.715 133.195 121.395 133.327 122.28 133.235C122.962 133.074 123.431 132.684 123.8 132.096C124.212 131.316 124.23 130.413 124.003 129.573C123.786 128.947 123.446 128.497 122.875 128.16C121.92 127.716 120.674 127.821 119.927 128.603Z" fill="white"/>
<path d="M152.647 127.059C152.774 127.313 152.755 127.589 152.72 127.868C152.572 128.095 152.482 128.148 152.22 128.212C151.968 128.237 151.817 128.203 151.576 128.13C150.724 127.919 149.648 127.814 148.871 128.28C148.645 128.471 148.603 128.599 148.57 128.892C148.553 129.043 148.553 129.043 148.603 129.191C148.867 129.458 149.133 129.556 149.49 129.66C149.54 129.675 149.59 129.69 149.642 129.705C149.81 129.755 149.978 129.804 150.147 129.853C150.34 129.909 150.533 129.965 150.726 130.022C150.851 130.058 150.977 130.094 151.102 130.13C151.633 130.285 152.128 130.468 152.523 130.869C152.569 130.914 152.616 130.96 152.664 131.008C152.978 131.416 153.053 131.809 153.046 132.307C153.046 132.362 153.045 132.417 153.045 132.473C153.029 133.019 152.9 133.395 152.541 133.81C152.448 133.889 152.448 133.889 152.353 133.971C152.298 134.021 152.243 134.071 152.187 134.122C151.292 134.753 150.172 134.783 149.117 134.632C147.417 134.287 147.417 134.287 147.058 133.75C147.009 133.437 147.003 133.173 147.178 132.904C147.395 132.767 147.537 132.74 147.794 132.721C147.988 132.771 148.164 132.825 148.35 132.895C148.901 133.095 149.365 133.176 149.949 133.18C150.009 133.182 150.069 133.183 150.131 133.185C150.626 133.188 151.052 133.119 151.433 132.776C151.578 132.51 151.598 132.357 151.544 132.059C151.167 131.734 150.72 131.636 150.248 131.507C150.089 131.462 149.93 131.417 149.771 131.372C149.658 131.34 149.658 131.34 149.543 131.308C148.695 131.068 147.765 130.801 147.279 130C147.032 129.404 147.025 128.665 147.21 128.049C147.54 127.34 147.994 126.941 148.721 126.671C149.86 126.325 151.64 126.359 152.647 127.059Z" fill="white"/>
<path d="M127.229 126.59C127.285 126.586 127.34 126.583 127.398 126.579C127.657 126.636 127.789 126.777 127.941 126.985C128.084 127.273 128.197 127.57 128.31 127.87C128.361 128.001 128.361 128.001 128.413 128.135C128.504 128.368 128.593 128.6 128.682 128.834C128.771 129.065 128.86 129.297 128.95 129.528C129.055 129.798 129.159 130.069 129.263 130.339C129.551 131.087 129.847 131.831 130.147 132.573C130.526 131.656 130.9 130.737 131.259 129.811C131.284 129.744 131.31 129.678 131.337 129.609C131.466 129.276 131.595 128.943 131.723 128.61C132.39 126.877 132.39 126.877 132.794 126.618C133.022 126.565 133.227 126.568 133.456 126.618C133.748 126.856 133.748 126.856 133.823 127.059C133.854 127.519 133.78 127.834 133.597 128.253C133.572 128.31 133.548 128.368 133.523 128.427C133.444 128.616 133.362 128.805 133.281 128.994C133.225 129.126 133.169 129.259 133.113 129.391C132.995 129.67 132.876 129.949 132.757 130.228C132.571 130.665 132.39 131.104 132.209 131.543C132.12 131.757 132.031 131.972 131.943 132.186C131.886 132.324 131.829 132.462 131.772 132.6C131.692 132.794 131.612 132.987 131.531 133.18C131.508 133.237 131.485 133.293 131.461 133.352C131.069 134.287 131.069 134.287 130.662 134.559C130.259 134.649 129.967 134.629 129.572 134.52C129.076 134.185 128.884 133.471 128.672 132.941C128.616 132.803 128.56 132.666 128.503 132.528C128.462 132.426 128.42 132.323 128.378 132.221C128.085 131.501 127.784 130.783 127.485 130.065C127.386 129.828 127.287 129.591 127.189 129.354C127.127 129.206 127.065 129.057 127.003 128.909C126.975 128.841 126.947 128.773 126.918 128.704C126.801 128.424 126.684 128.145 126.563 127.868C126.434 127.56 126.433 127.39 126.471 127.059C126.685 126.723 126.837 126.607 127.229 126.59Z" fill="white"/>
<path d="M161.323 104.706C161.544 104.838 161.721 104.986 161.838 105.221C161.845 105.359 161.848 105.498 161.849 105.637C161.849 105.726 161.85 105.815 161.85 105.906C161.85 106.005 161.851 106.103 161.851 106.202C161.851 106.306 161.852 106.409 161.852 106.513C161.854 106.795 161.854 107.077 161.855 107.359C161.855 107.535 161.856 107.711 161.856 107.887C161.858 108.439 161.859 108.99 161.859 109.541C161.86 110.177 161.862 110.813 161.865 111.45C161.867 111.941 161.868 112.433 161.869 112.925C161.869 113.218 161.869 113.512 161.871 113.806C161.873 114.082 161.873 114.359 161.872 114.635C161.872 114.736 161.873 114.838 161.874 114.939C161.883 115.892 161.883 115.892 161.544 116.25C161.242 116.44 160.914 116.502 160.565 116.434C160.224 116.295 160.088 116.132 159.926 115.809C159.919 115.671 159.916 115.533 159.915 115.395C159.915 115.307 159.914 115.219 159.914 115.128C159.913 115.03 159.913 114.932 159.913 114.834C159.913 114.731 159.912 114.628 159.912 114.525C159.91 114.245 159.91 113.965 159.909 113.685C159.909 113.51 159.908 113.335 159.908 113.16C159.906 112.613 159.905 112.066 159.905 111.519C159.904 110.887 159.902 110.255 159.899 109.623C159.897 109.135 159.896 108.647 159.895 108.158C159.895 107.867 159.895 107.575 159.893 107.283C159.891 107.009 159.891 106.735 159.891 106.46C159.892 106.312 159.89 106.163 159.889 106.015C159.893 105.198 159.893 105.198 160.22 104.853C160.579 104.595 160.91 104.582 161.323 104.706Z" fill="white"/>
<path d="M130.873 107.9C130.953 107.897 130.953 107.897 131.035 107.894C131.33 107.896 131.456 107.929 131.686 108.119C131.962 108.462 132.024 108.668 131.985 109.118C131.866 109.427 131.756 109.61 131.471 109.779C131.232 109.818 131.232 109.818 130.956 109.839C130.398 109.895 129.972 110.087 129.485 110.368C129.431 110.393 129.376 110.419 129.319 110.446C129.151 110.536 129.119 110.637 129.044 110.809C128.996 110.857 128.947 110.906 128.897 110.956C128.875 111.167 128.875 111.167 128.88 111.418C128.879 111.465 128.879 111.513 128.879 111.561C128.879 111.664 128.879 111.767 128.879 111.87C128.88 112.034 128.879 112.197 128.878 112.36C128.875 112.824 128.874 113.288 128.875 113.752C128.875 114.036 128.874 114.32 128.871 114.604C128.871 114.712 128.871 114.82 128.872 114.928C128.878 115.88 128.878 115.88 128.646 116.168C128.329 116.427 128.104 116.422 127.704 116.418C127.422 116.389 127.266 116.294 127.059 116.103C126.934 115.896 126.893 115.743 126.893 115.502C126.892 115.442 126.892 115.381 126.891 115.319C126.891 115.253 126.892 115.188 126.892 115.12C126.891 115.05 126.891 114.98 126.891 114.908C126.89 114.678 126.89 114.447 126.89 114.217C126.889 114.056 126.889 113.896 126.889 113.736C126.888 113.4 126.888 113.064 126.889 112.728C126.889 112.298 126.888 111.867 126.886 111.436C126.885 111.105 126.885 110.775 126.885 110.444C126.885 110.285 126.885 110.126 126.884 109.967C126.883 109.745 126.884 109.523 126.885 109.301C126.884 109.236 126.883 109.17 126.883 109.103C126.886 108.752 126.906 108.521 127.132 108.235C127.423 107.972 127.738 107.974 128.113 107.984C128.425 108.033 128.542 108.147 128.75 108.382C128.802 108.479 128.851 108.577 128.897 108.676C128.965 108.61 129.034 108.543 129.104 108.474C129.632 108.031 130.199 107.915 130.873 107.9Z" fill="white"/>
<path d="M135.979 126.59C136.035 126.586 136.091 126.583 136.148 126.579C136.423 126.639 136.52 126.765 136.692 126.985C136.745 127.218 136.742 127.445 136.739 127.683C136.74 127.787 136.74 127.787 136.741 127.894C136.743 128.124 136.742 128.354 136.74 128.585C136.741 128.745 136.741 128.905 136.741 129.065C136.742 129.4 136.741 129.736 136.74 130.071C136.737 130.501 136.739 130.931 136.741 131.361C136.742 131.692 136.742 132.023 136.741 132.353C136.741 132.512 136.741 132.67 136.742 132.829C136.743 133.051 136.741 133.272 136.739 133.494C136.74 133.559 136.741 133.625 136.741 133.692C136.736 134.018 136.724 134.15 136.516 134.414C136.311 134.568 136.211 134.626 135.956 134.632C135.674 134.564 135.477 134.495 135.295 134.265C135.17 134.016 135.209 133.733 135.208 133.459C135.208 133.39 135.207 133.322 135.207 133.252C135.205 133.025 135.204 132.799 135.203 132.572C135.203 132.495 135.203 132.417 135.203 132.338C135.201 131.929 135.2 131.52 135.199 131.111C135.198 130.688 135.196 130.265 135.193 129.842C135.191 129.518 135.191 129.193 135.19 128.868C135.19 128.712 135.189 128.556 135.188 128.4C135.186 128.182 135.186 127.964 135.186 127.746C135.186 127.682 135.185 127.617 135.184 127.551C135.186 127.249 135.197 127.097 135.361 126.837C135.571 126.639 135.697 126.602 135.979 126.59Z" fill="white"/>
<path d="M136.609 123.672C136.842 123.899 136.855 124.043 136.866 124.361C136.865 124.673 136.859 124.753 136.664 125.009C136.327 125.25 136.069 125.259 135.662 125.221C135.355 125.093 135.206 124.938 135.074 124.632C135.035 124.264 135.066 124.044 135.295 123.75C135.694 123.389 136.154 123.366 136.609 123.672Z" fill="white"/>
<path d="M91.7646 104.559C91.9117 104.632 91.9117 104.632 91.9117 104.632L91.7646 104.559Z" fill="white"/>
</svg>
