<svg width="117" height="32" viewBox="0 0 117 32" fill="none" xmlns="http://www.w3.org/2000/svg">
<path d="M16.8679 0.191178C16.9583 0.19241 17.0487 0.193642 17.1419 0.194912C18.5927 0.253279 20.0581 0.60101 21.4267 1.07353C21.4819 1.09226 21.537 1.11099 21.5938 1.13029C23.8737 1.9179 25.8409 3.34973 27.5296 5.04412C27.5701 5.08203 27.6106 5.11995 27.6523 5.15901C27.946 5.4369 28.1969 5.74085 28.4442 6.05974C28.4772 6.10206 28.5103 6.14439 28.5443 6.18799C28.7796 6.49646 28.7796 6.49646 28.7796 6.66177C28.8282 6.66177 28.8767 6.66177 28.9267 6.66177C29.033 6.80509 29.033 6.80509 29.1565 7.00643C29.2023 7.08075 29.248 7.15506 29.2952 7.23162C29.3676 7.34991 29.3676 7.34991 29.4414 7.47059C29.5126 7.58205 29.5126 7.58205 29.5853 7.69577C30.3957 8.97457 30.99 10.3399 31.3848 11.8011C31.4243 11.9471 31.4657 12.0925 31.5071 12.2379C32.4063 15.5565 32.0397 19.453 30.5443 22.5441C30.5015 22.6392 30.4589 22.7344 30.4165 22.8296C29.9765 23.8079 29.443 24.7145 28.7796 25.5588C28.7402 25.6134 28.7008 25.668 28.6602 25.7243C28.6207 25.7789 28.5813 25.8335 28.5407 25.8897C28.5054 25.939 28.4701 25.9883 28.4338 26.0391C28.4024 26.0747 28.3709 26.1103 28.3385 26.1471C28.2899 26.1471 28.2414 26.1471 28.1914 26.1471C28.1733 26.1885 28.1552 26.2299 28.1365 26.2726C27.7206 27.0332 26.912 27.7172 26.2061 28.2059C26.1518 28.2619 26.0975 28.3179 26.0415 28.3756C25.8079 28.6033 25.561 28.7818 25.2916 28.9642C25.2398 28.9994 25.188 29.0346 25.1346 29.0709C24.6484 29.3979 24.1499 29.695 23.6326 29.9706C23.5871 29.9949 23.5417 30.0193 23.4949 30.0443C19.867 31.9687 15.4784 32.3819 11.539 31.226C9.86417 30.708 8.29705 29.9578 6.86788 28.9412C6.79527 28.8904 6.72267 28.8396 6.64786 28.7872C6.30057 28.5403 5.98502 28.2957 5.69141 27.9853C5.61084 27.9187 5.52963 27.8528 5.44784 27.7877C5.38263 27.7316 5.31742 27.6755 5.25023 27.6176C5.25023 27.5691 5.25023 27.5206 5.25023 27.4706C5.20615 27.4513 5.16208 27.4321 5.11667 27.4123C4.94651 27.3182 4.86077 27.2307 4.74012 27.08C4.6124 26.9217 4.48325 26.7772 4.33887 26.6333C1.58679 23.873 0.310782 19.8568 0.222656 16.0368C0.300152 12.8045 1.14483 9.48137 3.14918 6.88781C3.23257 6.77795 3.31326 6.66602 3.39218 6.55291C3.79421 5.97846 4.25007 5.47413 4.73552 4.97059C4.77313 4.93137 4.81073 4.89216 4.84948 4.85175C5.32129 4.36195 5.80627 3.90639 6.35317 3.5C6.39086 3.47179 6.42855 3.44358 6.46738 3.41452C8.28788 2.05841 10.3653 1.0071 12.6032 0.558825C12.6655 0.546053 12.7279 0.533281 12.7921 0.520121C14.1572 0.244358 15.4768 0.167233 16.8679 0.191178ZM8.9267 3.79412C8.88232 3.81996 8.83793 3.8458 8.79221 3.87242C7.84018 4.43551 6.97669 5.13458 6.20611 5.92647C5.83846 6.29412 5.83846 6.29412 5.7244 6.40398C5.40507 6.715 5.12415 7.04204 4.85501 7.39706C4.81371 7.45146 4.77242 7.50586 4.72987 7.56191C4.34767 8.07324 4.01188 8.60172 3.70611 9.16177C3.66879 9.22974 3.66879 9.22974 3.63072 9.29909C2.0995 12.1266 1.55646 15.4108 2.16199 18.5735C2.17852 18.6609 2.17852 18.6609 2.19538 18.7501C2.34517 19.5214 2.54915 20.2631 2.82376 21C2.84145 21.0484 2.85914 21.0968 2.87736 21.1466C3.60158 23.1013 4.83296 24.7752 6.28883 26.2482C6.32976 26.2898 6.37069 26.3314 6.41286 26.3743C6.60448 26.5921 6.60448 26.5921 6.86788 26.6618C6.86788 26.7103 6.86788 26.7588 6.86788 26.8088C7.04115 26.9534 7.21485 27.0889 7.39637 27.2224C7.4498 27.2621 7.50324 27.3017 7.55829 27.3425C8.0236 27.6837 8.503 27.9866 9.00023 28.2794C9.09463 28.341 9.09463 28.341 9.19095 28.4038C10.3945 29.1666 11.8063 29.6058 13.1914 29.8971C13.294 29.9197 13.3965 29.9424 13.499 29.9651C17.0359 30.7167 20.8513 29.8267 23.8618 27.8822C24.6181 27.3824 25.2955 26.8049 25.9494 26.1786C26.0504 26.0819 26.1522 25.986 26.2541 25.8903C27.0175 25.1545 27.6385 24.308 28.1884 23.4045C28.2611 23.2856 28.3359 23.168 28.4108 23.0505C29.1038 21.9154 29.6001 20.6068 29.8826 19.3088C29.9091 19.1926 29.9356 19.0764 29.9621 18.9601C29.9894 18.8374 30.0165 18.7147 30.0434 18.5919C30.0557 18.5363 30.068 18.4807 30.0807 18.4233C30.3884 16.9574 30.3947 15.262 30.1032 13.7941C30.0897 13.7251 30.0763 13.6561 30.0624 13.585C29.692 11.7375 29.0624 10.0182 28.0443 8.42647C28.0025 8.35898 27.9606 8.2915 27.9174 8.22197C27.5521 7.65067 27.1307 7.14476 26.6823 6.63848C26.5677 6.50784 26.4557 6.37522 26.3437 6.24242C26.1899 6.06262 26.034 5.89965 25.8523 5.74724C25.64 5.56719 25.4326 5.38356 25.2273 5.19577C24.5361 4.58351 23.7686 4.10498 22.9708 3.64706C22.9055 3.60894 22.9055 3.60894 22.8388 3.57005C21.576 2.8384 20.21 2.37625 18.7796 2.10294C18.7167 2.0909 18.6537 2.07887 18.5889 2.06646C15.2857 1.46533 11.8195 2.10386 8.9267 3.79412Z" fill="#DD3619"/>
<path d="M45.6222 1.28492C45.9116 1.53788 46.0372 1.82463 46.1843 2.17072C46.2221 2.25781 46.2221 2.25781 46.2607 2.34666C46.5652 3.05343 46.8497 3.76837 47.1339 4.48345C47.1922 4.62959 47.2505 4.77571 47.3089 4.92183C47.4605 5.30172 47.6119 5.68172 47.7631 6.06176C48.0069 6.67401 48.2512 7.28606 48.4954 7.89814C48.5804 8.11131 48.6653 8.32451 48.7502 8.53773C48.8018 8.66723 48.8534 8.79674 48.905 8.92624C48.9286 8.98551 48.9522 9.04478 48.9764 9.10585C49.0905 9.39468 49.0905 9.39468 49.2206 9.67647C49.2445 9.61626 49.2445 9.61626 49.2689 9.55483C49.6577 8.5768 50.0475 7.59914 50.4382 6.62189C50.6272 6.14928 50.8158 5.67655 51.0037 5.20353C51.1851 4.74697 51.3673 4.29076 51.5501 3.83476C51.6197 3.6608 51.6889 3.48672 51.7579 3.31252C51.8546 3.06841 51.9524 2.82474 52.0503 2.58113C52.0786 2.50915 52.1068 2.43717 52.1359 2.363C52.3282 1.88914 52.5178 1.52219 52.9545 1.2315C53.2512 1.12564 53.5038 1.11454 53.8161 1.11948C53.8701 1.11863 53.924 1.11778 53.9796 1.1169C54.3846 1.11907 54.6941 1.19595 55.0032 1.47794C55.2581 1.80522 55.3326 2.01558 55.3338 2.42473C55.3342 2.50678 55.3347 2.58884 55.3351 2.67339C55.3352 2.8085 55.3352 2.8085 55.3353 2.94634C55.3357 3.04116 55.3361 3.13599 55.3365 3.23369C55.3374 3.49393 55.3379 3.75417 55.3382 4.01442C55.3384 4.17702 55.3387 4.33962 55.3391 4.50221C55.3401 5.01098 55.3408 5.51975 55.3411 6.02853C55.3414 6.61578 55.3427 7.20302 55.3448 7.79026C55.3464 8.24425 55.3471 8.69823 55.3472 9.15222C55.3473 9.42334 55.3478 9.69446 55.3491 9.96558C55.3505 10.268 55.3502 10.5704 55.3497 10.8729C55.3504 10.9626 55.3511 11.0524 55.3518 11.1449C55.3511 11.2686 55.3511 11.2686 55.3505 11.3948C55.3506 11.4663 55.3507 11.5378 55.3508 11.6115C55.3099 11.9067 55.1797 12.1013 54.9691 12.3074C54.6485 12.4867 54.2807 12.4491 53.9264 12.3971C53.6891 12.2768 53.5323 12.1235 53.4117 11.8823C53.4042 11.7846 53.401 11.6864 53.4001 11.5883C53.399 11.4961 53.399 11.4961 53.3979 11.4021C53.3975 11.3346 53.3971 11.267 53.3966 11.1974C53.3959 11.1264 53.3952 11.0554 53.3944 10.9822C53.3921 10.7467 53.3903 10.5112 53.3885 10.2756C53.387 10.1126 53.3854 9.94963 53.3838 9.78663C53.3798 9.35702 53.3761 8.92741 53.3726 8.49779C53.3689 8.05965 53.3648 7.6215 53.3608 7.18336C53.3528 6.32322 53.3454 5.46308 53.3382 4.60294C53.3071 4.68028 53.3071 4.68028 53.2753 4.75919C52.7212 6.1365 52.1661 7.51344 51.6098 8.8899C51.5412 9.05983 51.4725 9.22978 51.4039 9.39974C51.2537 9.77185 51.1031 10.1438 50.9514 10.5153C50.91 10.6169 50.8688 10.7185 50.8278 10.8201C50.7723 10.9576 50.7161 11.0949 50.6598 11.2321C50.63 11.3055 50.6001 11.3789 50.5693 11.4545C50.3764 11.8595 50.1756 12.2189 49.7399 12.3744C49.3312 12.4872 48.9491 12.5063 48.5588 12.3235C48.0547 12.008 47.8826 11.5907 47.6764 11.0505C47.6218 10.9132 47.5671 10.7758 47.5123 10.6384C47.4472 10.4747 47.3829 10.3108 47.3185 10.1468C47.1292 9.66596 46.9353 9.187 46.7415 8.70795C46.7038 8.61461 46.666 8.52128 46.6283 8.42795C46.571 8.28622 46.5137 8.1445 46.4563 8.00278C46.3238 7.67493 46.1915 7.34692 46.0595 7.01884C46.0235 6.9294 45.9875 6.83996 45.9504 6.74781C45.8827 6.57966 45.8151 6.41149 45.7475 6.24331C45.5366 5.71936 45.3213 5.19735 45.1029 4.67647C45.1026 4.76484 45.1024 4.85322 45.1021 4.94427C45.0994 5.77734 45.0951 6.61039 45.0894 7.44344C45.0865 7.87172 45.0841 8.29998 45.083 8.72827C45.0819 9.14163 45.0793 9.55496 45.0758 9.96831C45.0747 10.126 45.0742 10.2836 45.0741 10.4413C45.0739 10.6622 45.0719 10.8831 45.0695 11.104C45.0699 11.1691 45.0703 11.2342 45.0706 11.3013C45.0639 11.701 45.0041 11.9347 44.7353 12.25C44.3907 12.4797 44.0354 12.4482 43.6323 12.3971C43.4103 12.3023 43.35 12.2259 43.1911 12.0294C43.0127 11.5675 43.0233 11.1192 43.0251 10.6286C43.0248 10.5406 43.0245 10.4525 43.0243 10.3618C43.0237 10.1214 43.0239 9.88111 43.0243 9.64077C43.0247 9.38845 43.0244 9.13613 43.0241 8.88381C43.0239 8.46011 43.0242 8.03641 43.0249 7.61271C43.0257 7.12398 43.0255 6.63527 43.0246 6.14655C43.024 5.72584 43.0239 5.30513 43.0243 4.88442C43.0245 4.63363 43.0245 4.38285 43.024 4.13207C43.0237 3.85225 43.0242 3.57245 43.0251 3.29264C43.0248 3.21031 43.0245 3.12797 43.0242 3.04315C43.0302 1.92952 43.0302 1.92952 43.3979 1.5239C43.4333 1.48314 43.4687 1.44238 43.5051 1.40039C43.9992 0.987683 45.0581 0.990494 45.6222 1.28492Z" fill="white"/>
<path d="M44.3536 19.7316C44.406 19.7301 44.4584 19.7286 44.5123 19.727C44.8491 19.7245 45.0595 19.7588 45.3233 19.9706C45.5357 20.2136 45.6764 20.4388 45.7978 20.7372C45.8306 20.817 45.8633 20.8967 45.8971 20.9789C45.9322 21.0663 45.9673 21.1536 46.0034 21.2436C46.0418 21.3377 46.0802 21.4318 46.1186 21.5259C46.2467 21.8404 46.3733 22.1554 46.4998 22.4706C46.522 22.526 46.5443 22.5814 46.5672 22.6385C46.7828 23.1757 46.9979 23.713 47.2123 24.2506C47.5956 25.2117 47.9821 26.1714 48.3702 27.1305C48.3978 27.1987 48.4253 27.267 48.4537 27.3372C48.5314 27.5293 48.6092 27.7214 48.687 27.9135C48.7102 27.9709 48.7334 28.0284 48.7574 28.0876C48.8713 28.3706 48.8713 28.3706 48.9998 28.6471C49.0292 28.5741 49.0292 28.5741 49.0592 28.4997C49.1196 28.3497 49.1801 28.1997 49.2406 28.0497C49.3133 27.8694 49.386 27.689 49.4586 27.5087C49.6422 27.0533 49.8259 26.5978 50.0099 26.1425C50.116 25.8802 50.2219 25.6178 50.3279 25.3555C50.3492 25.3026 50.3706 25.2498 50.3926 25.1954C50.676 24.4932 50.9568 23.7901 51.2346 23.0857C51.3556 22.7796 51.4773 22.4737 51.5989 22.1678C51.6643 22.0028 51.7292 21.8376 51.7937 21.6722C51.8834 21.4423 51.9745 21.2131 52.0659 20.9839C52.0916 20.917 52.1172 20.8501 52.1437 20.7812C52.3093 20.3709 52.4828 20.1095 52.8233 19.8235C53.086 19.736 53.3046 19.7349 53.5816 19.7316C53.6768 19.7297 53.7721 19.7278 53.8702 19.7259C54.2575 19.7597 54.4807 19.8545 54.7453 20.1409C54.9757 20.5044 54.9236 20.9386 54.9213 21.3537C54.922 21.4486 54.9226 21.5435 54.9233 21.6412C54.9249 21.9005 54.9247 22.1598 54.9241 22.4191C54.9237 22.6359 54.9242 22.8526 54.9247 23.0693C54.926 23.5806 54.9257 24.0918 54.9245 24.6031C54.9233 25.1302 54.9244 25.6573 54.9268 26.1844C54.9288 26.6374 54.9293 27.0905 54.9287 27.5435C54.9283 27.8139 54.9285 28.0843 54.93 28.3547C54.9316 28.6561 54.9302 28.9573 54.9285 29.2587C54.9298 29.3929 54.9298 29.3929 54.9311 29.5297C54.9235 30.2024 54.9235 30.2024 54.7069 30.4302C54.4992 30.569 54.3944 30.6087 54.1468 30.6048C54.0862 30.6057 54.0255 30.6067 53.963 30.6077C53.6833 30.5334 53.5869 30.4222 53.4115 30.1912C53.3563 29.9234 53.3608 29.6593 53.363 29.3867C53.3623 29.3056 53.3615 29.2245 53.3607 29.141C53.3586 28.8732 53.3591 28.6055 53.3595 28.3377C53.3586 28.152 53.3575 27.9662 53.3562 27.7804C53.3535 27.3417 53.3525 26.9029 53.3523 26.4641C53.352 25.9644 53.3495 25.4647 53.3469 24.9651C53.3417 23.9375 53.339 22.9099 53.338 21.8824C52.4101 24.144 52.4101 24.144 51.4935 26.4102C51.4739 26.4589 51.4543 26.5076 51.4341 26.5578C51.2596 26.9925 51.0852 27.4272 50.9111 27.8621C50.813 28.1071 50.7147 28.3521 50.6162 28.597C50.5626 28.7305 50.5092 28.8641 50.4559 28.9977C49.9251 30.3168 49.9251 30.3168 49.4409 30.5588C49.0823 30.668 48.7539 30.6311 48.4115 30.4853C48.0165 30.2388 47.8998 29.925 47.7337 29.5096C47.7055 29.4415 47.6773 29.3734 47.6483 29.3032C47.5584 29.0849 47.4701 28.8661 47.3821 28.6471C47.3252 28.5067 47.2682 28.3663 47.2112 28.2259C47.0336 27.7864 46.8585 27.3459 46.6836 26.9053C46.5665 26.6109 46.4493 26.3165 46.332 26.0221C46.3017 25.946 46.2714 25.8698 46.2401 25.7914C45.7193 24.4862 45.1895 23.1846 44.6615 21.8824C44.6615 21.9461 44.6615 21.9461 44.6614 22.0111C44.6603 23.0452 44.6572 24.0792 44.6518 25.1133C44.6493 25.6134 44.6474 26.1134 44.6472 26.6135C44.6469 27.096 44.6448 27.5785 44.6414 28.061C44.6405 28.2452 44.6402 28.4294 44.6405 28.6135C44.6409 28.8713 44.6389 29.129 44.6365 29.3867C44.6371 29.4631 44.6378 29.5395 44.6384 29.6181C44.6328 29.9688 44.6298 30.1362 44.4126 30.4222C44.1459 30.6117 43.9778 30.6111 43.66 30.595C43.3894 30.539 43.2734 30.4126 43.1174 30.1912C43.0428 29.9655 43.0343 29.7568 43.0336 29.52C43.0331 29.4438 43.0327 29.3677 43.0323 29.2892C43.0322 29.206 43.0321 29.1229 43.032 29.0372C43.0315 28.9053 43.0315 28.9053 43.0309 28.7708C43.03 28.5298 43.0295 28.2889 43.0292 28.0479C43.029 27.8971 43.0286 27.7464 43.0283 27.5956C43.0273 27.1233 43.0266 26.6509 43.0263 26.1786C43.026 25.6346 43.0247 25.0905 43.0226 24.5465C43.021 24.1252 43.0202 23.7039 43.0201 23.2827C43.0201 23.0314 43.0196 22.7802 43.0183 22.5289C43.0171 22.2482 43.0172 21.9676 43.0177 21.6868C43.017 21.6044 43.0163 21.522 43.0156 21.4371C43.0181 20.9697 43.0515 20.5415 43.2645 20.1176C43.6169 19.7738 43.877 19.735 44.3536 19.7316Z" fill="white"/>
<path d="M84.4138 3.90901C84.4778 3.90826 84.5418 3.90751 84.6077 3.90675C85.6077 3.92014 86.505 4.34444 87.2306 5.02459C88.2663 6.16022 88.4177 7.46715 88.3553 8.9405C88.2748 9.99637 87.7473 10.8952 86.9919 11.6204C86.134 12.331 85.108 12.596 84.0105 12.526C83.2908 12.4444 82.7747 12.251 82.1619 11.8824C82.1615 11.9248 82.1611 11.9673 82.1606 12.0111C82.1559 12.4536 82.1497 12.8961 82.1426 13.3387C82.1402 13.5038 82.1381 13.6689 82.1365 13.834C82.134 14.0715 82.1301 14.3089 82.126 14.5464C82.1253 14.6569 82.1253 14.6569 82.1246 14.7697C82.111 15.4182 82.111 15.4182 81.8678 15.7059C81.5448 15.9188 81.2954 15.9676 80.9119 15.9265C80.6128 15.8209 80.409 15.6922 80.2373 15.4208C80.0934 15.0506 80.1368 14.6334 80.1397 14.2417C80.1395 14.1372 80.1391 14.0327 80.1385 13.9282C80.1375 13.6452 80.1383 13.3622 80.1396 13.0792C80.1406 12.7827 80.1401 12.4862 80.1398 12.1897C80.1396 11.6919 80.1406 11.1942 80.1423 10.6964C80.1443 10.1212 80.1444 9.54599 80.1436 8.97075C80.1428 8.41695 80.1432 7.86315 80.1443 7.30935C80.1447 7.07385 80.1447 6.83835 80.1443 6.60284C80.144 6.32551 80.1447 6.04821 80.1463 5.77088C80.1467 5.66918 80.1468 5.56749 80.1464 5.46579C80.1459 5.32684 80.147 5.18789 80.1481 5.04895C80.1483 4.97123 80.1485 4.89352 80.1487 4.81346C80.1898 4.50388 80.3151 4.30973 80.5443 4.10202C80.8865 3.96655 81.2112 3.95738 81.5737 4.01471C81.7788 4.11506 81.861 4.20416 82.0149 4.38235C82.0626 4.54205 82.0626 4.54205 82.0884 4.67647C82.1259 4.64804 82.1635 4.6196 82.2021 4.5903C82.907 4.08541 83.555 3.9161 84.4138 3.90901ZM82.0884 6.73529C82.0579 7.14489 82.0496 7.55454 82.0425 7.96514C82.0394 8.10331 82.0349 8.24145 82.0289 8.37953C81.9686 9.17718 81.9686 9.17718 82.2432 9.89532C82.4313 10.0486 82.6055 10.1595 82.8237 10.2647C82.8869 10.2973 82.9501 10.3299 83.0152 10.3635C83.6099 10.6581 84.287 10.7392 84.9357 10.5847C85.4826 10.3868 85.9496 10.0601 86.2336 9.5432C86.5864 8.73627 86.6021 7.82183 86.2856 7.00155C86.186 6.78681 86.186 6.78681 86.059 6.58824C85.9862 6.56397 85.9134 6.53971 85.8384 6.51471C85.8384 6.46618 85.8384 6.41765 85.8384 6.36765C85.3039 5.92165 84.763 5.73996 84.0705 5.75701C83.3079 5.83559 82.6302 6.19346 82.0884 6.73529Z" fill="white"/>
<path d="M10.6914 19.1618C10.9752 19.2029 11.1019 19.3259 11.2996 19.5278C11.361 19.59 11.4224 19.6521 11.4857 19.7162C11.5847 19.8179 11.5847 19.8179 11.6858 19.9218C11.7554 19.9923 11.825 20.0628 11.8947 20.1332C12.1531 20.3946 12.4103 20.6571 12.6675 20.9196C13.8898 22.1771 13.8898 22.1771 15.2502 23.2794C15.304 23.3189 15.3577 23.3584 15.4131 23.3991C16.0787 23.8803 16.7858 24.2592 17.5296 24.6029C17.6134 24.6422 17.6972 24.6814 17.7835 24.7219C20.1567 25.787 22.4731 25.8227 25.0296 25.7794C25.0296 26.0735 25.0296 26.0735 24.8863 26.2237C24.044 26.8834 23.1809 27.4837 22.2355 27.9853C22.114 28.0498 22.114 28.0498 21.9899 28.1157C20.7856 28.7145 19.4501 29.1259 18.1179 29.3088C18.0171 29.323 18.0171 29.323 17.9142 29.3375C17.7368 29.3588 17.561 29.3723 17.3826 29.3824C17.31 29.3879 17.2374 29.3935 17.1626 29.3993C16.6956 29.4208 16.3966 29.3785 16.0097 29.1095C15.9613 29.0626 15.9613 29.0626 15.912 29.0147C15.912 28.9662 15.912 28.9176 15.912 28.8676C15.8619 28.8525 15.8119 28.8373 15.7603 28.8217C15.477 28.689 15.2445 28.5073 15.0296 28.2794C15.0296 28.2309 15.0296 28.1824 15.0296 28.1324C14.9907 28.1173 14.9517 28.1022 14.9116 28.0867C14.6598 27.9417 14.4742 27.7457 14.2714 27.5395C14.2074 27.4749 14.2074 27.4749 14.1421 27.4089C13.8212 27.0806 13.5333 26.7403 13.2649 26.3676C13.2193 26.3077 13.1738 26.2478 13.1268 26.1861C11.6548 24.2274 10.5597 21.6501 10.6914 19.1618Z" fill="#D92718"/>
<path d="M12.9707 10.6324C12.8653 10.9307 12.7598 11.0668 12.5077 11.2614C12.3651 11.3824 12.2503 11.5143 12.1297 11.6572C11.9284 11.894 11.7165 12.0901 11.4769 12.2871C11.3483 12.4013 11.2419 12.5218 11.1325 12.6544C10.986 12.832 10.837 12.9816 10.6591 13.1278C10.4232 13.3236 10.228 13.5371 10.0301 13.7709C9.88829 13.9345 9.74081 14.0916 9.59171 14.2486C9.14351 14.7241 8.76556 15.229 8.4119 15.7794C8.37128 15.8412 8.37128 15.8412 8.32983 15.9042C7.58865 17.0372 7.0752 18.2992 6.72073 19.6029C6.70043 19.6744 6.70043 19.6744 6.67972 19.7473C6.20178 21.4501 6.23183 23.2211 6.35308 24.9706C6.05896 24.9706 6.05896 24.9706 5.90874 24.8273C4.20229 22.6483 2.91345 20.1352 2.75014 17.3235C2.73919 17.2091 2.73919 17.2091 2.72802 17.0923C2.69433 16.5248 2.78976 16.2102 3.13789 15.7596C3.17979 15.7176 3.22168 15.6756 3.26484 15.6324C3.31337 15.6324 3.3619 15.6324 3.4119 15.6324C3.42707 15.582 3.44223 15.5317 3.45786 15.4798C3.59272 15.1929 3.78377 14.9927 4.00014 14.7638C4.06042 14.6979 4.06042 14.6979 4.12192 14.6307C4.225 14.5201 4.33284 14.4141 4.44131 14.3088C4.48984 14.3088 4.53837 14.3088 4.58837 14.3088C4.61453 14.2458 4.61453 14.2458 4.64122 14.1816C4.96591 13.6065 5.66292 13.1918 6.20602 12.8382C6.27777 12.7914 6.34952 12.7446 6.42345 12.6963C8.39369 11.4476 10.6187 10.6001 12.9707 10.6324Z" fill="#D82217"/>
<path d="M16.146 2.94853C16.2161 3.00199 16.2863 3.05545 16.3585 3.11052C16.4294 3.16626 16.5003 3.22199 16.5734 3.27941C16.6397 3.3306 16.7061 3.38178 16.7744 3.43451C18.3407 4.67485 19.5184 6.27283 20.3969 8.05882C20.4254 8.11522 20.454 8.17162 20.4834 8.22972C20.9463 9.19219 21.2387 10.2451 21.4263 11.2941C21.436 11.3462 21.4457 11.3982 21.4556 11.4518C21.5307 11.9336 21.506 12.4257 21.4999 12.9118C21.2494 12.8705 21.1521 12.8039 20.9989 12.6039C20.8086 12.3689 20.6054 12.1792 20.3734 11.9863C20.1973 11.8381 20.0378 11.6845 19.8822 11.5147C19.8822 11.4662 19.8822 11.4176 19.8822 11.3676C19.8413 11.351 19.8003 11.3343 19.7581 11.3171C19.5394 11.193 19.3881 11.0392 19.2204 10.8529C19.2204 10.8044 19.2204 10.7559 19.2204 10.7059C19.1477 10.6816 19.0749 10.6574 18.9999 10.6324C18.9025 10.5307 18.9025 10.5307 18.8022 10.4026C18.5513 10.1002 18.2701 9.85581 17.9704 9.60294C17.9007 9.54143 17.8309 9.47991 17.759 9.41653C16.2673 8.10902 14.5159 7.186 12.6028 6.66177C12.5115 6.63608 12.4202 6.61039 12.3262 6.58393C11.0874 6.24649 9.86714 6.19944 8.59085 6.2114C8.45131 6.21214 8.31176 6.21281 8.17222 6.21341C7.83534 6.215 7.49849 6.21753 7.16162 6.22059C7.26739 5.67542 7.93496 5.31199 8.37658 5.01166C8.88625 4.67475 9.41063 4.36432 9.95574 4.08824C10.0226 4.05427 10.0226 4.05427 10.0909 4.01962C11.5703 3.27593 13.0834 2.863 14.726 2.6682C14.7797 2.66168 14.8334 2.65517 14.8888 2.64845C15.4034 2.59434 15.7317 2.63267 16.146 2.94853Z" fill="#E1451C"/>
<path d="M25.8383 7.10294C26.2214 7.15245 26.3404 7.288 26.5777 7.57715C28.1741 9.67041 29.2135 12.0382 29.4413 14.6765C29.4496 14.7606 29.458 14.8448 29.4666 14.9315C29.4996 15.5724 29.3383 15.8894 28.9266 16.3677C28.8727 16.436 28.8187 16.5043 28.7632 16.5747C28.4477 16.9725 28.1162 17.3402 27.7501 17.6912C27.6919 17.7495 27.6337 17.8078 27.5738 17.8678C25.529 19.9095 22.4871 21.4492 19.5562 21.4596C19.4443 21.4551 19.3324 21.4498 19.2207 21.4412C19.3841 20.9981 19.6677 20.7637 20.0203 20.4623C20.2863 20.2336 20.5106 19.985 20.7321 19.7135C20.7671 19.677 20.8022 19.6405 20.8384 19.6029C20.8869 19.6029 20.9354 19.6029 20.9854 19.6029C21.0021 19.562 21.0188 19.5211 21.036 19.4789C21.1601 19.2602 21.3138 19.1088 21.5001 18.9412C21.5486 18.9412 21.5972 18.9412 21.6472 18.9412C21.6639 18.9002 21.6805 18.8593 21.6977 18.8171C21.8218 18.5984 21.9756 18.4471 22.1619 18.2794C22.2104 18.2794 22.2589 18.2794 22.3089 18.2794C22.3271 18.2385 22.3453 18.1975 22.3641 18.1553C22.4729 17.9541 22.5983 17.7885 22.7501 17.6177C22.7986 17.6177 22.8472 17.6177 22.8972 17.6177C22.9166 17.576 22.936 17.5344 22.9561 17.4916C23.0507 17.3113 23.1597 17.1533 23.2786 16.9881C24.0958 15.8278 24.7748 14.622 25.206 13.2669C25.2445 13.1494 25.2877 13.0334 25.3317 12.9178C26.0203 11.0822 25.9733 9.02808 25.8383 7.10294Z" fill="#E24A1D"/>
<path d="M9.88218 14.4559C9.97924 14.4801 10.0763 14.5044 10.1763 14.5294C10.1767 14.5894 10.1772 14.6493 10.1776 14.7111C10.1819 15.2841 10.1872 15.8571 10.1936 16.4301C10.1969 16.7245 10.1998 17.0189 10.2018 17.3133C10.2146 19.7492 10.2146 19.7492 10.7094 22.1259C10.7428 22.2357 10.7428 22.2357 10.7769 22.3476C11.3441 24.167 12.2358 25.8076 13.4851 27.25C13.5362 27.3101 13.5873 27.3702 13.6399 27.4321C14.1428 28.0091 14.7014 28.5671 15.3153 29.0268C15.3665 29.0713 15.4177 29.1159 15.4704 29.1618C15.4704 29.2346 15.4704 29.3073 15.4704 29.3823C14.8934 29.4022 14.3482 29.3281 13.7792 29.2353C13.6426 29.2151 13.6426 29.2151 13.5032 29.1945C12.6772 29.0595 11.9129 28.7976 11.1322 28.5C11.0055 28.4519 11.0055 28.4519 10.8763 28.4029C9.6163 27.9003 8.4851 27.1694 7.45571 26.2941C7.3684 26.2282 7.28109 26.1624 7.19376 26.0965C6.68423 25.6131 6.73492 24.577 6.71173 23.9131C6.63469 20.3043 7.61215 17.2781 9.88218 14.4559Z" fill="#D71D16"/>
<path d="M13.1913 7.25C13.2402 7.26575 13.2891 7.2815 13.3396 7.29772C14.7873 7.76618 16.6839 8.61396 17.6766 9.82353C17.6766 9.89633 17.6766 9.96912 17.6766 10.0441C17.5989 10.0448 17.5989 10.0448 17.5196 10.0454C17.0214 10.0498 16.5232 10.0551 16.025 10.0615C15.7691 10.0647 15.5132 10.0676 15.2574 10.0696C13.5062 10.0838 11.7146 10.1071 10.0295 10.6324C9.97062 10.6502 9.91175 10.668 9.85109 10.6864C7.9289 11.2735 6.18104 12.1801 4.70034 13.5577C4.58832 13.6471 4.58832 13.6471 4.44126 13.6471C4.42154 13.6941 4.40183 13.7411 4.38152 13.7895C4.2942 13.9412 4.2942 13.9412 4.07361 14.0147C3.98473 14.1618 3.98473 14.1618 3.92655 14.3088C3.87802 14.3088 3.82949 14.3088 3.77949 14.3088C3.76196 14.3486 3.74442 14.3884 3.72636 14.4295C3.60772 14.6486 3.46243 14.8317 3.30615 15.0257C3.24862 15.0982 3.19108 15.1706 3.1318 15.2452C3.07863 15.3002 3.02546 15.3551 2.97067 15.4118C2.89788 15.4118 2.82508 15.4118 2.75008 15.4118C2.62789 12.5877 3.93832 9.69089 5.69126 7.54412C5.73732 7.48384 5.78339 7.42356 5.83085 7.36145C6.10081 7.02639 6.29833 6.81162 6.73273 6.75454C6.80155 6.74819 6.87036 6.74184 6.94126 6.7353C7.08088 6.71554 7.08088 6.71554 7.22331 6.69537C9.24476 6.41844 11.2565 6.60954 13.1913 7.25Z" fill="#DC3219"/>
<path d="M29.2207 16.6618C29.2935 16.6618 29.3663 16.6618 29.4413 16.6618C29.5509 19.1939 28.4841 21.8485 27.0148 23.8676C26.9586 23.9456 26.9024 24.0235 26.8445 24.1037C26.0902 25.134 26.0902 25.134 25.5798 25.2247C25.5302 25.2318 25.4805 25.239 25.4294 25.2463C25.3769 25.2548 25.3245 25.2634 25.2704 25.2721C25.1168 25.2962 24.9631 25.3178 24.809 25.3382C24.7367 25.348 24.6645 25.3578 24.5901 25.3678C23.4939 25.4831 22.3696 25.4513 21.2808 25.2867C21.1365 25.2653 20.9917 25.2471 20.847 25.2291C18.6368 24.9264 16.184 23.8456 14.5884 22.25C14.5884 22.1529 14.5884 22.0559 14.5884 21.9559C14.6485 21.9555 14.7086 21.955 14.7706 21.9546C15.3447 21.9503 15.9188 21.9449 16.4929 21.9386C16.7879 21.9353 17.0828 21.9324 17.3778 21.9304C18.6678 21.9214 19.9339 21.9034 21.206 21.6618C21.2904 21.6469 21.3748 21.6321 21.4617 21.6169C23.9185 21.1612 26.1766 19.751 27.9707 18.0588C28.0158 18.0168 28.0608 17.9748 28.1072 17.9316C28.4386 17.6122 28.7252 17.2598 29.0134 16.9013C29.1472 16.7353 29.1472 16.7353 29.2207 16.6618Z" fill="#DE3A1B"/>
<path d="M16.7207 2.69118C18.0274 2.60856 19.3185 2.9337 20.5442 3.35294C20.6311 3.38252 20.7179 3.41209 20.8073 3.44256C22.1995 3.95006 24.5643 4.96127 25.2628 6.31394C26.1184 9.13504 25.3058 12.6741 23.9717 15.2127C23.5212 16.0404 22.9772 16.8759 22.3089 17.5441C22.2119 17.5441 22.1148 17.5441 22.0148 17.5441C22.0144 17.4811 22.014 17.418 22.0135 17.353C22.0092 16.7518 22.0039 16.1507 21.9975 15.5495C21.9942 15.2406 21.9913 14.9317 21.9893 14.6228C21.9828 12.6905 21.9828 12.6905 21.7207 10.7794C21.7101 10.7278 21.6995 10.6762 21.6885 10.623C21.0654 7.63018 19.2619 4.89754 16.8953 2.98989C16.8377 2.93985 16.7801 2.8898 16.7207 2.83824C16.7207 2.78971 16.7207 2.74118 16.7207 2.69118Z" fill="#E34F1D"/>
<path d="M38.7059 10.6323C38.7076 12.0212 38.7089 13.4101 38.7097 14.7989C38.7101 15.4437 38.7106 16.0885 38.7114 16.7334C38.7121 17.2952 38.7126 17.857 38.7128 18.4188C38.7129 18.7165 38.7131 19.0142 38.7136 19.3118C38.7141 19.5917 38.7143 19.8715 38.7142 20.1514C38.7142 20.2544 38.7144 20.3574 38.7146 20.4604C38.715 20.6004 38.7149 20.7405 38.7147 20.8805C38.7148 20.9591 38.7148 21.0376 38.7149 21.1186C38.7059 21.2941 38.7059 21.2941 38.6323 21.3676C38.156 21.3461 37.7991 21.1546 37.3823 20.9357C37.2381 20.8617 37.0938 20.7879 36.9495 20.7142C36.8754 20.6763 36.8014 20.6383 36.7251 20.5992C36.3633 20.4161 35.9976 20.2413 35.6314 20.0671C35.5611 20.0335 35.4908 20 35.4184 19.9654C35.0948 19.8112 34.7706 19.6583 34.4452 19.5079C34.361 19.4688 34.361 19.4688 34.2751 19.4289C34.1732 19.3818 34.0711 19.3349 33.9689 19.2885C33.6179 19.1261 33.2945 18.9315 32.9706 18.7206C32.975 18.6719 32.9795 18.6232 32.9841 18.5731C33.1279 16.9659 33.1892 15.3949 32.9971 13.7891C32.9895 13.7159 32.9819 13.6428 32.974 13.5675C32.9625 13.4706 32.9625 13.4706 32.9507 13.3717C32.9706 13.2059 32.9706 13.2059 33.0979 13.0821C33.2552 12.9908 33.4093 12.9115 33.5763 12.8397C33.636 12.8136 33.6958 12.7874 33.7573 12.7605C33.8207 12.7331 33.8841 12.7057 33.9494 12.6774C34.4048 12.4769 34.8513 12.2702 35.2868 12.0294C35.7684 11.7639 36.2639 11.5379 36.7673 11.3167C37.0551 11.1897 37.3396 11.0606 37.6184 10.9147C37.6652 10.8902 37.7119 10.8658 37.76 10.8406C37.8835 10.775 38.0062 10.708 38.1288 10.641C38.367 10.5475 38.4638 10.5729 38.7059 10.6323Z" fill="#E75E1F"/>
<path d="M115.68 4.61385C116.407 5.23896 116.742 6.05272 116.815 7.00449C116.823 7.30399 116.825 7.60271 116.823 7.90228C116.823 8.01224 116.824 8.1222 116.824 8.23216C116.824 8.46074 116.824 8.68931 116.823 8.91789C116.822 9.21029 116.822 9.50265 116.824 9.79505C116.824 10.0213 116.824 10.2476 116.824 10.4739C116.823 10.5817 116.824 10.6896 116.824 10.7974C116.825 10.9478 116.824 11.0982 116.823 11.2486C116.822 11.3339 116.822 11.4193 116.822 11.5072C116.782 11.837 116.64 12.0262 116.426 12.273C116.091 12.4615 115.773 12.4445 115.397 12.3971C115.122 12.2792 115.049 12.2061 114.882 11.9559C114.882 11.8831 114.882 11.8103 114.882 11.7353C114.84 11.7637 114.798 11.7922 114.755 11.8215C113.779 12.4483 112.641 12.6912 111.496 12.4591C110.785 12.2555 110.219 11.9178 109.809 11.2941C109.435 10.6053 109.405 9.81926 109.593 9.06525C109.851 8.34043 110.376 7.87178 111.059 7.54411C112.211 7.11422 113.453 7.12182 114.662 7.24999C114.71 7.27426 114.759 7.29852 114.809 7.32352C114.698 6.74055 114.698 6.74055 114.437 6.21599C113.702 5.73159 112.872 5.7902 112.042 5.95404C111.788 6.00804 111.536 6.06429 111.285 6.12867C110.989 6.20056 110.766 6.24963 110.475 6.14246C110.225 5.98404 110.132 5.90937 110.029 5.63235C109.972 5.28588 109.99 5.04555 110.153 4.73161C110.471 4.40872 110.932 4.29466 111.353 4.16176C111.422 4.13806 111.492 4.11437 111.563 4.08995C112.895 3.70482 114.554 3.75635 115.68 4.61385ZM111.573 9.38235C111.455 9.62019 111.457 9.86054 111.5 10.1176C111.667 10.4352 111.898 10.5988 112.235 10.7059C113.048 10.7985 113.722 10.6417 114.372 10.1452C114.525 10.0184 114.668 9.89057 114.809 9.74999C114.827 9.53684 114.827 9.53684 114.818 9.29963C114.817 9.21906 114.815 9.13849 114.814 9.05549C114.812 8.9935 114.811 8.93151 114.809 8.86764C113.094 8.74698 113.094 8.74698 111.573 9.38235Z" fill="white"/>
<path d="M60.5854 3.9182C60.6676 3.91606 60.7497 3.91393 60.8343 3.91173C61.7776 3.90462 62.5886 4.17666 63.2787 4.8287C64.0982 5.69496 64.1704 6.67744 64.1691 7.82071C64.1694 7.93246 64.1697 8.04421 64.1701 8.15595C64.1706 8.389 64.1706 8.62205 64.1702 8.8551C64.1698 9.15302 64.1711 9.45091 64.1728 9.74883C64.1738 9.97914 64.1739 10.2094 64.1737 10.4397C64.1737 10.5496 64.1741 10.6594 64.1748 10.7693C64.1757 10.9229 64.1752 11.0764 64.1744 11.23C64.1744 11.3171 64.1745 11.4043 64.1745 11.4941C64.136 11.8316 64.0282 12.0811 63.7794 12.3143C63.4364 12.4429 63.111 12.4548 62.75 12.3971C62.4817 12.2587 62.3284 12.0589 62.1617 11.8088C62.0844 11.8634 62.007 11.918 61.9273 11.9743C61.0206 12.5352 59.9 12.6507 58.8653 12.4591C58.137 12.2651 57.5929 11.9148 57.1617 11.2941C56.8114 10.6804 56.7686 9.91588 56.9153 9.23443C57.1514 8.51099 57.6419 7.9779 58.306 7.61305C59.4777 7.06089 60.8305 7.14651 62.0882 7.25C62.0686 6.80916 62.0282 6.48714 61.7205 6.14706C60.7446 5.63246 59.7316 5.87494 58.7133 6.12609C58.349 6.20978 58.092 6.26445 57.75 6.07353C57.5526 5.89334 57.4075 5.75377 57.3519 5.48558C57.3381 5.15536 57.3926 4.92877 57.6029 4.67647C57.9441 4.41578 58.2664 4.29535 58.6737 4.18474C58.7282 4.16915 58.7828 4.15356 58.839 4.13749C59.4305 3.97051 59.9704 3.92339 60.5854 3.9182ZM59 9.30882C58.8184 9.58109 58.795 9.80189 58.8529 10.1176C59.0135 10.3727 59.1435 10.5175 59.409 10.6599C60.3175 10.8251 61.0268 10.6315 61.8079 10.159C62.0605 9.96986 62.1493 9.88528 62.2123 9.57278C62.2123 9.33238 62.1976 9.10518 62.1617 8.86764C60.519 8.78675 60.519 8.78675 59 9.30882Z" fill="white"/>
<path d="M76.7941 4.23529C76.8528 4.26647 76.9116 4.29766 76.9721 4.32979C77.7307 4.7867 78.1783 5.43029 78.414 6.27008C78.5253 6.78075 78.5079 7.30079 78.5074 7.82071C78.5076 7.93246 78.508 8.0442 78.5083 8.15595C78.5089 8.389 78.5088 8.62204 78.5085 8.85509C78.508 9.15302 78.5093 9.45091 78.511 9.74882C78.5121 9.97913 78.5121 10.2094 78.5119 10.4397C78.5119 10.5496 78.5123 10.6594 78.5131 10.7693C78.514 10.9229 78.5135 11.0764 78.5126 11.23C78.5127 11.3171 78.5127 11.4043 78.5128 11.4941C78.4743 11.8316 78.3664 12.0811 78.1176 12.3143C77.7747 12.4429 77.4492 12.4548 77.0882 12.3971C76.8199 12.2587 76.6666 12.0589 76.4999 11.8088C76.4226 11.8634 76.3453 11.918 76.2656 11.9743C75.3586 12.5353 74.2389 12.65 73.2038 12.4594C72.441 12.2555 71.8874 11.8886 71.4798 11.2123C71.1389 10.5703 71.1034 9.83237 71.2977 9.13419C71.3999 8.83768 71.5232 8.59965 71.7205 8.35294C71.7534 8.31152 71.7863 8.2701 71.8202 8.22742C72.4957 7.4619 73.5079 7.26282 74.4779 7.19944C75.1312 7.16346 75.775 7.1964 76.4264 7.25C76.4068 6.80916 76.3665 6.48714 76.0588 6.14705C75.0896 5.63604 74.0645 5.86401 73.0541 6.12867C72.6229 6.23338 72.4013 6.22881 72.0147 6C71.829 5.85151 71.7979 5.7908 71.7205 5.55882C71.6933 5.19116 71.7058 4.9667 71.9411 4.67647C72.2808 4.41686 72.602 4.29551 73.0073 4.18474C73.0882 4.16135 73.0882 4.16135 73.1707 4.13749C74.2632 3.82774 75.7598 3.6856 76.7941 4.23529ZM73.3382 9.30882C73.1567 9.58109 73.1332 9.80189 73.1911 10.1176C73.3517 10.3727 73.4817 10.5175 73.7472 10.6599C74.6158 10.8178 75.3265 10.6622 76.0634 10.182C76.2249 10.0692 76.3604 9.96305 76.4999 9.82352C76.5179 9.59351 76.5179 9.59351 76.5091 9.33639C76.5078 9.249 76.5065 9.16161 76.5051 9.07157C76.5034 9.00428 76.5017 8.93698 76.4999 8.86764C74.8573 8.78675 74.8573 8.78675 73.3382 9.30882Z" fill="white"/>
<path d="M96.1225 4.71955C97.0331 5.42121 97.487 6.42626 97.6534 7.54871C97.7504 8.77018 97.5645 10.0397 96.7987 11.0322C96.0159 11.9462 95.0147 12.4272 93.8207 12.5349C92.6886 12.5815 91.5553 12.3599 90.6911 11.5882C90.6431 11.5495 90.595 11.5107 90.5455 11.4708C89.733 10.7557 89.3662 9.62501 89.2941 8.57353C89.2262 7.34343 89.5217 6.1148 90.3261 5.16073C91.825 3.57981 94.3792 3.48603 96.1225 4.71955ZM91.7547 6.44721C91.2611 7.09356 91.1304 7.85032 91.2058 8.64706C91.3293 9.31609 91.5612 9.82349 92.0882 10.2647C92.6987 10.6554 93.2973 10.6829 93.9999 10.6324C94.5407 10.5028 95.0359 10.1405 95.3467 9.6802C95.736 8.94917 95.817 8.10161 95.6084 7.30055C95.399 6.69975 94.9906 6.24362 94.4411 5.92647C93.5212 5.55131 92.4299 5.7021 91.7547 6.44721Z" fill="white"/>
<path d="M38.4119 1.36765C38.509 1.41617 38.606 1.4647 38.706 1.5147C38.7146 2.45746 38.7211 3.40022 38.7251 4.34301C38.727 4.78078 38.7296 5.21852 38.7338 5.65628C38.7378 6.07869 38.74 6.50107 38.7409 6.9235C38.7416 7.08471 38.7429 7.24592 38.7449 7.40713C38.7476 7.63283 38.748 7.85843 38.7478 8.08415C38.7491 8.1509 38.7504 8.21764 38.7518 8.28641C38.7491 8.61196 38.7411 8.74934 38.5347 9.01313C38.3084 9.18447 38.075 9.32263 37.8228 9.451C37.7481 9.49012 37.7481 9.49012 37.6719 9.53002C37.5099 9.61469 37.3474 9.69842 37.1849 9.78217C37.0722 9.8409 36.9596 9.89972 36.8469 9.95861C36.6759 10.048 36.5049 10.1374 36.3338 10.2265C35.8153 10.4965 35.3002 10.7725 34.786 11.0505C34.7126 11.0902 34.6393 11.1298 34.5636 11.1706C34.458 11.2276 34.458 11.2276 34.3503 11.2858C34.282 11.3224 34.2137 11.359 34.1433 11.3968C33.9848 11.4831 33.8278 11.5708 33.6712 11.6605C33.6282 11.6847 33.5853 11.7089 33.541 11.7338C33.4198 11.802 33.2991 11.8712 33.1784 11.9403C32.9708 12.0294 32.9708 12.0294 32.8031 12.0248C32.6766 11.9559 32.6766 11.9559 32.6087 11.8288C32.594 11.7746 32.5792 11.7205 32.564 11.6646C32.5465 11.6048 32.529 11.5449 32.5109 11.4832C32.4928 11.4208 32.4747 11.3584 32.456 11.2941C32.415 11.1764 32.3728 11.059 32.3297 10.942C32.3082 10.8834 32.2866 10.8248 32.2645 10.7645C32.2428 10.7057 32.2211 10.6469 32.1987 10.5864C32.177 10.5271 32.1553 10.4677 32.1329 10.4066C32.0342 10.1387 31.9331 9.87743 31.8104 9.6196C31.7115 9.35793 31.6878 9.27045 31.7943 9.0147C31.9247 8.84327 32.0546 8.68643 32.1987 8.52757C32.2801 8.43544 32.3613 8.34324 32.4425 8.25097C32.4827 8.20573 32.5228 8.16048 32.5641 8.11386C32.715 7.94143 32.8592 7.76398 33.0029 7.58548C33.3076 7.21007 33.6239 6.84573 33.9416 6.4814C34.174 6.21416 34.4023 5.94447 34.6252 5.66912C34.925 5.29904 35.2357 4.93941 35.5486 4.58045C35.8107 4.27951 36.0692 3.97589 36.3255 3.67003C36.6549 3.27796 36.9973 2.89963 37.3452 2.52401C37.5046 2.35071 37.6605 2.17529 37.8145 1.99724C38.0051 1.7773 38.203 1.57021 38.4119 1.36765Z" fill="#EA6B21"/>
<path d="M32.6766 19.9706C33.0714 20.0069 33.3678 20.1102 33.7161 20.302C33.7653 20.3283 33.8145 20.3546 33.8652 20.3817C34.0254 20.4676 34.1851 20.5546 34.3448 20.6415C34.4563 20.7016 34.5678 20.7615 34.6794 20.8214C34.9067 20.9436 35.1337 21.0661 35.3606 21.189C35.6672 21.3549 35.9748 21.5191 36.2827 21.6827C36.4193 21.7554 36.5559 21.8281 36.6925 21.9008C36.8174 21.9673 36.9423 22.0338 37.0673 22.1002C38.5306 22.8835 38.5306 22.8835 38.706 23.0588C38.713 23.2894 38.7152 23.5183 38.7143 23.7489C38.7144 23.8213 38.7144 23.8938 38.7144 23.9684C38.7143 24.2091 38.7138 24.4498 38.7132 24.6905C38.713 24.8569 38.7129 25.0233 38.7129 25.1897C38.7126 25.6287 38.7119 26.0676 38.711 26.5065C38.7103 26.954 38.71 27.4015 38.7096 27.849C38.7088 28.7278 38.7075 29.6065 38.706 30.4853C38.6332 30.5096 38.5604 30.5338 38.4854 30.5588C37.7207 30.0982 37.0709 29.1671 36.5205 28.4813C36.337 28.2601 36.1444 28.0486 35.9486 27.8382C35.6317 27.4976 35.3346 27.1455 35.0427 26.783C34.8841 26.5902 34.7197 26.405 34.5516 26.2206C34.2673 25.9083 33.9991 25.5858 33.7333 25.2578C33.5473 25.0298 33.3585 24.8045 33.1683 24.58C33.1351 24.5407 33.1018 24.5013 33.0676 24.4608C32.8823 24.2424 32.6957 24.0252 32.5077 23.8091C32.4676 23.7628 32.4276 23.7166 32.3863 23.669C32.3089 23.5798 32.2313 23.4908 32.1533 23.4021C31.7884 22.9812 31.7884 22.9812 31.7207 22.7647C31.7463 22.4284 31.9006 22.1287 32.0332 21.8226C32.29 21.2166 32.4922 20.6019 32.6766 19.9706Z" fill="#E34F1D"/>
<path d="M105.443 3.9182C105.528 3.91851 105.613 3.91882 105.701 3.91913C106.529 3.93009 107.398 4.00202 108.118 4.45588C108.338 4.68225 108.355 4.88633 108.371 5.19118C108.362 5.44285 108.341 5.5531 108.219 5.77941C107.924 6.02789 107.707 6.08034 107.323 6.05515C107.115 6.0225 106.914 5.97549 106.711 5.92475C106.343 5.84272 105.989 5.82594 105.613 5.82537C105.52 5.82267 105.52 5.82267 105.425 5.81991C104.999 5.81794 104.64 5.8837 104.294 6.14706C104.177 6.37397 104.177 6.37397 104.147 6.58824C104.422 6.9031 104.631 7.01921 105.034 7.12104C105.084 7.13416 105.134 7.14728 105.185 7.1608C105.343 7.20246 105.501 7.24247 105.659 7.28217C106.74 7.55527 107.757 7.83769 108.439 8.7878C108.76 9.36353 108.728 10.1646 108.576 10.79C108.329 11.4455 107.912 11.8333 107.309 12.1765C105.982 12.7487 104.468 12.6094 103.137 12.1297C102.742 11.9648 102.405 11.8058 102.162 11.4412C102.108 11.0758 102.125 10.7822 102.286 10.4485C102.471 10.2485 102.558 10.172 102.824 10.1176C103.232 10.1511 103.563 10.2365 103.95 10.3796C104.409 10.5351 104.839 10.5967 105.324 10.6002C105.381 10.6012 105.438 10.6023 105.497 10.6034C105.893 10.5965 106.258 10.5168 106.574 10.2647C106.657 9.99805 106.657 9.99805 106.647 9.75C106.097 9.4875 105.544 9.3157 104.956 9.16177C103.941 8.89177 103.088 8.6337 102.419 7.76844C102.09 7.18413 102.155 6.34166 102.279 5.7033C102.495 5.07428 102.979 4.5426 103.564 4.2353C104.182 3.94774 104.771 3.91491 105.443 3.9182Z" fill="white"/>
<path d="M83.2833 23.0726C84.111 23.6971 84.6426 24.53 84.809 25.5588C84.8283 25.7642 84.8371 25.9684 84.8412 26.1746C84.8428 26.2245 84.8444 26.2744 84.8461 26.3257C84.845 26.5822 84.8126 26.7293 84.6783 26.9496C84.3898 27.2203 84.0992 27.1855 83.7149 27.1848C83.6395 27.1848 83.6395 27.1848 83.5626 27.1848C83.3971 27.1848 83.2316 27.1842 83.0661 27.1836C82.9511 27.1835 82.8362 27.1834 82.7212 27.1833C82.419 27.1831 82.1168 27.1823 81.8146 27.1815C81.506 27.1808 81.1975 27.1804 80.889 27.1801C80.2839 27.1793 79.6788 27.178 79.0737 27.1765C79.1084 27.2949 79.1433 27.4132 79.1782 27.5315C79.1976 27.5975 79.217 27.6634 79.237 27.7313C79.4177 28.3007 79.7604 28.6331 80.268 28.9271C80.7296 29.1265 81.1686 29.1886 81.6656 29.1847C81.7198 29.1845 81.7739 29.1842 81.8297 29.184C82.4079 29.1726 82.9455 29.061 83.4717 28.8171C83.7482 28.7032 83.9247 28.6767 84.2208 28.7206C84.4368 28.8722 84.4368 28.8722 84.5884 29.0882C84.6365 29.3873 84.6338 29.535 84.4643 29.7885C83.8394 30.4577 82.767 30.652 81.8924 30.7004C80.6336 30.7432 79.4548 30.4877 78.4929 29.6248C77.6624 28.7616 77.4674 27.5917 77.4561 26.4412C77.5207 25.2732 77.8509 24.1636 78.7233 23.346C79.99 22.3152 81.9036 22.1792 83.2833 23.0726ZM79.6657 24.443C79.2628 24.8729 79.0737 25.2516 79.0737 25.8529C80.4811 25.8529 81.8884 25.8529 83.3384 25.8529C83.174 25.0307 82.99 24.5703 82.2989 24.0991C81.4291 23.563 80.388 23.7669 79.6657 24.443Z" fill="white"/>
<path d="M63.1493 23.2036C64.1358 23.9844 64.5131 25.0107 64.6615 26.2206C64.7562 27.3891 64.4668 28.5533 63.7057 29.4559C62.9137 30.3032 61.9867 30.6419 60.8412 30.703C59.6227 30.7306 58.6423 30.3713 57.7572 29.5464C56.9101 28.6678 56.7141 27.4647 56.7204 26.2941C56.7948 25.2038 57.1822 24.1677 57.9841 23.4035C59.397 22.2314 61.6476 22.1718 63.1493 23.2036ZM58.9262 24.6029C58.3378 25.3073 58.1934 26.1299 58.2645 27.0294C58.3417 27.6329 58.5713 28.207 58.9998 28.6471C59.7148 29.1953 60.3946 29.3273 61.2792 29.2353C61.9611 29.074 62.4303 28.684 62.7995 28.0959C63.2118 27.3161 63.2299 26.4126 63.0025 25.5726C62.7853 24.9468 62.4458 24.497 61.874 24.1598C60.9198 23.7156 59.6734 23.821 58.9262 24.6029Z" fill="white"/>
<path d="M91.6472 23.0588C91.7743 23.3132 91.7558 23.5895 91.7207 23.8676C91.5729 24.095 91.4828 24.148 91.2206 24.212C90.968 24.237 90.8175 24.2034 90.5764 24.1296C89.7249 23.9192 88.6482 23.8141 87.871 24.2804C87.6451 24.4709 87.6035 24.5993 87.5709 24.8925C87.5538 25.0433 87.5538 25.0433 87.6031 25.1912C87.8676 25.4582 88.1334 25.5559 88.49 25.6599C88.5402 25.6749 88.5905 25.69 88.6422 25.7054C88.8103 25.7555 88.9787 25.8043 89.1472 25.8529C89.3403 25.9088 89.5334 25.9649 89.7263 26.0216C89.8517 26.0583 89.9771 26.0945 90.1028 26.1301C90.6332 26.2849 91.1287 26.4677 91.5231 26.8686C91.5698 26.9145 91.6165 26.9605 91.6647 27.0079C91.9781 27.4158 92.054 27.8092 92.047 28.307C92.0465 28.3619 92.046 28.4169 92.0455 28.4735C92.0296 29.0191 91.901 29.3949 91.5415 29.8097C91.4482 29.8894 91.4482 29.8894 91.3531 29.9706C91.2985 30.0206 91.2439 30.0707 91.1876 30.1222C90.2925 30.7529 89.1722 30.7833 88.1178 30.6324C86.4172 30.2875 86.4172 30.2875 86.0589 29.75C86.0094 29.437 86.0036 29.1734 86.1784 28.9044C86.3953 28.7674 86.5377 28.7405 86.7942 28.7206C86.9883 28.7711 87.1641 28.825 87.3503 28.8952C87.9016 29.0953 88.3656 29.1765 88.9496 29.1801C89.0096 29.1817 89.0697 29.1832 89.1315 29.1847C89.6268 29.1879 90.0528 29.1187 90.4339 28.7757C90.5789 28.51 90.5984 28.3567 90.5442 28.0588C90.1675 27.7336 89.7207 27.6359 89.2483 27.5074C89.0893 27.4624 88.9304 27.4173 88.7715 27.3721C88.6584 27.3402 88.6584 27.3402 88.543 27.3078C87.6953 27.0685 86.7653 26.8008 86.2795 26C86.0322 25.404 86.0251 24.6655 86.2106 24.0492C86.54 23.3401 86.9949 22.9409 87.7211 22.6711C88.8605 22.3253 90.6404 22.3588 91.6472 23.0588Z" fill="white"/>
<path d="M66.2288 22.5901C66.2846 22.5865 66.3404 22.5829 66.3979 22.5792C66.6574 22.6361 66.7891 22.7771 66.9411 22.9853C67.0843 23.2726 67.1966 23.5702 67.3102 23.8702C67.3612 24.0013 67.3612 24.0013 67.4132 24.135C67.5036 24.3676 67.5929 24.6005 67.6819 24.8336C67.7706 25.0653 67.8603 25.2966 67.95 25.528C68.0546 25.7983 68.1592 26.0686 68.2634 26.3391C68.5513 27.0866 68.8469 27.8309 69.147 28.5735C69.5264 27.6561 69.8997 26.7367 70.2585 25.811C70.2844 25.7443 70.3103 25.6776 70.3369 25.6089C70.466 25.2761 70.5946 24.943 70.7225 24.6097C71.3904 22.8774 71.3904 22.8774 71.794 22.6177C72.0223 22.565 72.2269 22.5684 72.4558 22.6177C72.7483 22.8564 72.7483 22.8564 72.8234 23.0588C72.8542 23.519 72.7799 23.8338 72.5965 24.2528C72.5724 24.3104 72.5482 24.3679 72.5233 24.4272C72.4436 24.6164 72.3624 24.805 72.2812 24.9936C72.2249 25.1261 72.1688 25.2586 72.1128 25.3912C71.9947 25.6704 71.8761 25.9494 71.7572 26.2282C71.5714 26.6652 71.3897 27.1039 71.2087 27.543C71.12 27.7573 71.0313 27.9717 70.9426 28.186C70.8856 28.3239 70.8288 28.4618 70.7721 28.5998C70.6923 28.7936 70.6119 28.987 70.5314 29.1804C70.5083 29.237 70.4852 29.2936 70.4614 29.3518C70.0695 30.2869 70.0695 30.2869 69.6617 30.5588C69.2592 30.649 68.9668 30.6291 68.5717 30.5201C68.0764 30.1849 67.8841 29.4709 67.6718 28.9412C67.6157 28.8035 67.5596 28.6658 67.5035 28.5282C67.4617 28.4259 67.42 28.3235 67.3783 28.2212C67.0849 27.5006 66.7845 26.7829 66.4849 26.0649C66.3861 25.828 66.2874 25.591 66.1887 25.354C66.1269 25.2057 66.0651 25.0574 66.0033 24.9091C65.9751 24.8413 65.9468 24.7736 65.9178 24.7037C65.8013 24.4244 65.6843 24.1455 65.5633 23.8681C65.4342 23.5605 65.4331 23.3898 65.4705 23.0588C65.6845 22.7236 65.8373 22.6072 66.2288 22.5901Z" fill="white"/>
<path d="M100.324 0.705882C100.545 0.837966 100.721 0.986446 100.838 1.22059C100.846 1.35933 100.849 1.49833 100.849 1.63727C100.85 1.72593 100.85 1.81458 100.851 1.90593C100.851 2.0047 100.851 2.10347 100.851 2.20225C100.852 2.30587 100.852 2.40949 100.853 2.51311C100.854 2.79509 100.855 3.07706 100.855 3.35904C100.856 3.5352 100.856 3.71136 100.857 3.88752C100.858 4.43866 100.859 4.98979 100.86 5.54092C100.861 6.17716 100.862 6.81338 100.865 7.44961C100.868 7.94131 100.869 8.433 100.869 8.92471C100.869 9.21841 100.87 9.51208 100.872 9.80577C100.873 10.0822 100.874 10.3586 100.873 10.635C100.873 10.7363 100.873 10.8376 100.874 10.9389C100.883 11.8923 100.883 11.8923 100.544 12.25C100.243 12.4404 99.915 12.5018 99.5654 12.4338C99.2243 12.2951 99.0881 12.1319 98.9266 11.8088C98.9191 11.671 98.9163 11.5329 98.9157 11.3949C98.9152 11.3069 98.9147 11.2189 98.9142 11.1281C98.9139 11.0301 98.9137 10.932 98.9136 10.8339C98.9131 10.731 98.9126 10.6281 98.9121 10.5252C98.9108 10.2452 98.91 9.96522 98.9094 9.68521C98.9091 9.51029 98.9086 9.33536 98.9081 9.16043C98.9067 8.61314 98.9057 8.06586 98.9051 7.51858C98.9044 6.88679 98.9024 6.25502 98.8995 5.62325C98.8972 5.13498 98.8962 4.64672 98.8959 4.15845C98.8957 3.86681 98.8951 3.57518 98.8932 3.28355C98.8915 3.00906 98.8912 2.7346 98.892 2.46011C98.892 2.31162 98.8906 2.16313 98.8892 2.01465C98.8939 1.19834 98.8939 1.19834 99.2207 0.85294C99.579 0.594621 99.91 0.582541 100.324 0.705882Z" fill="white"/>
<path d="M69.8733 3.89982C69.9533 3.89685 69.9533 3.89685 70.035 3.89382C70.3295 3.89594 70.4563 3.92928 70.6858 4.11897C70.9617 4.46241 71.0242 4.66826 70.9854 5.11765C70.8664 5.42712 70.756 5.61046 70.4707 5.77941C70.2317 5.81761 70.2317 5.81761 69.956 5.83916C69.3976 5.89546 68.9718 6.08668 68.4854 6.36765C68.4305 6.39343 68.3757 6.41921 68.3191 6.44577C68.151 6.53643 68.1194 6.63697 68.0442 6.80882C67.9957 6.85735 67.9472 6.90588 67.8972 6.95588C67.8753 7.16706 67.8753 7.16706 67.8796 7.41781C67.8794 7.46518 67.8793 7.51254 67.8791 7.56134C67.8789 7.66433 67.8789 7.76732 67.8793 7.87031C67.8797 8.03354 67.879 8.19673 67.878 8.35996C67.8753 8.82408 67.8739 9.2882 67.8747 9.75233C67.8752 10.0362 67.8738 10.32 67.8714 10.6039C67.8708 10.7118 67.8709 10.8198 67.8717 10.9278C67.8783 11.8799 67.8783 11.8799 67.6461 12.1681C67.3294 12.4271 67.1045 12.4217 66.7038 12.418C66.4217 12.389 66.2657 12.2938 66.059 12.1029C65.9339 11.8961 65.8934 11.7428 65.8927 11.5024C65.8922 11.4419 65.8917 11.3814 65.8911 11.319C65.8913 11.2533 65.8915 11.1875 65.8917 11.1198C65.8913 11.0501 65.8909 10.9803 65.8906 10.9085C65.8895 10.6779 65.8896 10.4473 65.8898 10.2167C65.8895 10.0565 65.8892 9.89623 65.8888 9.73597C65.8883 9.40003 65.8883 9.06409 65.8887 8.72815C65.8891 8.29759 65.8879 7.86705 65.8862 7.43649C65.8851 7.10551 65.885 6.77454 65.8852 6.44357C65.8852 6.28482 65.8848 6.12607 65.8841 5.96732C65.8832 5.74536 65.8837 5.52345 65.8845 5.30149C65.884 5.23589 65.8834 5.1703 65.8828 5.10271C65.8858 4.75198 65.906 4.52084 66.1325 4.2353C66.4226 3.97239 66.738 3.97358 67.1131 3.98369C67.4251 4.0331 67.542 4.1475 67.7501 4.38235C67.8015 4.47918 67.8511 4.57703 67.8972 4.67647C67.9654 4.60974 68.0337 4.54302 68.104 4.47427C68.6322 4.03111 69.1995 3.91468 69.8733 3.89982Z" fill="white"/>
<path d="M74.9788 22.5901C75.0346 22.5865 75.0904 22.5829 75.148 22.5792C75.4224 22.6394 75.5194 22.7655 75.6911 22.9853C75.745 23.2177 75.7414 23.4449 75.7387 23.6827C75.7396 23.7873 75.7396 23.7873 75.7406 23.894C75.7422 24.1242 75.7412 24.3543 75.7399 24.5846C75.7402 24.7447 75.7405 24.9049 75.741 25.065C75.7415 25.4005 75.7408 25.736 75.739 26.0715C75.7369 26.5015 75.7381 26.9314 75.7403 27.3614C75.7417 27.6921 75.7413 28.0228 75.7403 28.3534C75.7401 28.512 75.7404 28.6705 75.7412 28.829C75.7421 29.0507 75.7407 29.2722 75.7387 29.4938C75.7394 29.5593 75.7402 29.6248 75.7409 29.6922C75.7354 30.0183 75.7235 30.15 75.5155 30.4143C75.3107 30.5684 75.2106 30.6261 74.9558 30.6324C74.6732 30.5645 74.4767 30.4954 74.294 30.2647C74.1696 30.0158 74.2083 29.7327 74.2075 29.4588C74.207 29.3905 74.2065 29.3223 74.206 29.2519C74.2046 29.0253 74.2037 28.7987 74.203 28.5721C74.2027 28.4948 74.2024 28.4175 74.2021 28.3379C74.2006 27.9289 74.1995 27.5199 74.1988 27.1109C74.198 26.6881 74.1955 26.2653 74.1926 25.8425C74.1906 25.5177 74.19 25.1929 74.1897 24.8681C74.1894 24.7122 74.1885 24.5563 74.1872 24.4005C74.1854 24.1824 74.1854 23.9643 74.186 23.7462C74.185 23.6818 74.1841 23.6173 74.1831 23.5509C74.1857 23.2495 74.1962 23.0974 74.3605 22.8366C74.5702 22.6387 74.6968 22.6024 74.9788 22.5901Z" fill="white"/>
<path d="M75.6084 19.6719C75.842 19.8986 75.8546 20.0428 75.8658 20.3612C75.8641 20.6726 75.8585 20.7527 75.6636 21.0092C75.3266 21.2499 75.0686 21.2594 74.6617 21.2206C74.354 21.0935 74.2053 20.9376 74.0735 20.6324C74.0341 20.2643 74.0656 20.0437 74.2941 19.75C74.6938 19.389 75.154 19.3656 75.6084 19.6719Z" fill="white"/>
</svg>
