<svg width="115" height="33" viewBox="0 0 115 33" fill="none" xmlns="http://www.w3.org/2000/svg">
<path d="M17.0931 0.00423872C17.1809 0.00551105 17.2688 0.00678338 17.3593 0.00809427C18.7688 0.068363 20.1925 0.427421 21.5221 0.915335C21.5757 0.934677 21.6293 0.954019 21.6845 0.973947C23.8994 1.78721 25.8106 3.26569 27.4512 5.01527C27.4906 5.05442 27.5299 5.09356 27.5704 5.1339C27.8558 5.42084 28.0995 5.7347 28.3397 6.06398C28.3718 6.10768 28.4039 6.15138 28.437 6.1964C28.6656 6.51492 28.6656 6.51492 28.6656 6.68561C28.7128 6.68561 28.7599 6.68561 28.8085 6.68561C28.9118 6.8336 28.9118 6.8336 29.0317 7.04151C29.0762 7.11824 29.1207 7.19497 29.1665 7.27403C29.2368 7.39617 29.2368 7.39617 29.3086 7.52078C29.3778 7.63588 29.3778 7.63588 29.4484 7.7533C30.2357 9.07376 30.8131 10.4836 31.1966 11.9924C31.235 12.1431 31.2752 12.2933 31.3155 12.4434C32.1891 15.8701 31.8328 19.8935 30.3801 23.0853C30.3385 23.1835 30.2971 23.2818 30.2559 23.3801C29.8284 24.3903 29.3102 25.3264 28.6656 26.1982C28.6273 26.2546 28.589 26.311 28.5496 26.3691C28.5113 26.4255 28.4729 26.4818 28.4335 26.5399C28.3992 26.5908 28.365 26.6417 28.3297 26.6941C28.2991 26.7309 28.2685 26.7677 28.237 26.8056C28.1899 26.8056 28.1427 26.8056 28.0942 26.8056C28.0766 26.8484 28.059 26.8912 28.0409 26.9353C27.6368 27.7206 26.8512 28.4269 26.1654 28.9315C26.1126 28.9894 26.0599 29.0472 26.0055 29.1068C25.7785 29.3419 25.5387 29.5262 25.2769 29.7145C25.2266 29.7509 25.1763 29.7873 25.1244 29.8248C24.652 30.1624 24.1677 30.4692 23.6652 30.7537C23.621 30.7789 23.5768 30.804 23.5314 30.8299C20.0068 32.817 15.7432 33.2436 11.916 32.0501C10.2888 31.5152 8.76634 30.7406 7.37786 29.6908C7.30732 29.6383 7.23679 29.5859 7.16411 29.5318C6.82671 29.2769 6.52015 29.0243 6.23489 28.7038C6.15662 28.635 6.07772 28.567 5.99826 28.4997C5.93491 28.4418 5.87155 28.3838 5.80628 28.3241C5.80628 28.274 5.80628 28.2239 5.80628 28.1723C5.76346 28.1524 5.72064 28.1326 5.67652 28.1121C5.51121 28.015 5.42791 27.9246 5.31069 27.7689C5.18662 27.6055 5.06114 27.4564 4.92087 27.3078C2.24716 24.4575 1.00749 20.3105 0.921875 16.366C0.997164 13.0285 1.81779 9.59707 3.76506 6.91902C3.84607 6.80557 3.92447 6.69001 4.00114 6.57321C4.39172 5.98005 4.8346 5.45928 5.30623 4.93934C5.34276 4.89885 5.3793 4.85835 5.41694 4.81663C5.87531 4.31087 6.34648 3.84047 6.87781 3.42085C6.91443 3.39172 6.95104 3.36259 6.98877 3.33258C8.75743 1.9323 10.7757 0.846743 12.9498 0.383862C13.0104 0.370674 13.071 0.357486 13.1334 0.343898C14.4596 0.059151 15.7416 -0.0204862 17.0931 0.00423872ZM9.37805 3.72455C9.33494 3.75123 9.29182 3.77791 9.24739 3.8054C8.32247 4.38683 7.48357 5.10868 6.73494 5.92636C6.37776 6.30599 6.37776 6.30599 6.26695 6.41943C5.95671 6.74058 5.68379 7.07827 5.42231 7.44486C5.38219 7.50103 5.34207 7.5572 5.30074 7.61508C4.92942 8.14307 4.6032 8.68876 4.30613 9.26705C4.26987 9.33724 4.26987 9.33724 4.23288 9.40885C2.74527 12.3284 2.21769 15.7196 2.80599 18.9854C2.82204 19.0756 2.82204 19.0756 2.83843 19.1677C2.98395 19.9642 3.18211 20.73 3.44891 21.4909C3.46609 21.5409 3.48328 21.5908 3.50098 21.6423C4.20457 23.6606 5.40089 25.3891 6.8153 26.91C6.85507 26.953 6.89483 26.996 6.9358 27.0403C7.12196 27.2652 7.12196 27.2652 7.37786 27.3371C7.37786 27.3872 7.37786 27.4373 7.37786 27.489C7.5462 27.6383 7.71495 27.7781 7.8913 27.916C7.94321 27.957 7.99513 27.9979 8.04861 28.0401C8.50067 28.3923 8.96642 28.7051 9.44949 29.0075C9.54121 29.071 9.54121 29.071 9.63478 29.1359C10.804 29.9235 12.1756 30.377 13.5213 30.6778C13.6209 30.7012 13.7206 30.7246 13.8202 30.7481C17.2563 31.5241 20.9631 30.6051 23.8878 28.5973C24.6226 28.0812 25.2807 27.485 25.916 26.8382C26.0141 26.7383 26.113 26.6394 26.212 26.5405C26.9537 25.7808 27.557 24.9067 28.0912 23.9738C28.1619 23.851 28.2346 23.7296 28.3073 23.6082C28.9806 22.4361 29.4628 21.0849 29.7372 19.7447C29.7629 19.6246 29.7887 19.5046 29.8145 19.3846C29.841 19.2579 29.8673 19.1312 29.8934 19.0044C29.9054 18.9469 29.9174 18.8895 29.9297 18.8303C30.2286 17.3166 30.2347 15.566 29.9515 14.0503C29.9384 13.9791 29.9253 13.9078 29.9119 13.8344C29.552 11.9267 28.9404 10.1514 27.9513 8.5078C27.9106 8.43812 27.8699 8.36843 27.8279 8.29664C27.473 7.70673 27.0637 7.18434 26.628 6.66157C26.5167 6.52667 26.4079 6.38973 26.2991 6.2526C26.1496 6.06694 25.9981 5.89867 25.8216 5.7413C25.6155 5.55538 25.414 5.36577 25.2144 5.17186C24.5429 4.53965 23.7973 4.04553 23.0222 3.5727C22.9587 3.53334 22.9587 3.53334 22.8939 3.49318C21.6671 2.7377 20.34 2.26049 18.9504 1.97828C18.8893 1.96585 18.8281 1.95342 18.7651 1.94061C15.556 1.3199 12.1884 1.97923 9.37805 3.72455Z" fill="#DD3619"/>
<path d="M45.0292 1.13363C45.3103 1.39482 45.4323 1.69091 45.5753 2.04828C45.612 2.13821 45.612 2.13821 45.6495 2.22995C45.9453 2.95974 46.2217 3.69797 46.4978 4.43635C46.5544 4.58724 46.6111 4.73813 46.6678 4.88901C46.8151 5.28127 46.9622 5.67365 47.1091 6.06607C47.346 6.69826 47.5833 7.33026 47.8206 7.96227C47.9031 8.18238 47.9856 8.40254 48.0681 8.6227C48.1182 8.75642 48.1684 8.89014 48.2185 9.02386C48.2414 9.08506 48.2643 9.14627 48.2879 9.20932C48.3987 9.50756 48.3987 9.50756 48.5251 9.79853C48.5483 9.73636 48.5483 9.73636 48.572 9.67293C48.9498 8.66304 49.3284 7.65353 49.7081 6.64444C49.8916 6.15644 50.0749 5.66831 50.2575 5.17988C50.4337 4.70845 50.6107 4.23738 50.7883 3.76652C50.8558 3.58689 50.9231 3.40714 50.9901 3.22727C51.0841 2.97521 51.1791 2.7236 51.2743 2.47206C51.3017 2.39773 51.3291 2.3234 51.3574 2.24682C51.5442 1.75753 51.7284 1.37862 52.1526 1.07846C52.4409 0.969149 52.6863 0.957693 52.9898 0.962795C53.0422 0.961914 53.0946 0.961034 53.1486 0.960126C53.5421 0.962371 53.8427 1.04175 54.1431 1.33293C54.3906 1.67087 54.463 1.88808 54.4642 2.31056C54.4646 2.39529 54.4651 2.48002 54.4655 2.56732C54.4656 2.70683 54.4656 2.70683 54.4657 2.84916C54.4661 2.94707 54.4664 3.04499 54.4668 3.14587C54.4677 3.41459 54.4682 3.68331 54.4685 3.95203C54.4687 4.11993 54.469 4.28783 54.4693 4.45572C54.4703 4.98107 54.471 5.50641 54.4713 6.03175C54.4716 6.63813 54.4728 7.2445 54.4749 7.85088C54.4765 8.31966 54.4772 8.78842 54.4773 9.2572C54.4773 9.53716 54.4778 9.81711 54.479 10.0971C54.4804 10.4094 54.4801 10.7216 54.4797 11.0339C54.4803 11.1266 54.481 11.2193 54.4817 11.3148C54.4811 11.4425 54.4811 11.4425 54.4805 11.5729C54.4806 11.6467 54.4807 11.7205 54.4808 11.7966C54.441 12.1014 54.3145 12.3024 54.1099 12.5152C53.7985 12.7003 53.4411 12.6615 53.0969 12.6077C52.8664 12.4836 52.714 12.3253 52.5969 12.0763C52.5895 11.9753 52.5864 11.8739 52.5856 11.7727C52.5845 11.6775 52.5845 11.6775 52.5835 11.5804C52.583 11.5106 52.5826 11.4409 52.5822 11.369C52.5815 11.2957 52.5808 11.2224 52.5801 11.1468C52.5778 10.9036 52.576 10.6604 52.5743 10.4172C52.5728 10.2489 52.5713 10.0806 52.5698 9.91228C52.5658 9.46868 52.5623 9.02507 52.5589 8.58146C52.5553 8.12904 52.5513 7.67662 52.5473 7.22421C52.5397 6.33605 52.5324 5.44789 52.5254 4.55973C52.4952 4.63959 52.4952 4.63959 52.4644 4.72106C51.926 6.14324 51.3867 7.56504 50.8463 8.98633C50.7796 9.16181 50.7129 9.33729 50.6462 9.51278C50.5003 9.89702 50.354 10.2811 50.2066 10.6647C50.1664 10.7696 50.1264 10.8745 50.0866 10.9794C50.0326 11.1214 49.978 11.2631 49.9233 11.4048C49.8943 11.4806 49.8653 11.5564 49.8354 11.6345C49.6479 12.0527 49.4529 12.4237 49.0296 12.5843C48.6325 12.7008 48.2613 12.7205 47.8821 12.5318C47.3924 12.2061 47.2252 11.7751 47.0249 11.2174C46.9718 11.0755 46.9186 10.9336 46.8654 10.7918C46.8022 10.6228 46.7397 10.4535 46.6772 10.2842C46.4933 9.78768 46.3049 9.29312 46.1166 8.79846C46.0799 8.70209 46.0433 8.60571 46.0066 8.50934C45.9509 8.363 45.8952 8.21666 45.8396 8.07032C45.7107 7.73178 45.5823 7.3931 45.454 7.05432C45.419 6.96197 45.3841 6.86962 45.348 6.77447C45.2823 6.60084 45.2166 6.42719 45.1509 6.25353C44.946 5.71252 44.7368 5.17351 44.5247 4.63565C44.5244 4.72691 44.5241 4.81816 44.5239 4.91218C44.5212 5.77238 44.5171 6.63257 44.5115 7.49276C44.5087 7.93499 44.5064 8.3772 44.5053 8.81944C44.5042 9.24627 44.5018 9.67307 44.4984 10.0999C44.4973 10.2627 44.4967 10.4255 44.4967 10.5883C44.4965 10.8164 44.4946 11.0445 44.4922 11.2726C44.4926 11.3398 44.4929 11.407 44.4933 11.4763C44.4868 11.889 44.4286 12.1303 44.1675 12.4559C43.8327 12.6931 43.4875 12.6605 43.096 12.6077C42.8803 12.5099 42.8216 12.431 42.6673 12.2281C42.4939 11.7511 42.5043 11.2883 42.506 10.7817C42.5057 10.6908 42.5055 10.5999 42.5052 10.5062C42.5047 10.258 42.5048 10.0098 42.5053 9.76167C42.5056 9.50113 42.5053 9.24059 42.5051 8.98005C42.5048 8.54254 42.5052 8.10504 42.5058 7.66754C42.5066 7.1629 42.5064 6.65826 42.5056 6.15362C42.5049 5.7192 42.5048 5.28479 42.5052 4.85037C42.5054 4.59142 42.5055 4.33247 42.505 4.07352C42.5046 3.78459 42.5052 3.49567 42.506 3.20674C42.5057 3.12173 42.5054 3.03671 42.5051 2.94912C42.5109 1.79922 42.5109 1.79922 42.8683 1.38038C42.9026 1.3383 42.9369 1.29621 42.9723 1.25285C43.4524 0.826702 44.4811 0.829604 45.0292 1.13363Z" fill="black"/>
<path d="M43.796 20.1812C43.8469 20.1797 43.8978 20.1781 43.9502 20.1765C44.2773 20.1739 44.4817 20.2093 44.7381 20.428C44.9444 20.6789 45.0811 20.9115 45.199 21.2196C45.2309 21.3019 45.2627 21.3843 45.2955 21.4692C45.3296 21.5594 45.3637 21.6495 45.3988 21.7424C45.4361 21.8396 45.4734 21.9368 45.5107 22.0339C45.6351 22.3587 45.7582 22.684 45.881 23.0094C45.9026 23.0666 45.9243 23.1239 45.9465 23.1828C46.156 23.7375 46.365 24.2923 46.5733 24.8475C46.9457 25.8398 47.3211 26.8308 47.6982 27.8211C47.725 27.8916 47.7517 27.962 47.7794 28.0346C47.8548 28.233 47.9304 28.4313 48.0059 28.6296C48.0285 28.6889 48.0511 28.7483 48.0743 28.8094C48.185 29.1016 48.185 29.1016 48.3098 29.3871C48.3384 29.3118 48.3384 29.3118 48.3675 29.235C48.4263 29.08 48.485 28.9251 48.5438 28.7702C48.6144 28.5841 48.685 28.3979 48.7556 28.2117C48.934 27.7414 49.1124 27.2711 49.2912 26.801C49.3942 26.5301 49.4972 26.2592 49.6001 25.9883C49.6209 25.9337 49.6416 25.8792 49.663 25.823C49.9383 25.0979 50.2111 24.3719 50.4811 23.6446C50.5985 23.3285 50.7168 23.0127 50.835 22.6968C50.8984 22.5264 50.9615 22.3558 51.0242 22.185C51.1114 21.9477 51.1998 21.711 51.2886 21.4743C51.3136 21.4052 51.3385 21.3362 51.3642 21.265C51.5251 20.8413 51.6937 20.5714 52.0245 20.2761C52.2797 20.1857 52.4921 20.1846 52.7612 20.1812C52.8537 20.1793 52.9462 20.1773 53.0416 20.1753C53.4178 20.2102 53.6347 20.3081 53.8918 20.6038C54.1156 20.9792 54.0649 21.4275 54.0628 21.8562C54.0634 21.9541 54.064 22.0521 54.0646 22.153C54.0662 22.4208 54.066 22.6885 54.0654 22.9563C54.065 23.1801 54.0656 23.4039 54.0661 23.6276C54.0673 24.1556 54.067 24.6835 54.0658 25.2114C54.0646 25.7557 54.0658 26.2999 54.0681 26.8442C54.07 27.312 54.0705 27.7798 54.0699 28.2476C54.0695 28.5268 54.0697 28.806 54.0712 29.0852C54.0727 29.3964 54.0714 29.7075 54.0698 30.0187C54.071 30.1572 54.071 30.1572 54.0723 30.2985C54.0649 30.993 54.0649 30.993 53.8544 31.2283C53.6527 31.3717 53.5509 31.4126 53.3103 31.4086C53.2514 31.4096 53.1924 31.4105 53.1317 31.4116C52.86 31.3348 52.7663 31.22 52.596 30.9815C52.5423 30.705 52.5467 30.4323 52.5489 30.1508C52.5481 30.0671 52.5474 29.9834 52.5466 29.8971C52.5445 29.6206 52.545 29.3442 52.5455 29.0677C52.5445 28.8759 52.5434 28.684 52.5422 28.4922C52.5396 28.0392 52.5386 27.5861 52.5384 27.133C52.5381 26.617 52.5357 26.1011 52.5332 25.5851C52.5281 24.5241 52.5255 23.4631 52.5245 22.402C51.6231 24.7373 51.6231 24.7373 50.7325 27.0773C50.7135 27.1276 50.6945 27.1779 50.6749 27.2298C50.5053 27.6786 50.3358 28.1275 50.1667 28.5765C50.0714 28.8296 49.9759 29.0825 49.8802 29.3354C49.8281 29.4732 49.7763 29.6112 49.7245 29.7492C49.2088 31.1112 49.2088 31.1112 48.7384 31.3611C48.39 31.4738 48.0709 31.4357 47.7383 31.2852C47.3546 31.0307 47.2412 30.7067 47.0798 30.2777C47.0524 30.2074 47.025 30.1371 46.9968 30.0646C46.9095 29.8392 46.8237 29.6132 46.7382 29.3871C46.6829 29.2421 46.6276 29.0972 46.5722 28.9522C46.3997 28.4984 46.2295 28.0436 46.0596 27.5886C45.9459 27.2846 45.832 26.9806 45.7181 26.6766C45.6886 26.598 45.6591 26.5194 45.6288 26.4384C45.1228 25.0907 44.6081 23.7467 44.0951 22.402C44.0951 22.4678 44.0951 22.4678 44.095 22.535C44.0939 23.6027 44.0909 24.6705 44.0857 25.7382C44.0832 26.2546 44.0814 26.7709 44.0812 27.2873C44.0809 27.7855 44.0788 28.2837 44.0756 28.7819C44.0747 28.9721 44.0744 29.1623 44.0747 29.3525C44.075 29.6186 44.0732 29.8847 44.0708 30.1508C44.0714 30.2297 44.072 30.3086 44.0727 30.3898C44.0672 30.7519 44.0643 30.9247 43.8533 31.2201C43.5942 31.4158 43.4309 31.4151 43.1221 31.3985C42.8592 31.3407 42.7465 31.2101 42.595 30.9815C42.5225 30.7484 42.5143 30.533 42.5135 30.2885C42.5131 30.2098 42.5127 30.1312 42.5123 30.0501C42.5122 29.9643 42.5121 29.8784 42.512 29.7899C42.5115 29.6538 42.5115 29.6538 42.511 29.5149C42.5101 29.2661 42.5096 29.0172 42.5093 28.7684C42.509 28.6127 42.5087 28.4571 42.5084 28.3014C42.5075 27.8137 42.5068 27.3259 42.5065 26.8382C42.5062 26.2765 42.5049 25.7147 42.5028 25.1529C42.5013 24.7179 42.5006 24.2829 42.5005 23.8479C42.5004 23.5885 42.5 23.3291 42.4987 23.0697C42.4975 22.7798 42.4976 22.49 42.4981 22.2001C42.4974 22.115 42.4968 22.0299 42.4961 21.9423C42.4985 21.4596 42.531 21.0175 42.7379 20.5798C43.0802 20.2248 43.333 20.1847 43.796 20.1812Z" fill="black"/>
<path d="M82.7152 3.84318C82.7773 3.84241 82.8395 3.84164 82.9036 3.84084C83.8751 3.85467 84.7468 4.2928 85.4518 4.9951C86.458 6.16772 86.605 7.51723 86.5444 9.03857C86.4662 10.1288 85.9538 11.0569 85.2199 11.8058C84.3864 12.5396 83.3896 12.8132 82.3234 12.7409C81.6241 12.6566 81.1228 12.4569 80.5274 12.0763C80.527 12.1201 80.5266 12.164 80.5262 12.2092C80.5216 12.6662 80.5156 13.1231 80.5087 13.58C80.5063 13.7505 80.5043 13.921 80.5027 14.0915C80.5003 14.3367 80.4966 14.5819 80.4926 14.827C80.4919 14.9412 80.4919 14.9412 80.4912 15.0576C80.4779 15.7273 80.4779 15.7273 80.2417 16.0243C79.9279 16.2442 79.6856 16.2945 79.313 16.2521C79.0225 16.1431 78.8244 16.0103 78.6576 15.73C78.5178 15.3477 78.56 14.9169 78.5628 14.5125C78.5626 14.4046 78.5622 14.2967 78.5617 14.1888C78.5607 13.8965 78.5615 13.6043 78.5627 13.3121C78.5636 13.0059 78.5632 12.6998 78.5629 12.3936C78.5627 11.8796 78.5637 11.3657 78.5654 10.8517C78.5673 10.2577 78.5674 9.66378 78.5665 9.06981C78.5658 8.49797 78.5662 7.92613 78.5672 7.35429C78.5676 7.11111 78.5676 6.86794 78.5673 6.62477C78.567 6.3384 78.5677 6.05206 78.5692 5.7657C78.5696 5.66069 78.5697 5.55568 78.5693 5.45067C78.5689 5.3072 78.5699 5.16372 78.571 5.02025C78.5712 4.94001 78.5713 4.85976 78.5715 4.77709C78.6115 4.45743 78.7332 4.25696 78.9559 4.04248C79.2884 3.90259 79.6038 3.89313 79.956 3.95232C80.1552 4.05594 80.2351 4.14794 80.3846 4.33194C80.4309 4.49684 80.4309 4.49684 80.456 4.63564C80.4925 4.60628 80.5289 4.57692 80.5665 4.54667C81.2513 4.02532 81.8809 3.8505 82.7152 3.84318ZM80.456 6.76153C80.4264 7.18447 80.4183 7.60747 80.4114 8.03144C80.4084 8.17411 80.404 8.31676 80.3982 8.45933C80.3397 9.28296 80.3397 9.28296 80.6064 10.0245C80.7892 10.1828 80.9584 10.2973 81.1704 10.4059C81.2318 10.4396 81.2932 10.4733 81.3564 10.508C81.9341 10.8121 82.592 10.8958 83.2222 10.7363C83.7536 10.532 84.2072 10.1947 84.4832 9.66091C84.8259 8.82769 84.8412 7.88347 84.5337 7.03646C84.4369 6.81473 84.4369 6.81473 84.3135 6.60968C84.2428 6.58463 84.1721 6.55957 84.0992 6.53376C84.0992 6.48365 84.0992 6.43354 84.0992 6.38191C83.58 5.92139 83.0544 5.73377 82.3817 5.75138C81.6408 5.83252 80.9824 6.20205 80.456 6.76153Z" fill="black"/>
<path d="M11.0934 19.5928C11.3691 19.6353 11.4923 19.7623 11.6843 19.9708C11.744 20.0349 11.8036 20.0991 11.8651 20.1652C11.9613 20.2703 11.9613 20.2703 12.0595 20.3776C12.1271 20.4504 12.1948 20.5232 12.2625 20.5959C12.5135 20.8658 12.7634 21.1368 13.0133 21.4079C14.2008 22.7063 14.2008 22.7063 15.5224 23.8446C15.5747 23.8854 15.6269 23.9262 15.6807 23.9682C16.3273 24.4651 17.0143 24.8563 17.7369 25.2112C17.8184 25.2517 17.8998 25.2923 17.9836 25.334C20.2892 26.4339 22.5397 26.4707 25.0234 26.426C25.0234 26.7297 25.0234 26.7297 24.8841 26.8848C24.0658 27.566 23.2273 28.1858 22.3088 28.7038C22.1907 28.7704 22.1907 28.7704 22.0702 28.8384C20.9002 29.4567 19.6028 29.8816 18.3084 30.0704C18.2105 30.0851 18.2105 30.0851 18.1106 30.1001C17.9382 30.122 17.7674 30.136 17.5941 30.1463C17.5235 30.1521 17.453 30.1579 17.3803 30.1638C16.9266 30.1861 16.6362 30.1424 16.2602 29.8646C16.2133 29.8161 16.2133 29.8161 16.1654 29.7667C16.1654 29.7166 16.1654 29.6665 16.1654 29.6149C16.1167 29.5992 16.0681 29.5835 16.018 29.5674C15.7427 29.4304 15.5169 29.2428 15.3081 29.0075C15.3081 28.9574 15.3081 28.9072 15.3081 28.8556C15.2703 28.8401 15.2324 28.8245 15.1935 28.8085C14.9489 28.6588 14.7685 28.4564 14.5715 28.2435C14.5093 28.1767 14.5093 28.1767 14.4458 28.1086C14.1341 27.7696 13.8544 27.4182 13.5937 27.0334C13.5494 26.9716 13.5051 26.9097 13.4595 26.846C12.0294 24.8234 10.9655 22.1622 11.0934 19.5928Z" fill="#D92718"/>
<path d="M13.3068 10.7856C13.2044 11.0937 13.1018 11.2342 12.857 11.4351C12.7185 11.56 12.6069 11.6962 12.4897 11.8438C12.2941 12.0883 12.0883 12.2908 11.8555 12.4942C11.7305 12.6122 11.6272 12.7365 11.5209 12.8735C11.3786 13.0569 11.2338 13.2113 11.061 13.3623C10.8318 13.5645 10.6421 13.7849 10.4499 14.0263C10.3121 14.1953 10.1689 14.3574 10.024 14.5196C9.58856 15.0106 9.22137 15.532 8.87779 16.1003C8.83832 16.1641 8.83832 16.1641 8.79805 16.2291C8.07798 17.399 7.57915 18.7021 7.23477 20.0484C7.21506 20.1222 7.21506 20.1222 7.19494 20.1974C6.73061 21.9557 6.7598 23.7844 6.8776 25.5909C6.59186 25.5909 6.59186 25.5909 6.44591 25.4429C4.78805 23.193 3.53592 20.5979 3.37726 17.6947C3.36662 17.5765 3.36662 17.5765 3.35577 17.456C3.32304 16.87 3.41575 16.5451 3.75397 16.0798C3.79467 16.0365 3.83537 15.9931 3.87731 15.9484C3.92445 15.9484 3.9716 15.9484 4.02018 15.9484C4.03491 15.8965 4.04964 15.8445 4.06482 15.791C4.19584 15.4946 4.38146 15.2879 4.59166 15.0516C4.65023 14.9835 4.65023 14.9835 4.70998 14.9141C4.81012 14.8 4.91489 14.6905 5.02027 14.5818C5.06742 14.5818 5.11457 14.5818 5.16315 14.5818C5.18856 14.5168 5.18856 14.5168 5.21449 14.4504C5.52993 13.8565 6.20709 13.4284 6.73473 13.0633C6.80443 13.0149 6.87414 12.9666 6.94596 12.9168C8.8601 11.6274 11.0217 10.7522 13.3068 10.7856Z" fill="#D82217"/>
<path d="M16.3916 2.85142C16.4598 2.90662 16.5279 2.96182 16.5981 3.01869C16.667 3.07624 16.7359 3.13379 16.8068 3.19308C16.8713 3.24593 16.9358 3.29878 17.0022 3.35323C18.5238 4.63397 19.668 6.28401 20.5215 8.12818C20.5492 8.18642 20.5769 8.24465 20.6055 8.30465C21.0552 9.29847 21.3392 10.3857 21.5216 11.4689C21.531 11.5226 21.5404 11.5763 21.55 11.6317C21.623 12.1292 21.599 12.6374 21.593 13.1392C21.3497 13.0966 21.2552 13.0278 21.1064 12.8213C20.9215 12.5786 20.724 12.3828 20.4986 12.1836C20.3275 12.0306 20.1726 11.8719 20.0214 11.6966C20.0214 11.6465 20.0214 11.5964 20.0214 11.5448C19.9817 11.5276 19.9419 11.5103 19.9009 11.4926C19.6884 11.3644 19.5414 11.2057 19.3785 11.0133C19.3785 10.9632 19.3785 10.9131 19.3785 10.8615C19.3078 10.8364 19.2371 10.8114 19.1642 10.7855C19.0696 10.6806 19.0696 10.6806 18.9722 10.5483C18.7284 10.2361 18.4553 9.98371 18.1641 9.7226C18.0963 9.65908 18.0286 9.59556 17.9587 9.53012C16.5095 8.18001 14.8079 7.22692 12.9493 6.68561C12.8606 6.65909 12.772 6.63257 12.6806 6.60524C11.4771 6.25681 10.2916 6.20823 9.05161 6.22058C8.91604 6.22134 8.78048 6.22203 8.64491 6.22265C8.31762 6.2243 7.99036 6.22691 7.66309 6.23007C7.76584 5.66714 8.41441 5.29187 8.84345 4.98176C9.3386 4.63387 9.84805 4.31333 10.3776 4.02825C10.4426 3.99318 10.4426 3.99318 10.5089 3.95741C11.9462 3.18948 13.4162 2.7631 15.012 2.56196C15.0642 2.55523 15.1164 2.5485 15.1702 2.54157C15.6702 2.4857 15.9892 2.52527 16.3916 2.85142Z" fill="#E1451C"/>
<path d="M25.8081 7.14114C26.1802 7.19226 26.2958 7.33222 26.5264 7.63079C28.0773 9.79224 29.0871 12.2371 29.3084 14.9614C29.3165 15.0483 29.3247 15.1352 29.333 15.2247C29.3651 15.8865 29.2084 16.2139 28.8084 16.7076C28.756 16.7782 28.7036 16.8488 28.6496 16.9215C28.3431 17.3322 28.0211 17.7119 27.6654 18.0743C27.6089 18.1345 27.5523 18.1947 27.4941 18.2567C25.5076 20.3648 22.5523 21.9547 19.7048 21.9654C19.5961 21.9608 19.4874 21.9554 19.3789 21.9464C19.5376 21.4889 19.8132 21.2469 20.1558 20.9357C20.4142 20.6996 20.632 20.4428 20.8472 20.1625C20.8813 20.1248 20.9154 20.0872 20.9505 20.0483C20.9976 20.0483 21.0448 20.0483 21.0934 20.0483C21.1096 20.0061 21.1258 19.9638 21.1425 19.9202C21.2631 19.6944 21.4124 19.5381 21.5934 19.365C21.6406 19.365 21.6877 19.365 21.7363 19.365C21.7525 19.3227 21.7687 19.2804 21.7854 19.2369C21.906 19.0111 22.0554 18.8548 22.2363 18.6817C22.2835 18.6817 22.3306 18.6817 22.3792 18.6817C22.3969 18.6394 22.4146 18.5971 22.4328 18.5536C22.5384 18.3458 22.6603 18.1748 22.8078 17.9984C22.855 17.9984 22.9021 17.9984 22.9507 17.9984C22.9696 17.9554 22.9884 17.9124 23.0079 17.8682C23.0998 17.682 23.2057 17.5189 23.3213 17.3483C24.1152 16.1502 24.7748 14.9051 25.1938 13.5059C25.2312 13.3845 25.2732 13.2648 25.3159 13.1454C25.9849 11.2501 25.9392 9.12899 25.8081 7.14114Z" fill="#E24A1D"/>
<path d="M10.3059 14.7336C10.4002 14.7587 10.4945 14.7837 10.5917 14.8095C10.5921 14.8715 10.5925 14.9334 10.593 14.9972C10.5971 15.5889 10.6023 16.1805 10.6085 16.7722C10.6117 17.0761 10.6145 17.3801 10.6164 17.6841C10.6289 20.1993 10.6289 20.1993 11.1096 22.6535C11.1421 22.7668 11.1421 22.7668 11.1752 22.8824C11.7262 24.7611 12.5925 26.4551 13.8063 27.9445C13.8559 28.0066 13.9055 28.0686 13.9567 28.1325C14.4452 28.7283 14.9879 29.3046 15.5844 29.7792C15.6341 29.8252 15.6838 29.8712 15.735 29.9185C15.735 29.9937 15.735 30.0689 15.735 30.1463C15.1745 30.1669 14.6448 30.0903 14.092 29.9945C13.9593 29.9736 13.9593 29.9736 13.8239 29.9524C13.0213 29.8129 12.2789 29.5425 11.5203 29.2352C11.3973 29.1856 11.3973 29.1856 11.2717 29.135C10.0476 28.616 8.94864 27.8612 7.94857 26.9575C7.86374 26.8895 7.77891 26.8214 7.69408 26.7534C7.19905 26.2543 7.2483 25.1844 7.22577 24.4989C7.15092 20.7726 8.10055 17.6478 10.3059 14.7336Z" fill="#D71D16"/>
<path d="M13.5216 7.29302C13.5692 7.30928 13.6167 7.32554 13.6657 7.34229C15.0722 7.82601 16.9148 8.7014 17.8792 9.95038C17.8792 10.0255 17.8792 10.1007 17.8792 10.1782C17.8037 10.1788 17.8037 10.1788 17.7267 10.1795C17.2427 10.184 16.7587 10.1895 16.2747 10.1961C16.0261 10.1994 15.7775 10.2024 15.5289 10.2045C13.8276 10.2191 12.087 10.2432 10.4499 10.7856C10.3927 10.804 10.3355 10.8224 10.2766 10.8413C8.40913 11.4476 6.71104 12.3837 5.2725 13.8062C5.16368 13.8985 5.16368 13.8985 5.0208 13.8985C5.00165 13.947 4.9825 13.9956 4.96276 14.0456C4.87793 14.2022 4.87793 14.2022 4.66363 14.2781C4.57727 14.43 4.57727 14.43 4.52076 14.5818C4.47361 14.5818 4.42646 14.5818 4.37789 14.5818C4.36085 14.6229 4.34381 14.664 4.32626 14.7064C4.211 14.9326 4.06985 15.1217 3.91802 15.3221C3.86212 15.3968 3.80623 15.4716 3.74864 15.5486C3.69698 15.6054 3.64532 15.6622 3.59209 15.7207C3.52137 15.7207 3.45065 15.7207 3.37779 15.7207C3.25907 12.8046 4.53219 9.81342 6.23521 7.59672C6.27996 7.53447 6.32471 7.47222 6.37082 7.40809C6.6331 7.06212 6.82499 6.84036 7.24703 6.78142C7.31388 6.77486 7.38073 6.7683 7.44961 6.76155C7.58525 6.74114 7.58525 6.74114 7.72363 6.72032C9.68751 6.43436 11.6419 6.63169 13.5216 7.29302Z" fill="#DC3219"/>
<path d="M29.0936 17.0114C29.1643 17.0114 29.235 17.0114 29.3079 17.0114C29.4143 19.626 28.378 22.367 26.9505 24.452C26.8959 24.5324 26.8413 24.6129 26.7851 24.6958C26.0522 25.7596 26.0522 25.7596 25.5564 25.8532C25.5081 25.8606 25.4599 25.868 25.4102 25.8756C25.3593 25.8844 25.3083 25.8932 25.2558 25.9022C25.1066 25.9271 24.9572 25.9493 24.8075 25.9705C24.7373 25.9806 24.6671 25.9906 24.5948 26.001C23.5298 26.1201 22.4376 26.0873 21.3797 25.9172C21.2396 25.8952 21.0989 25.8764 20.9583 25.8578C18.8111 25.5452 16.4281 24.4292 14.8779 22.7816C14.8779 22.6814 14.8779 22.5812 14.8779 22.4779C14.9363 22.4775 14.9948 22.4771 15.055 22.4766C15.6127 22.4721 16.1705 22.4667 16.7282 22.46C17.0148 22.4567 17.3013 22.4537 17.5879 22.4516C18.8412 22.4424 20.0712 22.4237 21.3071 22.1742C21.3891 22.1589 21.4711 22.1436 21.5556 22.1279C23.9423 21.6574 26.1362 20.2012 27.8792 18.4539C27.9229 18.4106 27.9667 18.3672 28.0117 18.3226C28.3338 17.9928 28.6122 17.6288 28.8921 17.2587C29.0222 17.0873 29.0222 17.0873 29.0936 17.0114Z" fill="#DE3A1B"/>
<path d="M16.9502 2.5857C18.2196 2.50039 19.474 2.83613 20.6648 3.26902C20.7492 3.29956 20.8335 3.3301 20.9204 3.36156C22.273 3.88559 24.5704 4.92974 25.249 6.32648C26.0802 9.23948 25.2908 12.8938 23.9947 15.5151C23.5571 16.3698 23.0285 17.2325 22.3793 17.9225C22.285 17.9225 22.1907 17.9225 22.0936 17.9225C22.0931 17.8574 22.0927 17.7923 22.0923 17.7252C22.0881 17.1044 22.0829 16.4837 22.0767 15.8629C22.0736 15.544 22.0707 15.225 22.0688 14.906C22.0624 12.9107 22.0624 12.9107 21.8078 10.9374C21.7975 10.8841 21.7872 10.8308 21.7766 10.7759C21.1712 7.68559 19.419 4.86393 17.1199 2.89415C17.0639 2.84247 17.0079 2.79079 16.9502 2.73755C16.9502 2.68744 16.9502 2.63733 16.9502 2.5857Z" fill="#E34F1D"/>
<path d="M38.3091 10.7855C38.3107 12.2196 38.312 13.6537 38.3128 15.0878C38.3131 15.7536 38.3136 16.4195 38.3145 17.0853C38.3152 17.6654 38.3156 18.2455 38.3158 18.8257C38.3159 19.133 38.3161 19.4404 38.3166 19.7477C38.3171 20.0367 38.3173 20.3257 38.3171 20.6146C38.3172 20.721 38.3173 20.8274 38.3176 20.9337C38.3179 21.0783 38.3178 21.2229 38.3177 21.3675C38.3177 21.4486 38.3178 21.5298 38.3179 21.6133C38.3091 21.7946 38.3091 21.7946 38.2376 21.8705C37.7749 21.8483 37.4281 21.6506 37.0232 21.4245C36.8831 21.3481 36.7429 21.2719 36.6027 21.1958C36.5308 21.1566 36.4588 21.1174 36.3847 21.0771C36.0332 20.888 35.6779 20.7075 35.3222 20.5276C35.2539 20.493 35.1856 20.4583 35.1152 20.4226C34.8008 20.2634 34.4859 20.1055 34.1697 19.9502C34.0879 19.9098 34.0879 19.9098 34.0045 19.8687C33.9055 19.82 33.8063 19.7716 33.707 19.7237C33.366 19.556 33.0518 19.355 32.7371 19.1372C32.7414 19.087 32.7458 19.0367 32.7502 18.985C32.8899 17.3254 32.9495 15.7032 32.7628 14.0451C32.7554 13.9696 32.7481 13.8941 32.7404 13.8163C32.7292 13.7162 32.7292 13.7162 32.7178 13.6141C32.7371 13.4429 32.7371 13.4429 32.8608 13.3151C33.0137 13.2208 33.1633 13.139 33.3256 13.0648C33.3836 13.0378 33.4416 13.0108 33.5014 12.983C33.563 12.9547 33.6246 12.9264 33.6881 12.8972C34.1305 12.6901 34.5642 12.4767 34.9873 12.2281C35.4553 11.9539 35.9366 11.7206 36.4257 11.4922C36.7053 11.361 36.9817 11.2278 37.2526 11.0771C37.298 11.0518 37.3434 11.0266 37.3902 11.0006C37.5101 10.9328 37.6293 10.8637 37.7485 10.7944C37.9798 10.698 38.0739 10.7242 38.3091 10.7855Z" fill="#E75E1F"/>
<path d="M113.092 4.57098C113.798 5.21645 114.123 6.05673 114.194 7.0395C114.202 7.34875 114.204 7.65721 114.203 7.96654C114.203 8.08008 114.203 8.19362 114.203 8.30716C114.204 8.54319 114.203 8.7792 114.202 9.01523C114.201 9.31716 114.202 9.61904 114.203 9.92097C114.204 10.1546 114.203 10.3882 114.203 10.6219C114.203 10.7332 114.203 10.8446 114.203 10.956C114.204 11.1113 114.203 11.2665 114.202 11.4218C114.202 11.51 114.202 11.5981 114.201 11.6889C114.162 12.0294 114.024 12.2248 113.817 12.4796C113.491 12.6742 113.182 12.6568 112.817 12.6077C112.55 12.486 112.479 12.4105 112.317 12.1522C112.317 12.077 112.317 12.0019 112.317 11.9244C112.276 11.9538 112.235 11.9831 112.193 12.0134C111.245 12.6606 110.14 12.9115 109.027 12.6718C108.336 12.4615 107.787 12.1128 107.388 11.4689C107.024 10.7576 106.996 9.94596 107.178 9.16739C107.428 8.41896 107.939 7.93504 108.602 7.5967C109.722 7.1528 110.928 7.16065 112.103 7.293C112.15 7.31806 112.197 7.34311 112.245 7.36893C112.138 6.76696 112.138 6.76696 111.884 6.22531C111.17 5.72513 110.364 5.78566 109.558 5.95483C109.311 6.01059 109.066 6.06868 108.821 6.13515C108.534 6.20938 108.318 6.26005 108.035 6.14939C107.792 5.98581 107.702 5.90871 107.602 5.62266C107.547 5.2649 107.564 5.01674 107.723 4.69258C108.031 4.35917 108.479 4.2414 108.888 4.10416C108.955 4.0797 109.023 4.05523 109.092 4.03002C110.386 3.63234 111.998 3.68555 113.092 4.57098ZM109.102 9.49482C108.987 9.74041 108.989 9.98859 109.031 10.2541C109.193 10.582 109.417 10.7509 109.745 10.8615C110.534 10.9571 111.19 10.7952 111.821 10.2825C111.97 10.1516 112.109 10.0196 112.245 9.87444C112.263 9.65435 112.263 9.65435 112.254 9.4094C112.253 9.32621 112.252 9.24302 112.25 9.15731C112.249 9.0933 112.247 9.02929 112.245 8.96334C110.579 8.83875 110.579 8.83875 109.102 9.49482Z" fill="black"/>
<path d="M59.5656 3.85267C59.6454 3.85047 59.7252 3.84826 59.8074 3.846C60.7238 3.83866 61.5117 4.11955 62.1822 4.79283C62.9783 5.68731 63.0484 6.7018 63.0472 7.88231C63.0475 7.9977 63.0478 8.11309 63.0481 8.22847C63.0487 8.46912 63.0487 8.70975 63.0483 8.95039C63.0479 9.25802 63.0491 9.56561 63.0507 9.87324C63.0518 10.111 63.0519 10.3489 63.0516 10.5867C63.0517 10.7001 63.052 10.8135 63.0528 10.9269C63.0536 11.0855 63.0532 11.244 63.0523 11.4026C63.0524 11.4926 63.0524 11.5826 63.0525 11.6753C63.0151 12.0238 62.9103 12.2815 62.6686 12.5223C62.3354 12.6551 62.0192 12.6673 61.6685 12.6077C61.4078 12.4648 61.2589 12.2585 61.097 12.0003C61.0218 12.0567 60.9467 12.1131 60.8693 12.1712C59.9884 12.7504 58.8997 12.8696 57.8944 12.6718C57.1868 12.4715 56.6582 12.1098 56.2394 11.4689C55.899 10.8351 55.8574 10.0457 55.9999 9.34208C56.2293 8.59507 56.7059 8.04461 57.3511 7.66788C58.4894 7.09774 59.8036 7.18615 61.0255 7.29301C61.0065 6.83781 60.9673 6.5053 60.6684 6.15414C59.7202 5.62278 58.7361 5.87315 57.7468 6.13249C57.3928 6.2189 57.1432 6.27535 56.8108 6.07821C56.6191 5.89216 56.4781 5.74803 56.4241 5.47111C56.4107 5.13014 56.4637 4.89616 56.668 4.63564C56.9995 4.36647 57.3126 4.24211 57.7083 4.1279C57.7612 4.1118 57.8142 4.0957 57.8688 4.07911C58.4436 3.90668 58.9681 3.85804 59.5656 3.85267ZM58.0252 9.4189C57.8489 9.70003 57.8261 9.92803 57.8824 10.2541C58.0384 10.5174 58.1647 10.6669 58.4226 10.814C59.3053 10.9846 59.9943 10.7846 60.7532 10.2968C60.9987 10.1015 61.0849 10.0141 61.1461 9.69145C61.1461 9.44323 61.1318 9.20862 61.097 8.96335C59.5011 8.87982 59.5011 8.87982 58.0252 9.4189Z" fill="black"/>
<path d="M75.3119 4.1801C75.369 4.2123 75.4261 4.2445 75.4849 4.27768C76.2219 4.74948 76.6568 5.41404 76.8857 6.28118C76.9939 6.80848 76.977 7.34546 76.9764 7.88232C76.9767 7.99771 76.977 8.1131 76.9773 8.22848C76.9779 8.46913 76.9779 8.70976 76.9775 8.9504C76.9771 9.25803 76.9783 9.56562 76.9799 9.87325C76.981 10.1111 76.9811 10.3489 76.9808 10.5867C76.9809 10.7001 76.9812 10.8135 76.982 10.9269C76.9828 11.0855 76.9824 11.2441 76.9815 11.4026C76.9816 11.4926 76.9816 11.5826 76.9817 11.6754C76.9443 12.0238 76.8395 12.2815 76.5978 12.5223C76.2646 12.6551 75.9484 12.6673 75.5977 12.6077C75.337 12.4649 75.1881 12.2585 75.0262 12.0003C74.951 12.0567 74.8759 12.1131 74.7985 12.1712C73.9173 12.7505 72.8295 12.8689 71.8239 12.6721C71.0828 12.4616 70.545 12.0827 70.149 11.3843C69.8178 10.7215 69.7833 9.95951 69.9721 9.23859C70.0714 8.93242 70.1911 8.68664 70.3829 8.43189C70.4148 8.38912 70.4468 8.34635 70.4797 8.30228C71.1359 7.51183 72.1193 7.30626 73.0617 7.24082C73.6964 7.20366 74.3219 7.23768 74.9547 7.29302C74.9357 6.83782 74.8965 6.50531 74.5976 6.15415C73.656 5.62649 72.6601 5.86188 71.6785 6.13517C71.2595 6.24328 71.0442 6.23857 70.6686 6.0023C70.4883 5.84897 70.458 5.78629 70.3829 5.54675C70.3564 5.16711 70.3685 4.93534 70.5972 4.63565C70.9272 4.36759 71.2392 4.24228 71.633 4.12791C71.7116 4.10376 71.7116 4.10376 71.7918 4.07912C72.8531 3.75927 74.3071 3.61251 75.3119 4.1801ZM71.9544 9.41891C71.7781 9.70004 71.7553 9.92804 71.8116 10.2541C71.9676 10.5174 72.0939 10.6669 72.3518 10.814C73.1956 10.9771 73.8862 10.8164 74.602 10.3205C74.7589 10.2041 74.8906 10.0945 75.0262 9.95038C75.0436 9.71288 75.0436 9.71288 75.0351 9.44738C75.0338 9.35714 75.0325 9.2669 75.0312 9.17393C75.0295 9.10444 75.0279 9.03495 75.0262 8.96336C73.4303 8.87983 73.4303 8.87983 71.9544 9.41891Z" fill="black"/>
<path d="M94.0904 4.68013C94.975 5.40464 95.416 6.44244 95.5777 7.60146C95.6719 8.86271 95.4914 10.1736 94.7473 11.1984C93.9868 12.1422 93.0141 12.6388 91.8541 12.7501C90.7543 12.7982 89.6532 12.5694 88.8137 11.7726C88.767 11.7325 88.7203 11.6925 88.6722 11.6513C87.8828 10.9129 87.5264 9.74539 87.4564 8.65966C87.3904 7.38948 87.6776 6.12083 88.459 5.13568C89.9153 3.50327 92.3967 3.40643 94.0904 4.68013ZM89.847 6.46407C89.3674 7.13147 89.2404 7.91289 89.3137 8.73558C89.4337 9.42641 89.659 9.95033 90.1709 10.4059C90.7641 10.8093 91.3456 10.8377 92.0283 10.7855C92.5537 10.6518 93.0347 10.2776 93.3367 9.80238C93.7148 9.04754 93.7936 8.17236 93.5909 7.34521C93.3875 6.72483 92.9907 6.25385 92.4569 5.92637C91.5632 5.53898 90.5029 5.69468 89.847 6.46407Z" fill="black"/>
<path d="M38.0233 1.21902C38.1175 1.26913 38.2118 1.31925 38.309 1.37087C38.3173 2.34435 38.3236 3.31781 38.3275 4.29131C38.3294 4.74334 38.3319 5.19535 38.3359 5.64737C38.3398 6.08353 38.342 6.51968 38.3429 6.95586C38.3435 7.12233 38.3448 7.28879 38.3468 7.45525C38.3494 7.6883 38.3497 7.92125 38.3495 8.15433C38.3508 8.22325 38.3521 8.29217 38.3534 8.36317C38.3508 8.69933 38.343 8.84118 38.1425 9.11357C37.9227 9.29049 37.6959 9.43315 37.4509 9.5657C37.3783 9.60609 37.3783 9.60609 37.3043 9.6473C37.1469 9.73472 36.989 9.82118 36.8312 9.90765C36.7217 9.9683 36.6122 10.029 36.5028 10.0898C36.3367 10.1822 36.1706 10.2745 36.0043 10.3665C35.5006 10.6453 35.0002 10.9302 34.5006 11.2174C34.4293 11.2583 34.358 11.2992 34.2846 11.3413C34.182 11.4002 34.182 11.4002 34.0773 11.4603C34.0109 11.4981 33.9446 11.5359 33.8762 11.5748C33.7222 11.664 33.5697 11.7546 33.4175 11.8472C33.3758 11.8722 33.334 11.8971 33.291 11.9228C33.1733 11.9933 33.056 12.0647 32.9387 12.1361C32.737 12.2281 32.737 12.2281 32.5741 12.2234C32.4513 12.1522 32.4513 12.1522 32.3853 12.021C32.371 11.965 32.3567 11.9091 32.3419 11.8514C32.3249 11.7896 32.3078 11.7278 32.2903 11.6641C32.2727 11.5997 32.2551 11.5352 32.237 11.4689C32.1971 11.3473 32.1561 11.2261 32.1142 11.1052C32.0933 11.0448 32.0724 10.9843 32.0509 10.922C32.0298 10.8613 32.0087 10.8006 31.987 10.7381C31.9659 10.6768 31.9448 10.6155 31.9231 10.5524C31.8271 10.2758 31.7289 10.006 31.6097 9.73979C31.5137 9.4696 31.4906 9.37926 31.5941 9.11519C31.7207 8.93817 31.8469 8.77622 31.987 8.61219C32.066 8.51706 32.145 8.42185 32.2239 8.32658C32.2628 8.27986 32.3018 8.23314 32.3419 8.185C32.4886 8.00695 32.6287 7.82372 32.7683 7.63941C33.0642 7.25177 33.3715 6.87557 33.6802 6.49937C33.906 6.22342 34.1278 5.94494 34.3443 5.66062C34.6356 5.27849 34.9374 4.90715 35.2414 4.53648C35.4961 4.22574 35.7472 3.91224 35.9963 3.59642C36.3162 3.19157 36.6489 2.80091 36.9869 2.41306C37.1417 2.23411 37.2932 2.05298 37.4428 1.86913C37.628 1.64202 37.8203 1.42819 38.0233 1.21902Z" fill="#EA6B21"/>
<path d="M32.4511 20.428C32.8347 20.4655 33.1227 20.5721 33.461 20.7702C33.5088 20.7974 33.5566 20.8245 33.6058 20.8525C33.7616 20.9412 33.9167 21.031 34.0718 21.1208C34.1802 21.1828 34.2885 21.2447 34.3969 21.3065C34.6177 21.4326 34.8383 21.5592 35.0587 21.686C35.3566 21.8574 35.6554 22.027 35.9545 22.1959C36.0872 22.2709 36.2199 22.346 36.3526 22.4211C36.474 22.4898 36.5954 22.5584 36.7168 22.627C38.1385 23.4357 38.1385 23.4357 38.3088 23.6168C38.3156 23.8549 38.3178 24.0913 38.3169 24.3294C38.317 24.4042 38.317 24.479 38.317 24.5561C38.3169 24.8046 38.3164 25.0531 38.3158 25.3017C38.3157 25.4735 38.3156 25.6453 38.3155 25.8171C38.3152 26.2704 38.3145 26.7236 38.3137 27.1768C38.313 27.6389 38.3127 28.101 38.3123 28.563C38.3116 29.4704 38.3103 30.3778 38.3088 31.2852C38.2381 31.3103 38.1674 31.3353 38.0945 31.3611C37.3516 30.8855 36.7203 29.924 36.1856 29.216C36.0073 28.9875 35.8202 28.7691 35.63 28.5519C35.3221 28.2002 35.0335 27.8366 34.7499 27.4623C34.5958 27.2633 34.4361 27.072 34.2727 26.8816C33.9966 26.5591 33.736 26.2261 33.4777 25.8874C33.297 25.652 33.1136 25.4193 32.9288 25.1875C32.8965 25.1469 32.8642 25.1063 32.831 25.0645C32.651 24.8389 32.4697 24.6146 32.287 24.3915C32.2481 24.3438 32.2092 24.296 32.1691 24.2468C32.0939 24.1548 32.0185 24.0629 31.9428 23.9713C31.5883 23.5367 31.5883 23.5367 31.5225 23.3131C31.5473 22.9659 31.6973 22.6564 31.8261 22.3403C32.0756 21.7146 32.272 21.0799 32.4511 20.428Z" fill="#E34F1D"/>
<path d="M103.145 3.85269C103.228 3.853 103.31 3.85332 103.395 3.85365C104.2 3.86496 105.044 3.93923 105.744 4.40788C105.957 4.64163 105.974 4.85235 105.989 5.16713C105.981 5.427 105.961 5.54084 105.842 5.77453C105.555 6.0311 105.345 6.08526 104.971 6.05925C104.77 6.02553 104.575 5.97699 104.377 5.9246C104.02 5.8399 103.676 5.82257 103.311 5.82198C103.22 5.81919 103.22 5.81919 103.127 5.81635C102.714 5.81431 102.365 5.88221 102.029 6.15415C101.916 6.38846 101.916 6.38846 101.886 6.6097C102.153 6.93482 102.357 7.05471 102.748 7.15986C102.796 7.17341 102.845 7.18696 102.894 7.20092C103.048 7.24393 103.201 7.28525 103.355 7.32624C104.406 7.60824 105.393 7.89985 106.056 8.88092C106.367 9.4754 106.337 10.3026 106.189 10.9484C105.949 11.6252 105.544 12.0257 104.958 12.38C103.669 12.9708 102.198 12.827 100.905 12.3316C100.521 12.1614 100.194 11.9972 99.9575 11.6207C99.905 11.2435 99.9218 10.9403 100.078 10.5957C100.258 10.3892 100.342 10.3102 100.6 10.2541C100.997 10.2887 101.319 10.3768 101.694 10.5246C102.141 10.6852 102.558 10.7488 103.029 10.7523C103.085 10.7534 103.14 10.7545 103.197 10.7556C103.582 10.7485 103.937 10.6662 104.244 10.4059C104.325 10.1306 104.325 10.1306 104.315 9.87446C103.78 9.60341 103.244 9.42601 102.672 9.26706C101.686 8.98827 100.857 8.72179 100.207 7.82835C99.888 7.22501 99.9506 6.35509 100.071 5.69593C100.281 5.04643 100.751 4.49742 101.319 4.18011C101.92 3.88319 102.493 3.84928 103.145 3.85269Z" fill="black"/>
<path d="M81.6173 23.631C82.4215 24.2758 82.938 25.1359 83.0996 26.1982C83.1183 26.4103 83.1269 26.6212 83.1309 26.8341C83.1325 26.8856 83.134 26.9371 83.1357 26.9902C83.1345 27.2549 83.1031 27.4069 82.9726 27.6343C82.6924 27.9138 82.41 27.8779 82.0367 27.8772C81.9634 27.8772 81.9634 27.8772 81.8887 27.8772C81.7279 27.8772 81.5672 27.8766 81.4064 27.876C81.2947 27.8759 81.183 27.8758 81.0713 27.8757C80.7777 27.8754 80.4841 27.8746 80.1905 27.8738C79.8907 27.873 79.591 27.8727 79.2912 27.8723C78.7033 27.8715 78.1155 27.8702 77.5276 27.8686C77.5613 27.9909 77.5952 28.1131 77.6292 28.2352C77.648 28.3033 77.6669 28.3714 77.6863 28.4415C77.8618 29.0294 78.1947 29.3727 78.6879 29.6762C79.1363 29.8822 79.5628 29.9463 80.0457 29.9423C80.0984 29.942 80.151 29.9418 80.2052 29.9415C80.7669 29.9297 81.2892 29.8145 81.8004 29.5627C82.069 29.4451 82.2405 29.4177 82.5281 29.463C82.738 29.6196 82.738 29.6196 82.8853 29.8426C82.932 30.1514 82.9294 30.304 82.7648 30.5657C82.1576 31.2567 81.1158 31.4573 80.266 31.5073C79.0431 31.5515 77.8979 31.2877 76.9634 30.3966C76.1566 29.5054 75.9671 28.2973 75.9561 27.1093C76.0189 25.9033 76.3396 24.7575 77.1872 23.9134C78.4179 22.8489 80.277 22.7085 81.6173 23.631ZM78.1027 25.046C77.7113 25.49 77.5276 25.881 77.5276 26.5019C78.8949 26.5019 80.2622 26.5019 81.6709 26.5019C81.5111 25.653 81.3324 25.1775 80.661 24.691C79.816 24.1375 78.8045 24.348 78.1027 25.046Z" fill="black"/>
<path d="M62.0566 23.7663C63.015 24.5725 63.3815 25.6323 63.5257 26.8816C63.6176 28.0881 63.3365 29.2903 62.5971 30.2223C61.8277 31.0972 60.927 31.447 59.8141 31.51C58.6304 31.5385 57.6779 31.1675 56.818 30.3157C55.995 29.4085 55.8046 28.1662 55.8107 26.9575C55.883 25.8317 56.2594 24.7618 57.0385 23.9727C58.4111 22.7624 60.5976 22.7009 62.0566 23.7663ZM57.9538 25.2112C57.3821 25.9386 57.2417 26.788 57.3108 27.7167C57.3859 28.3399 57.6089 28.9327 58.0252 29.3871C58.7199 29.9532 59.3803 30.0894 60.2397 29.9945C60.9022 29.8279 61.3581 29.4252 61.7167 28.8179C62.1173 28.0128 62.1349 27.0799 61.914 26.2125C61.7029 25.5662 61.3731 25.1018 60.8176 24.7536C59.8905 24.295 58.6796 24.4038 57.9538 25.2112Z" fill="black"/>
<path d="M89.7425 23.6168C89.8661 23.8795 89.8481 24.1648 89.814 24.452C89.6704 24.6868 89.5828 24.7415 89.3282 24.8076C89.0827 24.8334 88.9365 24.7987 88.7023 24.7225C87.875 24.5052 86.829 24.3967 86.0739 24.8782C85.8544 25.0749 85.814 25.2075 85.7823 25.5102C85.7658 25.666 85.7658 25.666 85.8136 25.8186C86.0706 26.0944 86.3288 26.1953 86.6753 26.3027C86.7241 26.3182 86.7729 26.3337 86.8232 26.3497C86.9865 26.4014 87.15 26.4518 87.3137 26.502C87.5014 26.5597 87.689 26.6176 87.8764 26.6761C87.9982 26.714 88.1201 26.7514 88.2421 26.7881C88.7574 26.948 89.2388 27.1367 89.622 27.5507C89.6674 27.5981 89.7128 27.6456 89.7596 27.6945C90.0641 28.1157 90.1378 28.522 90.131 29.036C90.1305 29.0927 90.13 29.1494 90.1295 29.2079C90.1141 29.7713 89.9891 30.1594 89.6399 30.5877C89.5492 30.6699 89.5492 30.6699 89.4568 30.7538C89.4038 30.8054 89.3507 30.8571 89.2961 30.9103C88.4265 31.5615 87.338 31.5929 86.3136 31.4371C84.6616 31.081 84.6616 31.081 84.3134 30.526C84.2653 30.2028 84.2597 29.9306 84.4295 29.6528C84.6403 29.5114 84.7786 29.4836 85.0278 29.463C85.2163 29.5152 85.3871 29.5708 85.568 29.6434C86.1037 29.85 86.5544 29.9338 87.1218 29.9376C87.1801 29.9391 87.2384 29.9407 87.2985 29.9423C87.7797 29.9456 88.1936 29.8741 88.5639 29.52C88.7047 29.2456 88.7236 29.0873 88.671 28.7797C88.305 28.4439 87.8709 28.343 87.412 28.2103C87.2575 28.1638 87.1031 28.1172 86.9487 28.0706C86.8389 28.0377 86.8389 28.0377 86.7268 28.0042C85.9032 27.7571 84.9997 27.4807 84.5278 26.6538C84.2875 26.0384 84.2806 25.2759 84.4608 24.6394C84.7809 23.9073 85.2227 23.4951 85.9283 23.2164C87.0352 22.8595 88.7644 22.894 89.7425 23.6168Z" fill="black"/>
<path d="M65.0484 23.1328C65.1026 23.1291 65.1568 23.1253 65.2127 23.1215C65.4648 23.1803 65.5927 23.3259 65.7404 23.5409C65.8795 23.8375 65.9886 24.1449 66.099 24.4546C66.1485 24.59 66.1485 24.59 66.199 24.7281C66.2869 24.9682 66.3737 25.2087 66.4601 25.4494C66.5463 25.6886 66.6334 25.9275 66.7205 26.1664C66.8223 26.4455 66.9239 26.7246 67.0251 27.004C67.3048 27.7758 67.5919 28.5443 67.8835 29.3111C68.252 28.3638 68.6148 27.4145 68.9634 26.4586C68.9885 26.3898 69.0136 26.3209 69.0395 26.25C69.1649 25.9062 69.2898 25.5623 69.4142 25.2182C70.063 23.4294 70.063 23.4294 70.4551 23.1612C70.6769 23.1069 70.8757 23.1104 71.0981 23.1612C71.3822 23.4078 71.3822 23.4078 71.4552 23.6168C71.4851 24.092 71.413 24.417 71.2348 24.8497C71.2113 24.9091 71.1878 24.9685 71.1637 25.0297C71.0862 25.2251 71.0073 25.4198 70.9284 25.6146C70.8738 25.7514 70.8193 25.8883 70.7648 26.0252C70.6501 26.3134 70.5349 26.6015 70.4194 26.8894C70.2388 27.3407 70.0623 27.7937 69.8865 28.247C69.8003 28.4684 69.7142 28.6897 69.628 28.911C69.5726 29.0534 69.5174 29.1958 69.4623 29.3383C69.3848 29.5384 69.3067 29.7381 69.2285 29.9378C69.206 29.9962 69.1836 30.0546 69.1605 30.1148C68.7797 31.0804 68.7797 31.0804 68.3835 31.3611C67.9925 31.4543 67.7085 31.4337 67.3245 31.3211C66.8434 30.975 66.6565 30.2377 66.4503 29.6908C66.3958 29.5486 66.3413 29.4064 66.2868 29.2643C66.2462 29.1587 66.2057 29.053 66.1652 28.9473C65.8801 28.2033 65.5883 27.4622 65.2972 26.7208C65.2012 26.4761 65.1053 26.2315 65.0094 25.9868C64.9494 25.8336 64.8894 25.6805 64.8293 25.5274C64.8019 25.4574 64.7745 25.3874 64.7462 25.3153C64.6331 25.0268 64.5194 24.7388 64.4018 24.4524C64.2764 24.1348 64.2754 23.9585 64.3117 23.6168C64.5196 23.2706 64.6681 23.1504 65.0484 23.1328Z" fill="black"/>
<path d="M98.1719 0.535725C98.3866 0.672112 98.5583 0.825429 98.672 1.0672C98.6793 1.21046 98.682 1.35399 98.6825 1.49746C98.683 1.589 98.6835 1.68055 98.6841 1.77486C98.6843 1.87685 98.6844 1.97885 98.6846 2.08084C98.6851 2.18783 98.6856 2.29483 98.6861 2.40183C98.6873 2.69299 98.6881 2.98415 98.6886 3.27531C98.689 3.45721 98.6894 3.63911 98.6899 3.82101C98.6913 4.3901 98.6923 4.95918 98.6929 5.52827C98.6936 6.18523 98.6954 6.84218 98.6983 7.49913C98.7005 8.00685 98.7015 8.51456 98.7018 9.02229C98.7019 9.32555 98.7026 9.62879 98.7044 9.93205C98.706 10.2175 98.7063 10.5029 98.7056 10.7883C98.7056 10.8929 98.706 10.9975 98.707 11.1021C98.7157 12.0866 98.7157 12.0866 98.3862 12.4559C98.0933 12.6525 97.7749 12.7159 97.4353 12.6457C97.1039 12.5025 96.9716 12.334 96.8147 12.0004C96.8074 11.8581 96.8047 11.7155 96.8042 11.573C96.8036 11.4821 96.8031 11.3912 96.8026 11.2975C96.8024 11.1962 96.8022 11.095 96.802 10.9937C96.8016 10.8874 96.8011 10.7812 96.8006 10.6749C96.7994 10.3858 96.7986 10.0967 96.798 9.80757C96.7976 9.62694 96.7972 9.44631 96.7968 9.26569C96.7954 8.70057 96.7944 8.13546 96.7938 7.57035C96.7931 6.91798 96.7912 6.26564 96.7883 5.61328C96.7862 5.1091 96.7851 4.60494 96.7849 4.10076C96.7847 3.79962 96.7841 3.4985 96.7823 3.19736C96.7806 2.91393 96.7803 2.63053 96.781 2.3471C96.7811 2.19377 96.7797 2.04045 96.7783 1.88713C96.7829 1.04423 96.7829 1.04423 97.1004 0.687575C97.4485 0.42084 97.7701 0.408367 98.1719 0.535725Z" fill="black"/>
<path d="M68.5897 3.83369C68.6675 3.83063 68.6675 3.83063 68.7468 3.8275C69.033 3.82969 69.1562 3.86411 69.3791 4.05998C69.6472 4.41461 69.7078 4.62716 69.6702 5.09119C69.5546 5.41075 69.4473 5.60006 69.1701 5.77452C68.938 5.81396 68.938 5.81396 68.6701 5.8362C68.1276 5.89434 67.7139 6.09179 67.2414 6.38191C67.1881 6.40853 67.1348 6.43515 67.0798 6.46258C66.9165 6.55619 66.8858 6.66001 66.8128 6.83746C66.7656 6.88757 66.7185 6.93768 66.6699 6.98931C66.6486 7.20737 66.6486 7.20737 66.6528 7.46629C66.6526 7.51519 66.6525 7.5641 66.6524 7.61449C66.6521 7.72083 66.6522 7.82718 66.6525 7.93352C66.6529 8.10207 66.6522 8.27058 66.6513 8.43912C66.6486 8.91837 66.6473 9.3976 66.6481 9.87686C66.6485 10.17 66.6472 10.463 66.6448 10.7561C66.6442 10.8676 66.6443 10.9791 66.6451 11.0907C66.6516 12.0738 66.6516 12.0738 66.426 12.3713C66.1183 12.6387 65.8998 12.6332 65.5105 12.6294C65.2364 12.5994 65.0848 12.5011 64.884 12.304C64.7626 12.0904 64.7232 11.9322 64.7225 11.6839C64.722 11.6214 64.7215 11.5589 64.721 11.4946C64.7212 11.4267 64.7213 11.3588 64.7215 11.2889C64.7212 11.2169 64.7208 11.1448 64.7204 11.0707C64.7194 10.8326 64.7195 10.5945 64.7197 10.3564C64.7194 10.1909 64.7191 10.0254 64.7187 9.85996C64.7182 9.51307 64.7182 9.16619 64.7186 8.81931C64.719 8.37472 64.7178 7.93016 64.7161 7.48557C64.7151 7.14381 64.715 6.80206 64.7152 6.4603C64.7152 6.29638 64.7148 6.13246 64.7141 5.96855C64.7132 5.73936 64.7137 5.51021 64.7145 5.28102C64.714 5.21329 64.7135 5.14556 64.7129 5.07577C64.7158 4.71361 64.7354 4.47495 64.9554 4.1801C65.2373 3.90863 65.5438 3.90985 65.9081 3.92029C66.2112 3.97131 66.3248 4.08944 66.527 4.33195C66.5769 4.43193 66.6251 4.53296 66.6699 4.63564C66.7362 4.56674 66.8025 4.49784 66.8708 4.42685C67.384 3.96926 67.9351 3.84903 68.5897 3.83369Z" fill="black"/>
<path d="M73.5494 23.1328C73.6036 23.1291 73.6579 23.1253 73.7137 23.1215C73.9804 23.1837 74.0746 23.314 74.2414 23.5409C74.2938 23.7809 74.2903 24.0154 74.2876 24.261C74.2886 24.369 74.2886 24.369 74.2895 24.4792C74.2911 24.7169 74.2901 24.9545 74.2889 25.1922C74.2891 25.3576 74.2894 25.523 74.2899 25.6883C74.2904 26.0348 74.2897 26.3812 74.288 26.7276C74.286 27.1716 74.2871 27.6156 74.2893 28.0596C74.2906 28.401 74.2901 28.7424 74.2892 29.0839C74.289 29.2476 74.2893 29.4113 74.2901 29.575C74.291 29.8038 74.2896 30.0325 74.2876 30.2614C74.2884 30.329 74.2891 30.3966 74.2898 30.4663C74.2844 30.8029 74.2729 30.939 74.0708 31.2119C73.8718 31.371 73.7746 31.4306 73.5271 31.437C73.2525 31.367 73.0616 31.2956 72.8841 31.0574C72.7632 30.8004 72.8009 30.5081 72.8001 30.2253C72.7996 30.1548 72.7991 30.0843 72.7986 30.0116C72.7972 29.7776 72.7964 29.5437 72.7957 29.3097C72.7954 29.2299 72.7951 29.1501 72.7948 29.0678C72.7933 28.6455 72.7923 28.2232 72.7916 27.8009C72.7908 27.3643 72.7884 26.9277 72.7855 26.4911C72.7837 26.1557 72.7831 25.8204 72.7828 25.485C72.7825 25.324 72.7816 25.1631 72.7803 25.0021C72.7786 24.7769 72.7786 24.5518 72.7791 24.3266C72.7782 24.26 72.7773 24.1935 72.7764 24.1249C72.7789 23.8136 72.7891 23.6566 72.9488 23.3874C73.1524 23.183 73.2754 23.1455 73.5494 23.1328Z" fill="black"/>
<path d="M74.1615 20.1195C74.3884 20.3536 74.4006 20.5026 74.4115 20.8313C74.4099 21.1529 74.4044 21.2356 74.215 21.5004C73.8877 21.7489 73.637 21.7587 73.2417 21.7187C72.9428 21.5875 72.7983 21.4265 72.6703 21.1113C72.6319 20.7312 72.6626 20.5035 72.8846 20.2002C73.2729 19.8274 73.72 19.8033 74.1615 20.1195Z" fill="black"/>
</svg>
