<svg width="32" height="32" viewBox="0 0 32 32" fill="none" xmlns="http://www.w3.org/2000/svg">
<rect width="32" height="32" rx="4" fill="#030100" fill-opacity="0.65"/>
<path d="M7 25C6.45 25 5.97933 24.8043 5.588 24.413C5.19667 24.0217 5.00067 23.5507 5 23V11C5 10.45 5.196 9.97933 5.588 9.588C5.98 9.19667 6.45067 9.00067 7 9H10.15L12 7H18V9H12.875L11.05 11H7V23H23V14H25V23C25 23.55 24.8043 24.021 24.413 24.413C24.0217 24.805 23.5507 25.0007 23 25H7ZM23 11V9H21V7H23V5H25V7H27V9H25V11H23ZM15 21.5C16.25 21.5 17.3127 21.0627 18.188 20.188C19.0633 19.3133 19.5007 18.2507 19.5 17C19.4993 15.7493 19.062 14.687 18.188 13.813C17.314 12.939 16.2513 12.5013 15 12.5C13.7487 12.4987 12.6863 12.9363 11.813 13.813C10.9397 14.6897 10.502 15.752 10.5 17C10.498 18.248 10.9357 19.3107 11.813 20.188C12.6903 21.0653 13.7527 21.5027 15 21.5ZM15 19.5C14.3 19.5 13.7083 19.2583 13.225 18.775C12.7417 18.2917 12.5 17.7 12.5 17C12.5 16.3 12.7417 15.7083 13.225 15.225C13.7083 14.7417 14.3 14.5 15 14.5C15.7 14.5 16.2917 14.7417 16.775 15.225C17.2583 15.7083 17.5 16.3 17.5 17C17.5 17.7 17.2583 18.2917 16.775 18.775C16.2917 19.2583 15.7 19.5 15 19.5Z" fill="white"/>
</svg>
