<svg width="25" height="24" viewBox="0 0 25 24" fill="none" xmlns="http://www.w3.org/2000/svg">
<path d="M12.4964 7.06885C9.5334 7.06885 7.07837 9.48155 7.07837 12.4868C7.07837 15.4921 9.49107 17.9048 12.4964 17.9048C15.5016 17.9048 17.9143 15.4498 17.9143 12.4868C17.9143 9.52387 15.4593 7.06885 12.4964 7.06885ZM12.4964 15.9577C10.5916 15.9577 9.02546 14.3916 9.02546 12.4868C9.02546 10.5821 10.5916 9.01594 12.4964 9.01594C14.4011 9.01594 15.9673 10.5821 15.9673 12.4868C15.9673 14.3916 14.4011 15.9577 12.4964 15.9577Z" fill="white"/>
<path d="M18.126 8.16938C18.8039 8.16938 19.3535 7.61981 19.3535 6.94187C19.3535 6.26393 18.8039 5.71436 18.126 5.71436C17.448 5.71436 16.8984 6.26393 16.8984 6.94187C16.8984 7.61981 17.448 8.16938 18.126 8.16938Z" fill="white"/>
<path d="M21.3006 3.76719C20.2001 2.62433 18.6339 2.03174 16.8562 2.03174H8.13659C4.45405 2.03174 1.99902 4.48676 1.99902 8.1693V16.8466C1.99902 18.6667 2.59162 20.2328 3.7768 21.3757C4.91966 22.4762 6.44347 23.0264 8.17892 23.0264H16.8138C18.6339 23.0264 20.1578 22.4339 21.2583 21.3757C22.4011 20.2751 22.9937 18.709 22.9937 16.8889V8.1693C22.9937 6.39153 22.4011 4.86772 21.3006 3.76719ZM21.1313 16.8889C21.1313 18.2011 20.6657 19.2593 19.9038 19.9788C19.1419 20.6984 18.0837 21.0794 16.8138 21.0794H8.17892C6.90908 21.0794 5.85088 20.6984 5.08897 19.9788C4.32707 19.2169 3.94611 18.1587 3.94611 16.8466V8.1693C3.94611 6.89946 4.32707 5.84126 5.08897 5.07936C5.80855 4.35978 6.90908 3.97883 8.17892 3.97883H16.8985C18.1683 3.97883 19.2265 4.35978 19.9884 5.12169C20.708 5.88359 21.1313 6.94179 21.1313 8.1693V16.8889Z" fill="white"/>
</svg>
