<svg width="21" height="22" viewBox="0 0 21 22" fill="none" xmlns="http://www.w3.org/2000/svg">
<path d="M14.3098 9.12354C15.8398 10.2221 17.6763 10.8124 19.5598 10.811V7.06104C18.1674 7.06104 16.8321 6.50791 15.8475 5.52335C14.8629 4.53878 14.3098 3.20342 14.3098 1.81104H10.5598V13.811C10.5598 14.2808 10.4337 14.7419 10.1947 15.1464C9.95571 15.5508 9.61257 15.8837 9.20108 16.1103C8.7896 16.3369 8.32484 16.4489 7.85529 16.4347C7.38575 16.4204 6.92863 16.2805 6.53162 16.0294C6.13461 15.7782 5.81226 15.4252 5.5982 15.0071C5.38413 14.5889 5.2862 14.121 5.31462 13.6521C5.34304 13.1832 5.49677 12.7305 5.75976 12.3413C6.02276 11.952 6.38538 11.6405 6.80981 11.4392V7.53916C5.61598 7.7532 4.50798 8.30335 3.61587 9.12505C2.72376 9.94674 2.08456 11.0059 1.77331 12.1781C1.46205 13.3504 1.49167 14.5871 1.85866 15.7431C2.22566 16.8991 2.91481 17.9264 3.84523 18.7045C4.77564 19.4826 5.9087 19.9791 7.11141 20.1357C8.31412 20.2924 9.53656 20.1027 10.6352 19.5889C11.7339 19.0751 12.6632 18.2586 13.3141 17.2352C13.965 16.2118 14.3104 15.0239 14.3098 13.811V9.12354Z" stroke="white" stroke-width="2" stroke-linecap="round" stroke-linejoin="round"/>
</svg>
