<svg width="37" height="36" viewBox="0 0 37 36" fill="none" xmlns="http://www.w3.org/2000/svg">
<path d="M18.5598 9.08154C18.6245 9.08154 25.0061 9.08154 29.2192 9.38529L29.4048 9.40217C29.9673 9.45279 30.5748 9.51185 31.1711 10.1278C31.4523 10.409 31.7729 11.4047 31.8826 12.1162C32.0604 13.6766 32.1543 15.2455 32.1639 16.8159V19.1334C32.154 20.7048 32.0601 22.2745 31.8826 23.8359C31.7786 24.5306 31.4495 25.5403 31.1739 25.8047C30.5804 26.4178 29.9589 26.4769 29.4104 26.5303L29.2192 26.55C25.0792 26.8312 18.8439 26.8594 18.5626 26.8594C18.2392 26.8594 10.6876 26.7834 8.27731 26.5781C8.13388 26.5556 7.99606 26.5359 7.83294 26.519C7.19169 26.4431 6.46325 26.3559 5.94013 25.8131C5.65888 25.5319 5.33825 24.539 5.23138 23.8303C5.05358 22.2699 4.9597 20.7011 4.95013 19.1306V16.8356C4.96012 15.2652 5.05401 13.6964 5.23138 12.1359C5.34106 11.4187 5.66731 10.4231 5.94294 10.1475C6.53919 9.53154 7.16075 9.47529 7.70919 9.42186L7.89481 9.40498C12.1136 9.10404 18.4895 9.10123 18.5514 9.10123H18.5598M18.5598 7.27311C18.5598 7.27311 12.0658 7.2731 7.73731 7.58248C7.13263 7.65279 5.81638 7.65842 4.64356 8.87342C3.71825 9.80154 3.4145 11.9081 3.4145 11.9081C3.21783 13.5436 3.10986 15.1885 3.09106 16.8356V19.1531C3.10445 20.8066 3.20773 22.4581 3.40044 24.1003C3.40044 24.1003 3.70138 26.2069 4.6295 27.1322C5.80794 28.3472 7.352 28.3106 8.04106 28.44C10.5161 28.6734 18.5598 28.7465 18.5598 28.7465C18.5598 28.7465 25.0595 28.7465 29.3908 28.4287C29.9954 28.3584 31.3145 28.35 32.4845 27.135C33.4098 26.2097 33.7136 24.1031 33.7136 24.1031C33.9081 22.461 34.0133 20.8095 34.0286 19.1559V16.8384C34.0151 15.185 33.9119 13.5335 33.7192 11.8912C33.7192 11.8912 33.4183 9.78467 32.4901 8.85654C31.3145 7.64154 29.9954 7.63311 29.3964 7.56561C25.0595 7.25342 18.5598 7.25342 18.5598 7.25342V7.27311Z" fill="white"/>
<path d="M15.7839 13.3904V22.6098L23.6561 18.0001L15.7839 13.3904Z" fill="white"/>
</svg>
