<svg width="291" height="346" viewBox="0 0 291 346" fill="none" xmlns="http://www.w3.org/2000/svg">
<path d="M210.967 68.4826C122.325 106.305 81.3904 209.441 119.537 298.845C157.684 388.249 191.782 232.142 280.424 194.32C369.066 156.498 478.685 251.284 440.538 161.88C402.391 72.4762 299.608 30.6607 210.967 68.4826Z" fill="#F9DCD2"/>
<path d="M163.891 82.4075C75.2492 120.229 34.315 223.366 72.462 312.77C110.609 402.174 144.706 246.066 233.348 208.245C321.99 170.423 431.61 265.209 393.463 175.805C355.316 86.401 252.533 44.5856 163.891 82.4075Z" fill="#E86C44"/>
<path d="M248.729 15.9188C267.396 73.2521 270.329 191.919 132.729 207.919C-4.87112 223.919 -7.27112 287.919 8.72888 317.919" stroke="#BD4219" stroke-width="4"/>
</svg>
