<svg width="311" height="346" viewBox="0 0 311 346" fill="none" xmlns="http://www.w3.org/2000/svg">
<path d="M99.7623 68.5638C188.404 106.386 229.338 209.523 191.191 298.927C153.044 388.33 118.947 232.223 30.3052 194.401C-58.3368 156.579 -167.956 251.365 -129.809 161.961C-91.6624 72.5574 11.1204 30.7419 99.7623 68.5638Z" fill="#F9DCD2"/>
<path d="M146.838 82.4887C235.48 120.311 276.414 223.448 238.267 312.851C200.12 402.255 166.023 246.148 77.3806 208.326C-11.2613 170.504 -120.881 265.29 -82.7339 175.886C-44.5869 86.4822 58.1958 44.6668 146.838 82.4887Z" fill="#E86C44"/>
<path d="M62 16C43.3333 73.3333 40.4 192 178 208C315.6 224 318 288 302 318" stroke="#BD4219" stroke-width="4"/>
</svg>
